<?xml version="1.0" encoding="utf-8"?>
<!-- Generator: Adobe Illustrator 27.5.0, SVG Export Plug-In . SVG Version: 6.00 Build 0)  -->
<svg version="1.1" xmlns="http://www.w3.org/2000/svg" xmlns:xlink="http://www.w3.org/1999/xlink" x="0px" y="0px"
	 viewBox="0 0 500 500" style="enable-background:new 0 0 500 500;" xml:space="preserve">
<g id="BACKGROUND">
	<rect style="fill:#FBFFFD;" width="500" height="500"/>
</g>
<g id="OBJECTS">
	<g>
		<g>
			<path style="fill:#D1D0F4;" d="M379.34,90.651h-76.474c-2.328,0-4.215-1.887-4.215-4.215V44c0-2.328,1.887-4.215,4.215-4.215
				h76.474c2.328,0,4.215,1.887,4.215,4.215v42.436C383.555,88.764,381.668,90.651,379.34,90.651z"/>
		</g>
		<g>
			<path style="fill:#B1ABDE;" d="M375.679,82.596h-19.887c-1.074,0-1.947-0.874-1.947-1.947V49.788
				c0-1.074,0.874-1.947,1.947-1.947h19.887c1.074,0,1.947,0.874,1.947,1.947v30.861C377.626,81.722,376.753,82.596,375.679,82.596z
				 M355.792,49.041c-0.412,0-0.747,0.335-0.747,0.747v30.861c0,0.412,0.335,0.747,0.747,0.747h19.887
				c0.412,0,0.747-0.335,0.747-0.747V49.788c0-0.412-0.335-0.747-0.747-0.747H355.792z"/>
		</g>
		<g>
			<g>
				<path style="fill:#B1ABDE;" d="M346.744,48.441h-37.46c-0.802,0-1.451,0.65-1.451,1.451l0,0c0,0.802,0.65,1.451,1.451,1.451
					h37.46c0.801,0,1.451-0.65,1.451-1.451l0,0C348.195,49.09,347.545,48.441,346.744,48.441z"/>
			</g>
			<g>
				<path style="fill:#B1ABDE;" d="M346.744,58.658h-37.46c-0.802,0-1.451,0.65-1.451,1.451l0,0c0,0.802,0.65,1.451,1.451,1.451
					h37.46c0.801,0,1.451-0.65,1.451-1.451l0,0C348.195,59.308,347.545,58.658,346.744,58.658z"/>
			</g>
			<g>
				<path style="fill:#B1ABDE;" d="M346.744,68.876h-37.46c-0.802,0-1.451,0.65-1.451,1.451l0,0c0,0.802,0.65,1.451,1.451,1.451
					h37.46c0.801,0,1.451-0.65,1.451-1.451l0,0C348.195,69.525,347.545,68.876,346.744,68.876z"/>
			</g>
			<g>
				<path style="fill:#B1ABDE;" d="M346.744,79.093h-37.46c-0.802,0-1.451,0.65-1.451,1.451l0,0c0,0.802,0.65,1.451,1.451,1.451
					h37.46c0.801,0,1.451-0.65,1.451-1.451l0,0C348.195,79.743,347.545,79.093,346.744,79.093z"/>
			</g>
		</g>
	</g>
	<g>
		<ellipse style="fill:#D1D0F4;" cx="268.118" cy="460.847" rx="144.646" ry="7.391"/>
	</g>
	<g>
		<g style="opacity:0.4;">
			<path style="fill:#D1D0F4;" d="M236.819,112.246c0,0-59.38,0.681-69.814,44.223c-9.772,40.777,26.684,62.21-16.772,91.243
				c-43.457,29.033-20.196,132.553,61.43,109.815c81.625-22.737,71.483-81.148,132.175-87.053
				C434.465,261.658,413.857,103.521,236.819,112.246z"/>
		</g>
		<g>
			<g>
				<path style="fill:#A9B7DE;" d="M380.481,157.775c4.77,3.884,8.29,9.108,11.078,14.537c3.1,6.035,5.363,12.491,7.072,19.048
					c0.959,3.679,1.733,7.405,2.33,11.16c0.073,0.459,0.771,0.264,0.699-0.193c-1.082-6.816-2.742-13.556-5.057-20.06
					c-2.213-6.218-5.022-12.324-8.883-17.701c-1.937-2.697-4.148-5.203-6.727-7.304C380.634,156.97,380.119,157.48,380.481,157.775
					L380.481,157.775z"/>
			</g>
		</g>
		<g>
			<g>
				<path style="fill:#A9B7DE;" d="M126.747,272.525c-3.83,11.382-4.561,23.729-2.185,35.497c0.679,3.361,1.618,6.664,2.798,9.883
					c0.16,0.436,0.854,0.228,0.693-0.211c-4.121-11.239-5.186-23.531-3.085-35.316c0.586-3.286,1.42-6.522,2.484-9.684
					C127.601,272.249,126.895,272.086,126.747,272.525L126.747,272.525z"/>
			</g>
		</g>
		<g>
			<g>
				<path style="fill:#A9B7DE;" d="M248.71,107.73c14.997-0.572,30.028,0.609,44.751,3.521c0.374,0.074,0.526-0.501,0.15-0.576
					c-14.774-2.922-29.86-4.113-44.909-3.54C248.319,107.15,248.326,107.745,248.71,107.73L248.71,107.73z"/>
			</g>
		</g>
	</g>
	<g>
		<g>
			<g>
				<path style="fill:#FF6665;" d="M315.887,74.368c0,0,2.359-7.809,3.859-8.77c1.501-0.96,2.278-0.449,4.628-2.44
					c2.35-1.993,1.755,1.655,0.937,2.624c-0.82,0.967-2.405,0.707-3.831,3.257c-0.456,0.817-0.827,1.565-1.121,2.206
					c0.638-1.188,1.857-2.826,3.871-3.421c3.437-1.016,3.808-0.307,5.091,0.883c0.576,0.536,0.429,1.007,0.092,1.363
					c-0.444,0.471-1.147,0.576-1.739,0.312c-0.625-0.279-1.642-0.478-2.747,0.352c-1.809,1.354-1.465,2.691-1.465,2.691
					s1.294-1.682,2.694-2.086c1.401-0.403,2.789,0.032,3.845,1.142c1.056,1.111,0.681,2.636-1.678,1.42
					c-1.462-0.753-1.503-0.217-2.432,1.204c0.239-0.312,0.975-1.005,2.367-0.1c1.735,1.127,1.493,2.118,0.822,3.704
					c-0.672,1.587-1.624,1.739-1.902,0.636c-0.249-0.989-0.119-1.411-0.089-1.49c-0.125,0.174-1.408,2.033-2.248,4.904
					c-0.882,3.016-6.003,6.873-10.791,3.91c-2.123-0.749-3.25-2.588-3.525-4.677c-0.963-3.626,1.302-6.112,2.023-7.181
					c1.102-1.634,0.39-4.621,1.002-6.124c0.612-1.503,2.394,1.265,2.45,3.221C316.054,73.867,315.887,74.368,315.887,74.368z"/>
			</g>
			<g>
				<path style="fill:#FF6665;" d="M256.11,117.399c0,0,34.392-0.308,37.991-0.311c3.598-0.003,19.216-33.537,19.216-33.537
					l6.178,2.838c0,0-7.401,39.764-15.907,47.448c-8.506,7.685-39.956,4.452-39.956,4.452S252.306,127.855,256.11,117.399z"/>
			</g>
			<g>
				<g>
					<path style="fill:#CF3736;" d="M320.538,77.215c-0.703,3.688-3.447,6.758-7.046,7.843c-0.308,0.093-0.177,0.577,0.133,0.483
						c3.756-1.132,6.661-4.335,7.396-8.193C321.081,77.033,320.598,76.898,320.538,77.215L320.538,77.215z"/>
				</g>
			</g>
			<g>
				<g>
					<path style="fill:#CF3736;" d="M317.687,74.944c2.601,1.12,4.921,2.731,6.874,4.783c0.223,0.234,0.577-0.121,0.354-0.354
						c-1.981-2.08-4.337-3.725-6.976-4.861C317.646,74.386,317.391,74.817,317.687,74.944L317.687,74.944z"/>
				</g>
			</g>
		</g>
		<g>
			<g>
				<path style="fill:#CF3736;" d="M294.518,117.574c1.844,1.019,3.27,2.541,4.175,4.443c0.166,0.349,0.683,0.044,0.518-0.303
					c-0.945-1.988-2.464-3.594-4.39-4.658C294.482,116.869,294.179,117.387,294.518,117.574L294.518,117.574z"/>
			</g>
		</g>
		<g>
			<g>
				<path style="fill:#CF3736;" d="M296.575,118.934c1.42-0.15,2.733,0.327,3.713,1.37c0.265,0.282,0.689-0.143,0.424-0.424
					c-1.074-1.143-2.576-1.71-4.137-1.545C296.195,118.374,296.191,118.975,296.575,118.934L296.575,118.934z"/>
			</g>
		</g>
		<g>
			<g>
				<path style="fill:#222943;" d="M184.923,126.766c4.046,2.224,6.128,5.824,9.636,8.786c3.383,2.856,5.464,5.923,9.797,7.192
					c2.557,0.749,5.398,1.308,8.262,1.5c9.152-9.218,14.927-32.132,13.767-41.307c-1.216-9.615-16.874-34.894-16.874-34.894
					s-12.401,4.873-14.668,19.611c-2.267,14.738,4.251,20.973-7.936,25.508c-6.245,2.324-10.827,6.838-12.944,11.689
					C176.721,124.918,182.356,125.355,184.923,126.766z"/>
			</g>
			<g>
				<g>
					<g>
						<g>
							<g>
								<g>
									<g>
										<g>
											<path style="fill:#222943;" d="M252.418,184.731c-4.669,0.161-9.117,0.133-13.739-0.673
												c-2.809-0.49-6.584-1.256-8.581-3.466c-0.821,3.012-1.649,5.86-2.332,8.144c-0.077,0.256-0.152,0.508-0.225,0.75
												c-0.813,2.7-1.371,4.443-1.371,4.443c6.895,0.077,13.712-0.238,20.454-0.945c3.011-0.313,6.005-0.707,8.985-1.178
												c2.86-0.453,5.708-0.977,8.54-1.572c2.905-0.611,5.796-1.298,8.67-2.06c2.24-0.593,4.473-1.233,6.697-1.918
												c0,0-1.574-3.42-2.885-7.452C269.7,183.297,260.332,184.457,252.418,184.731z"/>
										</g>
									</g>
								</g>
							</g>
							<g>
								<g>
									<g>
										<path style="fill:#222943;" d="M278.546,184.058c0,0-21.219,10.779-48.322,4.004c0,0-11.497,12.071-6.214,25.903
											c7.233,18.937,49.222,18.283,61.404,1.197C290.854,207.532,278.546,184.058,278.546,184.058z"/>
									</g>
								</g>
								<g>
									<g>
										<g>
											<g>
												<g>
													<path style="fill:#41577E;" d="M278.246,185.59c-1.769,0.945-3.581,1.81-5.428,2.582
														c-1.979,0.829-4.002,1.554-6.062,2.171c-6.529,1.952-13.348,2.832-20.133,2.639
														c-6.488-0.185-12.942-1.351-19.083-3.498c0.073-0.242,0.148-0.494,0.225-0.75c8.914,3.126,18.494,4.134,27.842,3.069
														c2.876-0.327,5.733-0.851,8.54-1.572c4.733-1.213,9.33-2.982,13.663-5.3
														C278.257,184.693,278.693,185.351,278.246,185.59z"/>
												</g>
											</g>
										</g>
									</g>
									<g>
										<g>
											<g>
												<g>
													<path style="fill:#41577E;" d="M271.676,181.773c0.916,1.638,1.474,3.384,1.682,5.249
														c0.056,0.502,0.844,0.462,0.788-0.044c-0.223-2.002-0.829-3.883-1.812-5.641
														C272.086,180.895,271.429,181.331,271.676,181.773L271.676,181.773z"/>
												</g>
											</g>
										</g>
									</g>
									<g>
										<g>
											<g>
												<g>
													<path style="fill:#41577E;" d="M233.733,183.007c-0.907,2.285-1.435,4.641-1.593,7.094
														c-0.033,0.505,0.755,0.457,0.788-0.044c0.149-2.309,0.654-4.54,1.508-6.69
														C234.621,182.898,233.92,182.535,233.733,183.007L233.733,183.007z"/>
												</g>
											</g>
										</g>
									</g>
									<g>
										<g>
											<g>
												<g>
													<path style="fill:#41577E;" d="M248.077,185.313c-0.627,2.178-0.829,4.378-0.611,6.634
														c0.049,0.504,0.836,0.463,0.788-0.044c-0.211-2.184-0.012-4.315,0.595-6.423
														C248.989,184.991,248.217,184.827,248.077,185.313L248.077,185.313z"/>
												</g>
											</g>
										</g>
									</g>
									<g>
										<g>
											<g>
												<path style="fill:#41577E;" d="M260.79,187.061c0.06,1.076,0.98,1.899,2.056,1.84c1.076-0.06,1.899-0.98,1.84-2.056
													c-0.06-1.076-0.98-1.899-2.056-1.84C261.554,185.065,260.73,185.985,260.79,187.061z"/>
											</g>
										</g>
									</g>
								</g>
							</g>
						</g>
						<g>
							<g>
								<g>
									<g>
										<g>
											<g>
												<g>
													<g>
														<g>
															<g>
																<g>
																	<polygon style="fill:#FF6665;" points="215.455,373.173 188.216,380.654 187.464,392.133 222.595,388.191 
																																			"/>
																</g>
															</g>
														</g>
													</g>
												</g>
											</g>
											<g>
												<g>
													<g>
														<path style="fill:#14B74E;" d="M184.127,420.747l-7.573-40.312c0.605-0.178,1.229-0.32,1.871-0.441
															c0.282-0.053,0.562-0.084,0.844-0.142c5.505-1.141,17.088-3.204,15.861-0.357c-3.924,3.299-0.86,9.443-0.86,9.443
															s6.052,3.037,4.962,6.078c-1.09,3.041-4.728,0.483-6.795,4.518c-1.579,3.092,0.257,6.248,0.243,10.384
															c-0.002,1.265-0.181,2.611-0.682,4.083c-1.17,3.429-3.405,5.121-5.194,5.959
															C185.311,420.646,184.127,420.747,184.127,420.747z"/>
													</g>
												</g>
											</g>
											<g>
												<g>
													<path style="fill:#057F42;" d="M193.489,397.367c-2.778-1.067-4.684,0.982-5.01,3.595
														c-0.375,3.001,0.847,6.162,3.88,7.172c0.26,0.087,0.372-0.324,0.113-0.41c-2.581-0.86-3.738-3.432-3.627-6.019
														c0.053-1.23,0.329-2.853,1.392-3.63c0.862-0.63,2.164-0.673,3.139-0.298
														C193.632,397.875,193.742,397.464,193.489,397.367L193.489,397.367z"/>
												</g>
											</g>
											<g>
												<g>
													<g>
														<path style="fill:#FFFFFF;" d="M189.426,378.441c-0.397,3.553-2.909,6.35-6.396,7.142
															c-0.403,0.091-0.52-0.539-0.118-0.63c3.205-0.728,5.51-3.301,5.875-6.565
															C188.833,377.979,189.472,378.029,189.426,378.441L189.426,378.441z"/>
													</g>
												</g>
											</g>
											<g>
												<g>
													<g>
														<path style="fill:#FFFFFF;" d="M184.127,420.747l-7.573-40.312c0.605-0.178,1.229-0.32,1.871-0.441l0.841-0.158
															l7.537,40.124C185.311,420.646,184.127,420.747,184.127,420.747z"/>
													</g>
												</g>
												<g>
													<g>
														<path style="fill:#FFFFFF;" d="M183.169,401.782c0,0,3.794-6.993,2.502-12.7c-1.293-5.707-6.562-9.125-6.562-9.125
															L183.169,401.782z"/>
													</g>
												</g>
											</g>
										</g>
										<g>
											<path style="fill:#222943;" d="M317.066,341.18c-0.081,0.288-0.182,0.585-0.305,0.881
												c-1.276,3.153-4.704,6.805-9.56,10.717c-25.125,20.239-88.396,47.363-88.396,47.363L201.35,364.94
												c0,0,66.911-29.638,71.92-37.558c5.004-7.924-24.675-102.363-24.675-102.363l37.901-18.955
												C296.23,231.804,321.85,324.175,317.066,341.18z"/>
										</g>
										<g>
											<path style="fill:#FF6665;" d="M316.761,342.062c-1.276,3.153-4.704,6.805-9.56,10.717
												c-2.704-2.831-7.403-8.397-3.267-12.776C307.536,336.188,313.159,338.837,316.761,342.062z"/>
										</g>
										<g>
											<g>
												<path style="fill:#41577E;" d="M264.997,224.74c-0.232,0-0.383-0.031-0.399-0.035c-0.229-0.05-0.374-0.276-0.324-0.504
													c0.05-0.229,0.277-0.373,0.504-0.324c0.024,0.005,0.683,0.129,1.304-0.359c0.701-0.55,1.109-1.694,1.179-3.308
													c0.198-4.545-2.946-14.481-2.977-14.581c-0.071-0.223,0.052-0.461,0.275-0.532c0.223-0.071,0.461,0.052,0.533,0.275
													c0.132,0.414,3.22,10.181,3.016,14.875c-0.083,1.909-0.595,3.239-1.522,3.953
													C265.999,224.652,265.385,224.74,264.997,224.74z"/>
											</g>
										</g>
									</g>
								</g>
							</g>
							<g>
								<g>
									<path style="fill:#41577E;" d="M290.606,219.909c-0.007,0-0.013,0-0.02,0c-14.306-0.653-13.818-22.663-13.811-22.885
										c0.007-0.23,0.195-0.411,0.423-0.411c0.005,0,0.009,0,0.013,0c0.234,0.007,0.418,0.202,0.411,0.436
										c-0.007,0.214-0.472,21.398,13.003,22.013c0.234,0.011,0.415,0.209,0.404,0.443
										C291.019,219.732,290.832,219.909,290.606,219.909z"/>
								</g>
							</g>
							<g>
								<g>
									<g>
										<g>
											<g>
												<path style="fill:#41577E;" d="M212.341,366.132c-0.091-0.225,0.018-0.482,0.243-0.573
													c0.214-0.087,0.432-0.175,0.652-0.266c0.225-0.093,0.482,0.015,0.574,0.239c0.092,0.225-0.015,0.482-0.24,0.574
													c-0.222,0.091-0.441,0.181-0.656,0.268c-0.054,0.022-0.11,0.032-0.165,0.032
													C212.575,366.407,212.411,366.303,212.341,366.132z M215.64,364.763c-0.096-0.223,0.008-0.482,0.231-0.578
													c0.818-0.35,1.701-0.734,2.623-1.141c0.223-0.098,0.482,0.003,0.58,0.225c0.098,0.222-0.003,0.482-0.225,0.58
													c-0.926,0.408-1.811,0.793-2.632,1.145c-0.057,0.024-0.115,0.036-0.173,0.036
													C215.874,365.03,215.712,364.93,215.64,364.763z M220.889,362.462c-0.1-0.222,0-0.482,0.221-0.582
													c0.855-0.384,1.725-0.779,2.608-1.182c0.22-0.101,0.482-0.004,0.583,0.218c0.101,0.221,0.003,0.482-0.218,0.583
													c-0.883,0.403-1.756,0.799-2.612,1.184c-0.059,0.026-0.12,0.039-0.18,0.039
													C221.123,362.721,220.962,362.625,220.889,362.462z M226.104,360.087c-0.102-0.221-0.006-0.482,0.215-0.584
													c0.861-0.398,1.728-0.801,2.596-1.207c0.22-0.103,0.482-0.008,0.585,0.212c0.103,0.22,0.008,0.482-0.213,0.585
													c-0.87,0.406-1.738,0.81-2.6,1.208c-0.06,0.028-0.122,0.041-0.184,0.041
													C226.338,360.343,226.179,360.248,226.104,360.087z M231.299,357.665c-0.104-0.22-0.009-0.482,0.21-0.586
													c0.867-0.409,1.731-0.818,2.589-1.225c0.219-0.104,0.482-0.011,0.586,0.209c0.104,0.22,0.011,0.482-0.209,0.586
													c-0.858,0.408-1.723,0.817-2.591,1.226c-0.061,0.029-0.124,0.042-0.187,0.042
													C231.532,357.918,231.374,357.824,231.299,357.665z M236.476,355.21c-0.105-0.219-0.012-0.482,0.207-0.587
													c0.874-0.418,1.737-0.832,2.583-1.239c0.218-0.105,0.482-0.013,0.587,0.206c0.105,0.219,0.013,0.482-0.206,0.587
													c-0.846,0.407-1.709,0.821-2.585,1.24c-0.061,0.029-0.126,0.043-0.189,0.043
													C236.709,355.46,236.551,355.368,236.476,355.21z M241.641,352.727c-0.106-0.219-0.014-0.482,0.204-0.588
													c0.888-0.43,1.749-0.848,2.577-1.251c0.219-0.107,0.482-0.015,0.588,0.203c0.106,0.219,0.015,0.482-0.203,0.588
													c-0.829,0.403-1.69,0.821-2.579,1.251c-0.062,0.03-0.127,0.044-0.191,0.044
													C241.874,352.976,241.717,352.884,241.641,352.727z M246.796,350.221c-0.107-0.218-0.016-0.482,0.202-0.589
													c0.923-0.451,1.785-0.874,2.573-1.261c0.218-0.108,0.482-0.017,0.589,0.201c0.107,0.218,0.017,0.482-0.201,0.589
													c-0.788,0.387-1.651,0.81-2.574,1.262c-0.062,0.03-0.128,0.045-0.193,0.045
													C247.028,350.468,246.872,350.378,246.796,350.221z M251.942,347.694c-0.108-0.218-0.018-0.482,0.199-0.59
													c1.63-0.806,2.576-1.278,2.577-1.278c0.217-0.108,0.482-0.02,0.59,0.197c0.108,0.217,0.02,0.482-0.198,0.59
													c0,0-0.947,0.473-2.58,1.279c-0.062,0.031-0.129,0.046-0.194,0.046C252.175,347.939,252.019,347.849,251.942,347.694z"
													/>
											</g>
										</g>
									</g>
								</g>
							</g>
							<g>
								<g>
									<g>
										<g>
											<g>
												<path style="fill:#41577E;" d="M209.205,362.217c5.045,11.522,10.499,22.861,16.35,33.995
													c0.296,0.563-0.558,1.065-0.855,0.5c-5.851-11.134-11.305-22.474-16.35-33.995
													C208.097,362.138,208.95,361.634,209.205,362.217L209.205,362.217z"/>
											</g>
										</g>
									</g>
								</g>
							</g>
						</g>
						<g>
							<g>
								<g>
									<g>
										<g>
											<g>
												<g>
													<g>
														<polygon style="fill:#FF6665;" points="257.05,421.334 254.014,448.121 265.156,450.98 274.045,425.661 
																													"/>
													</g>
												</g>
											</g>
										</g>
									</g>
								</g>
								<g>
									<g>
										<g>
											<path style="fill:#14B74E;" d="M292.662,459.541h-41.017c-0.064-0.627-0.088-1.267-0.088-1.921
												c0-0.287,0.021-0.568,0.016-0.856c-0.105-5.621,0.006-17.386,2.577-15.654c2.517,4.466,9.122,2.588,9.122,2.588
												s4.102-5.387,6.89-3.754c2.788,1.633-0.398,4.736,3.186,7.512c2.747,2.123,6.188,0.901,10.25,1.679
												c1.243,0.235,2.533,0.66,3.887,1.424c3.154,1.783,4.404,4.291,4.898,6.205
												C292.782,458.359,292.662,459.541,292.662,459.541z"/>
										</g>
									</g>
								</g>
								<g>
									<g>
										<path style="fill:#057F42;" d="M271.338,445.962c-1.351,2.329-0.309,4.556,2.066,5.53
											c3.051,1.252,6.718,0.671,8.457-2.308c0.2-0.343-0.331-0.653-0.531-0.311c-1.343,2.301-3.966,3.03-6.469,2.43
											c-2.392-0.572-4.462-2.496-2.991-5.032C272.069,445.929,271.537,445.619,271.338,445.962L271.338,445.962z"/>
									</g>
								</g>
								<g>
									<g>
										<g>
											<path style="fill:#FFFFFF;" d="M252.062,446.523c3.419,1.046,5.704,4.032,5.838,7.604c0.016,0.413-0.625,0.412-0.641,0
												c-0.124-3.284-2.227-6.025-5.368-6.986C251.499,447.02,251.666,446.401,252.062,446.523L252.062,446.523z"/>
										</g>
									</g>
								</g>
								<g>
									<g>
										<g>
											<path style="fill:#FFFFFF;" d="M292.662,459.541h-41.017c-0.064-0.627-0.088-1.267-0.088-1.921v-0.856h40.825
												C292.782,458.359,292.662,459.541,292.662,459.541z"/>
										</g>
									</g>
									<g>
										<g>
											<path style="fill:#FFFFFF;" d="M273.847,456.982c0,0-6.173-5.02-12.02-4.803c-5.848,0.217-10.179,4.765-10.179,4.765
												L273.847,456.982z"/>
										</g>
									</g>
								</g>
							</g>
							<g>
								<g>
									<path style="fill:#222943;" d="M261.027,218.992c0,0,34.601,94.467,35.639,124.828
										c1.039,30.361-18.887,86.924-18.887,86.924l-33.74-2.634c0,0,15.554-67.014,11.509-98.093
										C251.504,298.938,223,244.707,223,210.434L261.027,218.992z"/>
								</g>
							</g>
							<g>
								<path style="fill:#FF6665;" d="M295.791,338.703c0,0-13.681-0.726-11.774,7.597c1.907,8.322,11.774,6.676,11.774,6.676
									S296.335,343.789,295.791,338.703z"/>
							</g>
							<g>
								<g>
									<g>
										<g>
											<g>
												<path style="fill:#41577E;" d="M256.694,339.65c0.25,15.101-1.229,30.114-4.129,44.929
													c-0.122,0.625-1.077,0.36-0.955-0.263c2.884-14.73,4.342-29.652,4.094-44.666
													C255.693,339.012,256.684,339.012,256.694,339.65L256.694,339.65z"/>
											</g>
										</g>
									</g>
								</g>
							</g>
							<g>
								<g>
									<g>
										<g>
											<g>
												<path style="fill:#41577E;" d="M251.12,421.322c-0.236-0.056-0.383-0.293-0.327-0.529c0.18-0.765,0.4-1.704,0.654-2.796
													c0.055-0.237,0.293-0.384,0.528-0.329c0.237,0.055,0.384,0.292,0.329,0.528c-0.254,1.093-0.474,2.033-0.655,2.799
													c-0.048,0.203-0.228,0.339-0.428,0.339C251.188,421.334,251.154,421.33,251.12,421.322z M252.423,415.728
													c-0.237-0.054-0.385-0.29-0.33-0.527c0.201-0.874,0.414-1.808,0.639-2.796c0.054-0.237,0.289-0.386,0.527-0.332
													c0.237,0.054,0.385,0.29,0.332,0.527c-0.225,0.989-0.438,1.924-0.639,2.798c-0.047,0.204-0.228,0.342-0.428,0.342
													C252.49,415.739,252.457,415.736,252.423,415.728z M253.696,410.134c-0.237-0.053-0.386-0.288-0.333-0.526
													c0.202-0.9,0.411-1.833,0.625-2.797c0.053-0.237,0.288-0.387,0.525-0.334c0.237,0.053,0.387,0.288,0.334,0.525
													c-0.214,0.965-0.423,1.899-0.625,2.799c-0.046,0.204-0.228,0.344-0.429,0.344
													C253.761,410.145,253.729,410.141,253.696,410.134z M254.942,404.538c-0.238-0.052-0.388-0.287-0.336-0.524
													c0.2-0.912,0.404-1.846,0.611-2.799c0.051-0.237,0.286-0.388,0.523-0.337c0.238,0.051,0.388,0.286,0.337,0.523
													c-0.207,0.954-0.411,1.888-0.612,2.801c-0.045,0.205-0.227,0.346-0.429,0.346
													C255.005,404.548,254.973,404.544,254.942,404.538z M256.16,398.937c-0.238-0.051-0.389-0.285-0.338-0.522
													c0.197-0.92,0.396-1.855,0.597-2.801c0.05-0.238,0.283-0.39,0.522-0.34c0.238,0.05,0.39,0.284,0.339,0.522
													c-0.201,0.948-0.4,1.883-0.597,2.803c-0.044,0.207-0.227,0.348-0.43,0.348
													C256.222,398.947,256.191,398.943,256.16,398.937z M257.348,393.331c-0.238-0.049-0.39-0.283-0.341-0.521
													c0.194-0.926,0.387-1.861,0.582-2.804c0.049-0.238,0.281-0.391,0.52-0.342c0.238,0.049,0.391,0.282,0.342,0.52
													c-0.194,0.944-0.388,1.88-0.582,2.807c-0.043,0.208-0.226,0.35-0.43,0.35
													C257.409,393.341,257.378,393.337,257.348,393.331z M258.505,387.719c-0.238-0.048-0.392-0.28-0.344-0.519
													c0.188-0.931,0.377-1.867,0.564-2.807c0.047-0.238,0.277-0.393,0.517-0.345c0.238,0.047,0.393,0.279,0.346,0.517
													c-0.188,0.941-0.376,1.878-0.565,2.81c-0.042,0.209-0.226,0.353-0.431,0.353
													C258.564,387.728,258.535,387.725,258.505,387.719z M259.627,382.101c-0.238-0.047-0.394-0.278-0.347-0.516
													c0.183-0.935,0.364-1.873,0.544-2.811c0.046-0.238,0.275-0.395,0.515-0.349c0.239,0.046,0.395,0.276,0.349,0.515
													c-0.18,0.939-0.362,1.878-0.545,2.814c-0.041,0.21-0.225,0.356-0.431,0.356
													C259.684,382.109,259.656,382.106,259.627,382.101z M260.708,376.472c-0.239-0.045-0.396-0.275-0.352-0.513
													c0.176-0.939,0.349-1.876,0.52-2.81c0.044-0.239,0.273-0.398,0.512-0.354c0.239,0.044,0.397,0.273,0.354,0.512
													c-0.171,0.936-0.344,1.874-0.521,2.814c-0.039,0.211-0.224,0.359-0.432,0.359
													C260.763,376.48,260.736,376.477,260.708,376.472z M261.74,370.841c-0.24-0.042-0.399-0.271-0.357-0.51
													c0.168-0.945,0.332-1.885,0.492-2.82c0.041-0.24,0.267-0.401,0.508-0.359c0.239,0.041,0.4,0.269,0.359,0.508
													c-0.16,0.936-0.325,1.878-0.493,2.824c-0.038,0.213-0.223,0.363-0.433,0.363
													C261.792,370.848,261.766,370.846,261.74,370.841z M262.714,365.195c-0.24-0.04-0.402-0.266-0.363-0.506
													c0.157-0.951,0.309-1.893,0.456-2.825c0.038-0.24,0.263-0.403,0.503-0.366c0.24,0.038,0.404,0.263,0.366,0.503
													c-0.148,0.934-0.3,1.878-0.457,2.831c-0.036,0.215-0.222,0.368-0.434,0.368
													C262.763,365.201,262.739,365.199,262.714,365.195z M263.613,359.536c-0.24-0.036-0.406-0.26-0.37-0.5
													c0.143-0.958,0.28-1.903,0.41-2.832c0.034-0.241,0.258-0.407,0.497-0.375c0.241,0.034,0.409,0.256,0.375,0.497
													c-0.13,0.931-0.267,1.879-0.411,2.84c-0.033,0.218-0.22,0.375-0.434,0.375
													C263.657,359.541,263.635,359.539,263.613,359.536z M264.414,353.861c-0.241-0.031-0.412-0.251-0.381-0.492
													c0.125-0.976,0.24-1.931,0.343-2.839c0.028-0.241,0.244-0.415,0.487-0.388c0.241,0.027,0.415,0.245,0.387,0.487
													c-0.103,0.912-0.219,1.871-0.345,2.852c-0.028,0.222-0.218,0.384-0.436,0.384
													C264.451,353.864,264.432,353.863,264.414,353.861z M265.07,348.166c-0.242-0.023-0.419-0.238-0.396-0.48
													c0.094-0.995,0.175-1.952,0.237-2.846c0.017-0.242,0.224-0.427,0.47-0.408c0.242,0.017,0.425,0.228,0.408,0.47
													c-0.064,0.901-0.144,1.866-0.239,2.868c-0.022,0.228-0.213,0.398-0.438,0.398
													C265.098,348.168,265.084,348.168,265.07,348.166z M265.49,342.448c-0.243-0.009-0.433-0.213-0.424-0.456
													c0.025-0.692,0.037-1.356,0.037-1.974c0-0.296-0.003-0.585-0.009-0.865c-0.005-0.243,0.188-0.444,0.431-0.449
													c0.242-0.011,0.444,0.188,0.449,0.431c0.006,0.286,0.008,0.581,0.009,0.883c0,0.629-0.013,1.304-0.038,2.006
													c-0.009,0.237-0.204,0.424-0.44,0.424C265.501,342.448,265.495,342.448,265.49,342.448z M264.901,336.342
													c-0.099-0.835-0.242-1.781-0.426-2.813c-0.042-0.24,0.117-0.468,0.356-0.51c0.24-0.043,0.467,0.117,0.51,0.356
													c0.186,1.048,0.332,2.011,0.433,2.862c0.029,0.241-0.144,0.46-0.385,0.489c-0.018,0.002-0.035,0.003-0.053,0.003
													C265.118,336.73,264.928,336.566,264.901,336.342z M263.928,330.728c-0.184-0.87-0.393-1.809-0.623-2.79
													c-0.055-0.236,0.091-0.473,0.328-0.529c0.236-0.056,0.473,0.091,0.529,0.328c0.231,0.987,0.442,1.932,0.627,2.809
													c0.05,0.238-0.102,0.471-0.34,0.521c-0.031,0.007-0.061,0.01-0.091,0.01
													C264.154,331.077,263.972,330.935,263.928,330.728z M262.63,325.158c-0.221-0.882-0.461-1.814-0.714-2.771
													c-0.062-0.235,0.078-0.476,0.313-0.538c0.235-0.062,0.476,0.078,0.538,0.313c0.253,0.96,0.494,1.896,0.716,2.781
													c0.059,0.236-0.084,0.475-0.32,0.534c-0.036,0.009-0.072,0.013-0.107,0.013
													C262.86,325.491,262.681,325.358,262.63,325.158z M261.173,319.623c-0.247-0.901-0.504-1.821-0.769-2.758
													c-0.066-0.234,0.07-0.477,0.304-0.543c0.234-0.066,0.477,0.07,0.543,0.304c0.266,0.939,0.523,1.861,0.771,2.764
													c0.064,0.234-0.073,0.477-0.308,0.541c-0.039,0.011-0.078,0.016-0.117,0.016
													C261.404,319.947,261.227,319.819,261.173,319.623z M259.615,314.114c-0.262-0.903-0.531-1.819-0.806-2.747
													c-0.069-0.233,0.064-0.478,0.296-0.547c0.233-0.069,0.478,0.064,0.547,0.297c0.276,0.93,0.545,1.847,0.808,2.752
													c0.068,0.233-0.067,0.478-0.3,0.545c-0.041,0.012-0.082,0.017-0.123,0.017
													C259.847,314.431,259.671,314.306,259.615,314.114z M257.988,308.625c-0.273-0.904-0.552-1.817-0.835-2.739
													c-0.071-0.232,0.059-0.479,0.292-0.55c0.232-0.071,0.478,0.059,0.55,0.292c0.283,0.923,0.562,1.837,0.836,2.742
													c0.07,0.233-0.061,0.478-0.294,0.549c-0.042,0.013-0.085,0.019-0.128,0.019
													C258.22,308.938,258.045,308.815,257.988,308.625z M256.307,303.151c-0.282-0.904-0.568-1.815-0.857-2.732
													c-0.073-0.232,0.056-0.479,0.287-0.552c0.231-0.073,0.479,0.055,0.552,0.287c0.289,0.918,0.575,1.83,0.857,2.735
													c0.072,0.232-0.057,0.479-0.289,0.551c-0.044,0.014-0.088,0.02-0.131,0.02
													C256.54,303.46,256.366,303.339,256.307,303.151z M254.584,297.69c-0.289-0.905-0.581-1.814-0.875-2.726
													c-0.075-0.231,0.052-0.479,0.284-0.554c0.232-0.075,0.479,0.052,0.554,0.283c0.295,0.913,0.586,1.823,0.876,2.729
													c0.074,0.231-0.054,0.479-0.285,0.553c-0.044,0.014-0.089,0.021-0.134,0.021
													C254.817,297.996,254.644,297.877,254.584,297.69z M252.827,292.24c-0.295-0.905-0.591-1.813-0.89-2.721
													c-0.076-0.231,0.05-0.48,0.281-0.555c0.231-0.076,0.48,0.05,0.555,0.281c0.298,0.91,0.596,1.818,0.89,2.724
													c0.075,0.231-0.051,0.479-0.282,0.555c-0.045,0.015-0.091,0.022-0.136,0.022
													C253.06,292.544,252.888,292.426,252.827,292.24z M251.041,286.799c-0.3-0.906-0.601-1.812-0.903-2.717
													c-0.077-0.23,0.048-0.48,0.278-0.557c0.231-0.077,0.48,0.048,0.557,0.278c0.302,0.906,0.604,1.813,0.903,2.719
													c0.077,0.231-0.049,0.48-0.279,0.556c-0.046,0.015-0.092,0.022-0.138,0.022
													C251.274,287.101,251.102,286.984,251.041,286.799z M249.229,281.363c-0.304-0.905-0.608-1.809-0.913-2.71
													c-0.078-0.23,0.046-0.48,0.276-0.558c0.23-0.077,0.48,0.046,0.557,0.276c0.305,0.901,0.609,1.806,0.913,2.711
													c0.077,0.23-0.047,0.48-0.277,0.557c-0.046,0.016-0.094,0.023-0.14,0.023
													C249.462,281.663,249.291,281.547,249.229,281.363z M247.397,275.942c-0.309-0.908-0.617-1.811-0.924-2.711
													c-0.079-0.23,0.044-0.48,0.274-0.559c0.23-0.079,0.48,0.044,0.559,0.274c0.307,0.9,0.616,1.804,0.924,2.712
													c0.078,0.23-0.045,0.48-0.275,0.558c-0.047,0.016-0.095,0.023-0.141,0.023
													C247.631,276.24,247.46,276.125,247.397,275.942z M245.544,270.522c-0.313-0.909-0.624-1.812-0.933-2.708
													c-0.079-0.23,0.043-0.48,0.272-0.56c0.23-0.08,0.48,0.042,0.56,0.272c0.31,0.896,0.621,1.8,0.934,2.709
													c0.079,0.23-0.043,0.48-0.273,0.559c-0.047,0.016-0.096,0.024-0.143,0.024
													C245.778,270.819,245.607,270.704,245.544,270.522z M243.674,265.108c-0.316-0.911-0.63-1.813-0.942-2.705
													c-0.08-0.229,0.041-0.48,0.27-0.56c0.23-0.08,0.48,0.041,0.561,0.271c0.311,0.893,0.626,1.795,0.942,2.706
													c0.08,0.229-0.042,0.48-0.271,0.56c-0.048,0.017-0.096,0.024-0.144,0.024
													C243.907,265.404,243.737,265.29,243.674,265.108z M241.786,259.699c-0.32-0.913-0.637-1.815-0.949-2.703
													c-0.081-0.229,0.04-0.48,0.269-0.561c0.229-0.08,0.481,0.04,0.561,0.269c0.313,0.888,0.629,1.79,0.95,2.704
													c0.08,0.229-0.04,0.48-0.27,0.561c-0.048,0.017-0.097,0.025-0.146,0.025C242.02,259.993,241.85,259.88,241.786,259.699z
													 M239.884,254.295c-0.325-0.918-0.644-1.819-0.957-2.701c-0.081-0.229,0.038-0.48,0.268-0.562
													c0.229-0.081,0.481,0.038,0.562,0.268c0.313,0.883,0.633,1.784,0.957,2.702c0.081,0.229-0.039,0.481-0.268,0.562
													c-0.048,0.017-0.098,0.025-0.147,0.025C240.117,254.588,239.947,254.475,239.884,254.295z M237.966,248.894
													c-0.33-0.925-0.652-1.826-0.964-2.7c-0.082-0.229,0.037-0.48,0.266-0.562c0.229-0.082,0.481,0.037,0.563,0.266
													c0.313,0.874,0.635,1.775,0.965,2.7c0.082,0.229-0.038,0.481-0.266,0.562c-0.049,0.017-0.099,0.026-0.148,0.026
													C238.2,249.186,238.03,249.074,237.966,248.894z M236.033,243.496c-0.338-0.939-0.662-1.84-0.972-2.699
													c-0.083-0.229,0.036-0.481,0.264-0.563c0.228-0.083,0.481,0.036,0.563,0.264c0.31,0.859,0.635,1.76,0.973,2.7
													c0.082,0.229-0.037,0.481-0.265,0.563c-0.049,0.018-0.099,0.026-0.149,0.026
													C236.267,243.787,236.098,243.675,236.033,243.496z M234.085,238.098c-0.354-0.978-0.682-1.88-0.981-2.699
													c-0.083-0.228,0.034-0.481,0.263-0.564c0.228-0.083,0.481,0.034,0.564,0.263c0.299,0.82,0.627,1.722,0.981,2.701
													c0.083,0.228-0.035,0.481-0.264,0.563c-0.05,0.018-0.1,0.026-0.15,0.026
													C234.318,238.389,234.149,238.277,234.085,238.098z M232.117,232.698c-0.641-1.751-0.999-2.717-0.999-2.717
													c-0.084-0.228,0.032-0.481,0.26-0.565c0.229-0.084,0.481,0.032,0.566,0.26c0,0,0.358,0.967,1,2.72
													c0.083,0.228-0.034,0.481-0.262,0.564c-0.05,0.018-0.101,0.027-0.151,0.027
													C232.351,232.986,232.183,232.876,232.117,232.698z"/>
											</g>
										</g>
									</g>
								</g>
							</g>
							<g>
								<g>
									<g>
										<g>
											<g>
												<path style="fill:#41577E;" d="M235.851,205.315c2.897,4.838,3.667,10.883,1.855,16.252
													c-1.667,4.941-5.333,9.071-10.012,11.357c-0.57,0.279-1.073-0.575-0.5-0.855c4.447-2.172,7.97-6.059,9.558-10.765
													c1.731-5.131,1.015-10.863-1.755-15.489C234.668,205.267,235.523,204.769,235.851,205.315L235.851,205.315z"/>
											</g>
										</g>
									</g>
								</g>
							</g>
							<g>
								<g>
									<g>
										<g>
											<g>
												<path style="fill:#41577E;" d="M278.653,426.439c-10.468-1.016-20.937-2.032-31.405-3.048
													c-0.629-0.061-0.635-1.052,0-0.99c10.468,1.016,20.937,2.032,31.405,3.048
													C279.282,425.51,279.288,426.501,278.653,426.439L278.653,426.439z"/>
											</g>
										</g>
									</g>
								</g>
							</g>
						</g>
						<g>
							<g>
								<path style="fill:#41577E;" d="M260.197,206.513c5.247,21.052,11.922,41.719,18.544,62.368
									c5.698,17.766,11.729,35.554,15.583,53.835c2.61,12.38,4.252,25.444,0.477,37.768c-0.186,0.607-1.142,0.348-0.955-0.263
									c3.435-11.212,2.312-23.085,0.098-34.418c-1.699-8.692-3.989-17.246-6.49-25.737c-5.782-19.627-12.399-38.998-18.405-58.555
									c-3.532-11.501-6.897-23.058-9.807-34.734C259.088,206.158,260.043,205.894,260.197,206.513L260.197,206.513z"/>
							</g>
						</g>
					</g>
					<g>
						<g>
							<g>
								<g>
									<path style="fill:#0958D1;" d="M283.36,176.685c0,0-2.687,2.596-8.021,5.892c-0.255,0.159-0.519,0.317-0.788,0.479
										c-4.087,2.457-9.591,5.24-16.495,7.604c-0.3,0.105-0.604,0.207-0.913,0.309c-5.326,1.763-11.453,3.271-18.383,4.197
										c-0.289,0.037-0.581,0.077-0.873,0.111c-5.87,0.737-12.301,1.054-19.287,0.762c0,0,4.71-2.046,5.762-7.976
										c0.051-0.281,0.093-0.57,0.125-0.87c0.337-3.055-0.283-7.043-2.809-12.176c-1.907-3.871-4.189-7.706-6.556-11.376
										c-7.55-11.705-15.99-21.724-15.988-25.856c0.005-3.469,5.705-8.945,11.357-13.522c1.494-1.21,2.981-2.352,4.362-3.381
										c3.764-2.806,6.717-4.756,6.717-4.756l13.734-2.304c0,0,4.844,0.901,10.52,1.882c0.173,0.028,0.346,0.062,0.516,0.091
										c3.274,0.567,6.777,1.145,9.758,1.587c0,0,0.006,0.006,0.008,0.017c0.159,0.312,2.386,4.691,4.149,12.017v0.011
										c0.298,1.224,0.578,2.531,0.836,3.911c0.017,0.085,0.031,0.17,0.048,0.258c0.028,0.167,0.06,0.335,0.088,0.507
										c0.006,0.034,0.011,0.068,0.017,0.102c0.156,0.876,0.298,1.78,0.428,2.715c0.431,3.126,1.36,6.941,2.692,10.968
										c0.091,0.278,0.184,0.559,0.281,0.839c0.935,2.741,2.055,5.566,3.319,8.33c0.918,2.012,1.919,3.988,2.984,5.875
										c0.156,0.281,0.317,0.558,0.479,0.833C274.875,169.667,278.979,174.576,283.36,176.685z"/>
								</g>
							</g>
							<g>
								<g>
									<g>
										<g>
											<g>
												<path style="fill:#0958D1;" d="M267.968,157.058c-0.632,1.068-1.196,1.933-1.511,2.508
													c-0.697,1.258-1.91-3.928-3.084-10.379c-0.054-0.295-0.108-0.595-0.161-0.896c-0.859-4.798-1.681-10.152-2.253-14.015
													c-0.02-0.136-0.04-0.269-0.06-0.402c-0.023-0.159-0.045-0.318-0.071-0.471c-0.266-1.836-0.465-3.251-0.57-3.976v-0.011
													c-0.011-0.082-0.023-0.159-0.028-0.224c0.111,0.601,0.482,2.063,1.675,3.965c0.159,0.252,0.332,0.513,0.522,0.782
													c0.346,0.49,0.745,1.003,1.205,1.533c1.034,1.182,2.375,2.454,4.11,3.738c1.647,1.216,2.678,2.596,3.259,4.059
													c0.122,0.306,0.224,0.615,0.306,0.927C272.525,148.728,269.892,153.827,267.968,157.058z"/>
											</g>
										</g>
									</g>
								</g>
							</g>
							<g>
								<g>
									<path style="fill:#092BA4;" d="M224.315,120.138c-0.487,6.62-1.963,16.82-10.517,17.299c-0.544,0.03-0.548,0.881,0,0.85
										c3.587-0.201,6.569-2.476,8.408-5.473c2.314-3.771,2.643-8.373,2.959-12.676
										C225.205,119.593,224.355,119.595,224.315,120.138L224.315,120.138z"/>
								</g>
							</g>
							<g>
								<g>
									<path style="fill:#092BA4;" d="M262.427,133.939c-0.397,0.082-0.791,0.173-1.179,0.266
										c-0.096,0.025-0.193,0.048-0.289,0.071c-0.261,0.065-0.519,0.13-0.774,0.196c-3.736,0.961-7.312,1.579-11.155,0.876
										c-6.87-1.256-13.023-5.878-15.92-12.258c-0.224-0.496,0.507-0.927,0.734-0.428c3.129,6.89,10.144,11.663,17.694,12.145
										c3.225,0.204,6.23-0.672,9.291-1.403c0.088-0.02,0.178-0.042,0.266-0.065c0.269-0.062,0.541-0.125,0.81-0.181
										C262.064,133.41,262.237,133.67,262.427,133.939z"/>
								</g>
							</g>
							<g>
								<g>
									<path style="fill:#092BA4;" d="M214.41,151.441c4.492,0.485,8.669,3.038,11.048,6.901c2.61,4.236,2.77,9.65,0.637,14.11
										c-0.235,0.491,0.498,0.923,0.734,0.429c2.262-4.731,2.138-10.462-0.637-14.968c-2.548-4.137-6.981-6.804-11.782-7.322
										C213.867,150.532,213.871,151.383,214.41,151.441L214.41,151.441z"/>
								</g>
							</g>
							<g>
								<g>
									<path style="fill:#092BA4;" d="M271.307,144.196c-1.729,1.905-3.897,3.381-6.303,4.39
										c-0.119,0.048-0.235,0.096-0.354,0.142c-0.425,0.17-0.85,0.323-1.275,0.459c-7.312,2.341-15.086,0.215-21.991-2.67
										c-7.091-2.962-16.597-7.04-23.309-0.958c-0.405,0.366-1.009-0.235-0.604-0.601c2.848-2.579,6.641-3.52,10.418-3.353
										c8.299,0.371,15.395,5.716,23.462,7.239c3.891,0.734,8.094,0.635,11.861-0.553c0.391-0.122,0.777-0.255,1.156-0.403
										c2.54-0.978,4.835-2.488,6.632-4.62C271.122,143.576,271.224,143.885,271.307,144.196z"/>
								</g>
							</g>
							<g>
								<g>
									<path style="fill:#092BA4;" d="M275.34,182.577c-0.255,0.159-0.519,0.317-0.788,0.479
										c-2.562-1.873-4.538-4.529-5.487-7.613c-1.298-4.229-0.49-8.86,1.888-12.51c0.156,0.281,0.317,0.558,0.479,0.833
										c-2.072,3.387-2.729,7.593-1.545,11.45C270.813,178.232,272.789,180.806,275.34,182.577z"/>
								</g>
							</g>
							<g>
								<g>
									<path style="fill:#092BA4;" d="M258.057,190.66c-0.3,0.105-0.604,0.207-0.913,0.309c0.377-4.243-1.179-8.707-4.37-11.844
										c-6.473-6.366-16.416-6.091-23.821-1.545c-0.468,0.286-0.896-0.451-0.428-0.734c3.69-2.268,7.956-3.6,12.309-3.514
										c6.828,0.133,13.508,4.104,16.18,10.523C257.918,186.026,258.252,188.37,258.057,190.66z"/>
								</g>
							</g>
							<g>
								<g>
									<path style="fill:#092BA4;" d="M238.761,195.167c-0.289,0.037-0.581,0.077-0.873,0.111
										c-0.995-2.191-2.582-4.107-4.651-5.43c-2.647-1.692-5.836-2.264-8.874-1.783c0.051-0.281,0.093-0.57,0.125-0.87
										c3.154-0.445,6.442,0.17,9.177,1.919C235.956,190.578,237.704,192.718,238.761,195.167z"/>
								</g>
							</g>
							<g>
								<g>
									<path style="fill:#092BA4;" d="M247.021,153.99c-3.809,0.832-6.987,4.481-5.84,8.516c1.168,4.112,6.404,5.079,10.07,4.365
										c3.721-0.725,6.617-4.046,5.504-7.923c-1.243-4.331-5.599-5.513-9.621-4.973c-0.534,0.072-0.541,0.923,0,0.85
										c3.255-0.437,6.811,0.09,8.413,3.344c1.694,3.442-0.527,6.899-4.053,7.778c-3.204,0.799-8.236,0.124-9.43-3.471
										c-1.212-3.649,1.774-6.922,5.183-7.666C247.781,154.693,247.555,153.873,247.021,153.99L247.021,153.99z"/>
								</g>
							</g>
							<g>
								<path style="fill:#FF6665;" d="M263.632,135.474c-0.796-0.357-1.595-0.82-2.399-1.37c-0.111-0.074-0.221-0.152-0.332-0.23
									c-6.062-4.302-12.14-13.28-15.073-18.169c0.172,0.029,0.345,0.062,0.517,0.09c3.273,0.566,6.775,1.144,9.757,1.587
									c0,0,0.004,0.004,0.008,0.016c0.16,0.312,2.387,4.692,4.151,12.017c-0.017-0.119-0.033-0.221-0.041-0.299
									C260.342,129.863,260.945,132.381,263.632,135.474z"/>
							</g>
							<g>
								<g>
									<path style="fill:#CF3736;" d="M257.595,123.99c1.133,3.686,2.913,7.07,5.295,10.101c0.253,0.322,0.702-0.132,0.451-0.451
										c-2.311-2.941-4.032-6.244-5.131-9.82C258.09,123.429,257.474,123.596,257.595,123.99L257.595,123.99z"/>
								</g>
							</g>
							<g>
								<path style="fill:#FF6665;" d="M215.124,163.642c-7.551-11.706-15.991-21.725-15.987-25.855
									c0.004-3.47,5.705-8.945,11.357-13.522c3.316,1.908,11.882,11.755,13.434,20.171
									C226.23,156.924,219.078,160.02,215.124,163.642z"/>
							</g>
							<g>
								<g>
									<path style="fill:#CF3736;" d="M207.491,151.891c3.216-0.975,6.485-1.723,9.805-2.244c0.539-0.085,0.31-0.904-0.226-0.82
										c-3.32,0.521-6.589,1.269-9.805,2.244C206.743,151.23,206.966,152.051,207.491,151.891L207.491,151.891z"/>
								</g>
							</g>
						</g>
						<g>
							<g>
								<g>
									<g>
										<g>
											<g>
												<path style="fill:#222943;" d="M219.709,110.101c0,0-2.5-6.627-11.977-11.001c-9.477-4.374-11.803-19.755-2.668-28.091
													c2.344-2.139,4.863-2.817,6.049-4.234c7.623-9.104,19.198-4.28,24.831-0.305c6.654,4.696,3.491,10.84,3.125,16.28
													C238.703,88.189,219.709,110.101,219.709,110.101z"/>
											</g>
										</g>
									</g>
								</g>
								<g>
									<g>
										<g>
											<g>
												<g>
													<g>
														<path style="fill:#FF6665;" d="M219.129,121.004c4.302,3.878,24.757,11.438,19.574-4.861l-2.563-5.463l-2.797-5.961
															l-1.957-4.173l-15.378-4.085L219.129,121.004z"/>
													</g>
												</g>
											</g>
										</g>
									</g>
									<g>
										<g>
											<g>
												<g>
													<g>
														<path style="fill:#222943;" d="M220.844,102.865c8.549,9.316,15.047,11.683,16.77,10.958l-4.271-9.103
															L220.844,102.865z"/>
													</g>
												</g>
											</g>
										</g>
									</g>
								</g>
								<g>
									<g>
										<g>
											<g>
												<g>
													<path style="fill:#FF6665;" d="M210.98,94.543c2.423,4.039,4.043,5.153,8.394,8.551
														c3.883,3.033,9.332,3.649,11.912,3.184c9.375-1.689,12.663-6.534,8.245-18.688c-2.745-7.546-1.746-12.424-4.499-14.892
														l-0.003,0.001c-0.169-0.103-0.337-0.202-0.504-0.297c-4.034-2.298-8.835-2.855-13.335-1.715
														C198.824,76.353,207.503,88.747,210.98,94.543z"/>
												</g>
											</g>
										</g>
									</g>
								</g>
								<g>
									<g>
										<path style="fill:#222943;" d="M226.685,88.697c0.767-0.633,1.787-0.532,2.467,0.168c0.382,0.393,0.983-0.208,0.601-0.601
											c-1.025-1.054-2.55-1.092-3.669-0.168C225.662,88.445,226.266,89.043,226.685,88.697L226.685,88.697z"/>
									</g>
								</g>
								<g>
									<g>
										<path style="fill:#222943;" d="M234.235,87.134c0.062-0.676,0.681-1.159,1.353-1.048c0.535,0.088,0.765-0.731,0.226-0.82
											c-1.247-0.205-2.315,0.607-2.43,1.868C233.335,87.679,234.186,87.676,234.235,87.134L234.235,87.134z"/>
									</g>
								</g>
								<g>
									<g>
										<g>
											<g>
												<g>
													<g>
														<g>
															<path style="fill:#222943;" d="M233.489,91.105c0.002-0.001,0.004-0.002,0.006-0.002
																c0.53-0.201,1.459-0.865,1.184-1.935c-0.259-1.009-1.245-1.211-1.874-1.175l-0.837-1.191
																c-0.102-0.145-0.301-0.179-0.446-0.078c-0.145,0.102-0.18,0.301-0.078,0.445l0.944,1.345
																c0.07,0.1,0.191,0.151,0.312,0.132c0.045-0.007,1.141-0.162,1.358,0.681c0.201,0.783-0.752,1.162-0.793,1.178
																c-0.164,0.064-0.247,0.248-0.183,0.413C233.146,91.08,233.326,91.163,233.489,91.105z"/>
														</g>
													</g>
												</g>
											</g>
										</g>
									</g>
								</g>
								<g>
									<g>
										<g>
											<g>
												<path style="fill:#222943;" d="M232.509,69.005c0,0,7.05,3.096,5.133,5.091c-1.917,1.995-13.773-6.311-19.359,7.657
													c-1.391,3.479,1.318,6.51-3.973,9.164c-5.292,2.654-6.551,2.297-8.809-2.328c-2.257-4.625,0.972-16.717,12.522-19.686
													C229.574,65.934,232.509,69.005,232.509,69.005z"/>
											</g>
										</g>
									</g>
								</g>
								<g>
									<g>
										<g>
											<g>
												<path style="fill:#222943;" d="M226.155,72.495c0,0,1.618,11.52-10.182,14.693
													C204.174,90.36,209.716,71.673,226.155,72.495z"/>
											</g>
										</g>
									</g>
								</g>
								<g>
									<g>
										<g>
											<g>
												<path style="fill:#222943;" d="M209.329,79.921c1.367-0.154,4.049,0.091,5.376,0.843
													c1.025,3.315,5.607,11.625,2.042,13.413c-5.292,2.654-4.278,6.613-9.33-2.232c-1.917-3.355-2.844-8.274-1.798-11.465
													C206.843,80.253,208.074,80.063,209.329,79.921z"/>
											</g>
										</g>
									</g>
								</g>
								<g>
									<g>
										<g>
											<g>
												<g>
													<g>
														<path style="fill:#CF3736;" d="M235.693,99.106c-0.82,0.568-1.785,0.853-2.716,0.381
															c-0.472-0.24-0.078-0.96,0.394-0.721c0.666,0.338,1.324,0.035,1.89-0.358
															C235.695,98.105,236.126,98.806,235.693,99.106L235.693,99.106z"/>
													</g>
												</g>
											</g>
										</g>
									</g>
								</g>
								<g>
									<g>
										<g>
											<g>
												<g>
													<path style="fill:#CF3736;" d="M222.73,92.713c0.194,0.659,1.376,0.892,2.64,0.521
														c1.265-0.371,2.133-1.207,1.939-1.866c-0.194-0.659-1.375-0.892-2.64-0.521
														C223.405,91.219,222.537,92.054,222.73,92.713z"/>
												</g>
											</g>
										</g>
									</g>
								</g>
								<g>
									<g>
										<g>
											<g>
												<g>
													<path style="fill:#CF3736;" d="M236.028,89.541c0.194,0.661,1.376,0.893,2.639,0.522
														c0.595-0.175,1.103-0.453,1.452-0.765c-0.179-0.554-0.374-1.123-0.586-1.707c-0.007-0.025-0.018-0.049-0.024-0.071
														c-0.445-0.052-0.987-0.005-1.542,0.158C236.704,88.049,235.834,88.883,236.028,89.541z"/>
												</g>
											</g>
										</g>
									</g>
								</g>
								<g>
									<g>
										<g>
											<g>
												<g>
													<g>
														<path style="fill:#222943;" d="M227.477,83.838c-0.995-0.079-2.142,0.424-2.236,1.541
															c-0.088,1.042-1.732,1.083-1.643,0.027c0.166-1.968,1.874-3.369,3.852-3.212
															C228.493,82.278,228.534,83.922,227.477,83.838L227.477,83.838z"/>
													</g>
												</g>
											</g>
										</g>
									</g>
								</g>
								<g>
									<g>
										<g>
											<g>
												<g>
													<g>
														<path style="fill:#222943;" d="M236.106,83.276c-0.825-0.57-1.902-1.427-2.922-0.835
															c-0.914,0.531-1.781-0.865-0.865-1.397c1.624-0.943,3.182-0.173,4.575,0.79
															C237.756,82.43,236.976,83.878,236.106,83.276L236.106,83.276z"/>
													</g>
												</g>
											</g>
										</g>
									</g>
								</g>
								<g>
									<g>
										<g>
											<g>
												<g>
													<path style="fill:#FFFFFF;" d="M237.013,92.4c0,0-2.85,1.408-8.597,1.573c0,0,1.892,4.834,5.913,3.628
														C237.74,96.579,237.013,92.4,237.013,92.4z"/>
												</g>
											</g>
										</g>
									</g>
								</g>
							</g>
							<g>
								<g>
									<g>
										<g>
											<g>
												<g>
													<g>
														<path style="fill:#FF6665;" d="M220.663,95.501c0.073-1.754-0.736-3.425-2.073-4.565
															c-1.731-1.478-4.763-3.643-6.799-2.732c-2.992,1.34-2.555,4.22-1.426,6.954c1.128,2.734,4.06,5.892,7.778,4.163
															C220.002,98.456,220.604,96.938,220.663,95.501z"/>
													</g>
												</g>
											</g>
										</g>
									</g>
								</g>
								<g>
									<path style="fill:#FFFFFF;" d="M215.089,98.226c0,0.726-0.588,1.314-1.314,1.314c-0.725,0-1.313-0.588-1.313-1.314
										c0-0.725,0.588-1.314,1.313-1.314C214.501,96.912,215.089,97.501,215.089,98.226z"/>
								</g>
								<g>
									<g>
										<g>
											<g>
												<g>
													<g>
														<g>
															<g>
																<path style="fill:#222943;" d="M216.398,96.164c-0.158-1.202-0.405-2.438-1.135-3.439
																	c-0.652-0.894-2.151-2.043-3.317-1.284c-0.391,0.254-0.855-0.311-0.461-0.568c1.124-0.731,2.489-0.318,3.48,0.481
																	c1.43,1.152,1.928,2.958,2.157,4.705C217.182,96.524,216.459,96.632,216.398,96.164L216.398,96.164z"/>
															</g>
														</g>
													</g>
												</g>
											</g>
										</g>
									</g>
								</g>
							</g>
							<g>
								<g>
									<g>
										<g>
											<path style="fill:#222943;" d="M223.479,80.905c0,0,0.106,2.921-1.994,7.316c-0.782,1.636-1.431,3.576,0.567,6.802
												c3.684,5.952-2.178,9.785-2.178,9.785s2.462-4.967-0.089-7.801c-3.339-3.709-4.928-12.153-2.524-13.553
												C219.662,82.053,223.479,80.905,223.479,80.905z"/>
										</g>
									</g>
								</g>
							</g>
						</g>
					</g>
				</g>
				<g>
					<g>
						<g>
							<g>
								<g>
									<g>
										<path style="fill:#222943;" d="M224.789,168.955c-1.431-3.091-3.023-6.198-4.876-9.125
											c-0.167,0.184-0.335,0.366-0.504,0.547c1.798,2.864,3.348,5.897,4.746,8.916c2.475,5.346,4.743,11.105,5.486,16.989
											c0.058,0.459,0.758,0.297,0.701-0.157C229.592,180.183,227.289,174.354,224.789,168.955z"/>
									</g>
								</g>
							</g>
						</g>
					</g>
				</g>
			</g>
		</g>
		<g>
			<path style="fill:#FF6665;" d="M200.87,134.429c0,0-18.426,36.583-20.021,34.481c-1.789-2.357-32.188-43.045-32.188-43.045
				l-7.437,4.813c0,0,25.229,64.43,39.309,64.389c9.357-0.027,40.135-49.965,40.135-49.965L200.87,134.429z"/>
		</g>
		<g>
			<g>
				<path style="fill:#D23E3C;" d="M147.064,125.264c0.51,0.08,1.001,0.215,1.475,0.393c-1.004-1.092-2.241-2.38-3.518-3.577
					c-3.032-2.84-4.095-7.274-5.641-4.376c-1.421,2.663,1.167,6.798,1.242,8.47C142.734,125.642,144.869,124.921,147.064,125.264z"
					/>
			</g>
			<g>
				<path style="fill:#D23E3C;" d="M124.611,124.542c0,0-3.943-4.334-2.778-5.536c1.165-1.201,3.881,2.447,5.896,3.648
					c2.015,1.201,6.968,4.688,6.968,4.688L124.611,124.542z"/>
			</g>
			<g>
				<path style="fill:#FF6665;" d="M149.603,125.011c-0.813-0.487-1.703-0.838-2.664-0.983c-2.204-0.332-4.356,0.466-6.477,0.978
					c-1.039,2.019-5.012,1.079-11.416-1.046c-8.765-2.908-9.649-1.373-9.35-0.824c1.148,2.107,5.432,3.087,11.811,6.544
					c6.379,3.457,14.253,4.162,18.44,3.848c0,0,1.831-0.626,1.695-3.67C151.643,129.856,151.65,126.933,149.603,125.011z"/>
			</g>
		</g>
		<g>
			<g>
				<path style="fill:#CF3736;" d="M211.9,158.98c2.818-4.387,5.635-8.773,8.453-13.16c0.314-0.489-0.465-0.941-0.777-0.454
					c-2.818,4.387-5.635,8.773-8.453,13.16C210.809,159.015,211.587,159.467,211.9,158.98L211.9,158.98z"/>
			</g>
		</g>
		<g>
			<g>
				<path style="fill:#CF3736;" d="M181.081,169.068c-0.889,2.713-0.764,5.562,0.356,8.188c0.215,0.504,0.986,0.145,0.772-0.357
					c-1.034-2.423-1.146-5.045-0.326-7.547C182.053,168.831,181.252,168.546,181.081,169.068L181.081,169.068z"/>
			</g>
		</g>
		<g>
			<g>
				<path style="fill:#CF3736;" d="M180.503,171.134c-0.905,0.682-1.664,1.501-2.278,2.453c-0.296,0.458,0.404,0.941,0.702,0.479
					c0.576-0.892,1.278-1.645,2.126-2.284C181.49,171.453,180.939,170.805,180.503,171.134L180.503,171.134z"/>
			</g>
		</g>
		<g>
			<g>
				<path style="fill:#0958D1;" d="M218.732,81.665c-1.473,0.677-1.828,8.31,4.389,11.506c3.252,1.672,7.667-4.851,10.612-4.769
					c2.945,0.082,6.795,3.941,9.629-1.101c1.265-2.249,0.647-9.817-1.243-11.117C240.23,74.884,219.996,80.901,218.732,81.665z"/>
			</g>
			<g>
				<path style="fill:#0958D1;" d="M218.011,84.086c0,0-6.149,2.302-9.125-0.128c0,0-0.354,1.15,0.046,3.213
					c0,0,3.835,1.894,9.867-0.371L218.011,84.086z"/>
			</g>
			<g>
				<path style="fill:#0980F7;" d="M222.524,84.479c3.315-0.893,11.752-3.142,18.115-4.641c0.825-0.194,1.637,0.366,1.75,1.205
					l0.009,0.066c0.098,0.726-0.365,1.409-1.076,1.586c-3.164,0.784-11.695,2.906-18.063,4.56c-0.747,0.194-1.513-0.238-1.735-0.978
					l0,0C221.291,85.502,221.744,84.69,222.524,84.479z"/>
			</g>
		</g>
	</g>
	<g>
		<g>
			<g>
				<path style="fill:#D1D0F4;" d="M398.063,417.89l-1.936,10.986l-0.154,0.862l-2.281,12.945l-0.2,1.141l-2.11,11.967
					c-0.18,1.025-0.609,1.953-1.222,2.725c-0.218,0.279-0.459,0.537-0.723,0.769c-1.091,0.978-2.528,1.561-4.081,1.561h-27.408
					c-0.688,0-1.355-0.113-1.977-0.328c-0.276-0.093-0.546-0.206-0.801-0.337c-1.666-0.85-2.905-2.447-3.248-4.391l-0.885-5.015
					l-0.215-1.213l-0.723-4.098l-0.171-0.987l-3.045-17.249l-0.154-0.876l-1.492-8.461c0-1.312,18.335-1.852,33.398-1.617
					c0.325,0.006,0.65,0.012,0.972,0.017c1.176,0.02,2.331,0.046,3.451,0.078c0.302,0.009,0.598,0.015,0.894,0.026h0.003
					C391.988,416.637,398.063,417.136,398.063,417.89z"/>
			</g>
		</g>
		<g>
			<g>
				<g>
					<path style="fill:#B1ABDE;" d="M355.592,436.922c-0.311,3.57-2.455,5.918-5.047,8.159l-0.444,0.383l-0.171-0.987
						c0.723-0.624,1.439-1.245,2.081-1.904c2.836-2.914,3.657-7.378,1.599-10.989c-1.399-2.456-3.979-4.011-6.725-4.357
						l-0.154-0.876C351.897,426.891,356.074,431.381,355.592,436.922z"/>
				</g>
			</g>
		</g>
		<g>
			<g>
				<g>
					<path style="fill:#B1ABDE;" d="M391.768,426.766c-2.406-1.634-4.357-3.881-5.825-6.383c-0.271-0.46-0.564-0.975-0.855-1.523
						h-0.95c0.202,0.404,0.407,0.794,0.606,1.163c1.657,3.088,4.008,5.866,6.98,7.755c1.315,0.836,2.752,1.503,4.249,1.959
						l0.154-0.862C394.58,428.394,393.106,427.674,391.768,426.766z"/>
				</g>
			</g>
		</g>
		<g>
			<g>
				<g>
					<path style="fill:#B1ABDE;" d="M381.975,434.783c-4.638-1.62-9.717-1.869-14.17-4.02c-4.317-2.087-8.376-7.184-5.786-11.902
						h-0.956c-1.251,2.784-0.64,6.167,1.192,8.625c2.493,3.349,6.591,4.914,10.507,5.877c4.592,1.135,9.163,1.901,13.369,4.194
						c2.842,1.547,5.459,3.642,7.361,6.266l0.2-1.141c-0.517-0.676-1.083-1.318-1.689-1.91
						C389.191,438.022,385.673,436.071,381.975,434.783z"/>
				</g>
			</g>
		</g>
		<g>
			<g>
				<g>
					<path style="fill:#B1ABDE;" d="M390.16,458.516c-0.218,0.279-0.459,0.537-0.723,0.769c-1.033-6.957-6.618-12.951-13.514-15.101
						c-8.028-2.502-20.012-1.103-24.885,6.591l-0.215-1.213c2.017-2.717,5.001-4.589,8.205-5.764
						c7.668-2.812,17.124-2.078,23.762,2.894C386.602,449.547,389.298,453.875,390.16,458.516z"/>
				</g>
			</g>
		</g>
		<g>
			<g>
				<g>
					<path style="fill:#B1ABDE;" d="M379.447,460.846h-0.888c-0.232-0.978-0.612-1.927-1.123-2.81
						c-1.788-3.085-5.126-4.856-8.641-5.082c-5.616-0.357-10.237,2.952-12.823,7.564c-0.276-0.093-0.546-0.206-0.801-0.337
						c2.897-5.21,8.281-8.855,14.594-7.999c3.611,0.49,6.89,2.513,8.62,5.77C378.872,458.873,379.229,459.848,379.447,460.846z"/>
				</g>
			</g>
		</g>
		<g>
			<g>
				<g>
					<path style="fill:#B1ABDE;" d="M379.614,418.861c0.6,2.513,0.189,5.143-2.39,6.559c-4.312,2.365-7.032-3.141-8.321-6.559
						h-0.926c1.415,3.837,4.335,9.724,9.302,7.496c3.165-1.42,3.815-4.525,3.192-7.496H379.614z"/>
				</g>
			</g>
		</g>
		<g>
			<g>
				<ellipse style="fill:#B1ABDE;" cx="371.853" cy="418.834" rx="22.476" ry="1.088"/>
			</g>
		</g>
		<g>
			<g>
				<g>
					<g>
						<g>
							<g>
								<path style="fill:#D1D0F4;" d="M355.692,381.719c0,0-23.148-4.576-29.608-20.725c-6.46-16.15,17.159-28.262,29.608-19.59
									C369.01,350.681,355.692,381.719,355.692,381.719z"/>
							</g>
						</g>
					</g>
				</g>
				<g>
					<g>
						<g>
							<g>
								<path style="fill:#B1ABDE;" d="M368.815,418.087c-3.263-14.53-10.983-33.004-17.275-46.693
									c-7.719-16.794-15.007-30.201-15.08-30.335c-0.111-0.203-0.365-0.278-0.568-0.167c-0.203,0.111-0.278,0.365-0.167,0.568
									c0.073,0.133,7.347,13.515,15.054,30.284c6.249,13.596,13.912,31.92,17.179,46.343H368.815z"/>
							</g>
						</g>
					</g>
				</g>
			</g>
			<g>
				<g>
					<g>
						<g>
							<path style="fill:#B1ABDE;" d="M354.823,380.156c-0.149,0-0.294-0.08-0.369-0.221
								c-10.068-18.753-26.418-32.358-26.582-32.493c-0.179-0.147-0.204-0.411-0.057-0.59c0.147-0.178,0.411-0.204,0.59-0.057
								c0.165,0.136,16.638,13.841,26.787,32.743c0.109,0.204,0.033,0.458-0.171,0.567
								C354.958,380.14,354.89,380.156,354.823,380.156z"/>
						</g>
					</g>
				</g>
			</g>
			<g>
				<g>
					<g>
						<g>
							<path style="fill:#B1ABDE;" d="M355.28,381.499c-0.118,0-0.236-0.05-0.319-0.148c-7.343-8.643-14.862-14.016-19.878-17.002
								c-5.436-3.236-9.184-4.442-9.221-4.454c-0.221-0.07-0.343-0.305-0.273-0.526c0.07-0.22,0.305-0.342,0.526-0.273
								c0.155,0.049,3.856,1.238,9.369,4.517c5.077,3.019,12.688,8.453,20.115,17.195c0.15,0.176,0.128,0.441-0.048,0.59
								C355.472,381.466,355.376,381.499,355.28,381.499z"/>
						</g>
					</g>
				</g>
			</g>
			<g>
				<g>
					<g>
						<g>
							<path style="fill:#B1ABDE;" d="M353.243,376.583c-0.174,0-0.337-0.11-0.397-0.284c-5.644-16.564-3.568-36.695-3.546-36.896
								c0.025-0.23,0.23-0.396,0.461-0.372c0.23,0.025,0.397,0.231,0.372,0.461c-0.021,0.2-2.077,20.151,3.506,36.536
								c0.075,0.219-0.042,0.457-0.261,0.532C353.333,376.576,353.288,376.583,353.243,376.583z"/>
						</g>
					</g>
				</g>
			</g>
			<g>
				<g>
					<g>
						<g>
							<path style="fill:#B1ABDE;" d="M354.663,379.862c-0.201,0-0.379-0.146-0.413-0.351c-1.727-10.485-0.4-19.038,1.017-24.367
								c1.539-5.787,3.463-9.046,3.544-9.181c0.118-0.199,0.375-0.263,0.574-0.145c0.199,0.118,0.264,0.375,0.145,0.574
								c-0.019,0.033-1.955,3.317-3.463,9.002c-1.391,5.243-2.692,13.659-0.991,23.981c0.038,0.228-0.117,0.444-0.345,0.481
								C354.708,379.86,354.685,379.862,354.663,379.862z"/>
						</g>
					</g>
				</g>
			</g>
		</g>
		<g>
			<g>
				<g>
					<g>
						<path style="fill:#D1D0F4;" d="M380.11,385.938c0,0,23.378-3.198,30.783-18.936c7.404-15.739-15.456-29.228-28.396-21.308
							C368.652,354.166,380.11,385.938,380.11,385.938z"/>
					</g>
				</g>
				<g>
					<g>
						<g>
							<g>
								<path style="fill:#B1ABDE;" d="M402.316,346.37c-0.187-0.135-0.449-0.094-0.585,0.093
									c-0.076,0.105-7.712,10.686-15.296,25.247c-4.456,8.556-8.023,16.794-10.604,24.485c-2.651,7.902-4.259,15.243-4.802,21.891
									h0.845c1.349-16.186,8.904-33.697,15.298-45.978c7.555-14.509,15.161-25.049,15.237-25.153
									C402.545,346.768,402.503,346.506,402.316,346.37z"/>
							</g>
						</g>
					</g>
				</g>
			</g>
			<g>
				<g>
					<g>
						<g>
							<path style="fill:#B1ABDE;" d="M381.095,384.43c-0.075,0-0.151-0.02-0.219-0.062c-0.197-0.121-0.259-0.379-0.137-0.576
								c11.249-18.268,28.505-30.974,28.678-31.1c0.187-0.137,0.449-0.095,0.585,0.091c0.136,0.187,0.095,0.449-0.091,0.585
								c-0.172,0.125-17.298,12.739-28.458,30.863C381.372,384.359,381.235,384.43,381.095,384.43z"/>
						</g>
					</g>
				</g>
			</g>
			<g>
				<g>
					<g>
						<g>
							<path style="fill:#B1ABDE;" d="M380.559,385.743c-0.104,0-0.208-0.039-0.29-0.116c-0.167-0.16-0.173-0.425-0.013-0.592
								c7.932-8.288,15.851-13.262,21.098-15.975c5.697-2.946,9.462-3.914,9.62-3.954c0.223-0.057,0.452,0.079,0.508,0.303
								c0.057,0.224-0.079,0.452-0.303,0.509c-0.038,0.009-3.85,0.992-9.469,3.901c-5.183,2.684-13.008,7.602-20.849,15.795
								C380.779,385.7,380.669,385.743,380.559,385.743z"/>
						</g>
					</g>
				</g>
			</g>
			<g>
				<g>
					<g>
						<g>
							<path style="fill:#B1ABDE;" d="M382.883,380.957c-0.053,0-0.106-0.01-0.158-0.031c-0.214-0.087-0.317-0.332-0.229-0.546
								c6.543-16.026,5.672-36.064,5.662-36.265c-0.011-0.231,0.167-0.427,0.398-0.438c0.228-0.013,0.427,0.167,0.438,0.398
								c0.01,0.202,0.891,20.421-5.724,36.621C383.205,380.858,383.048,380.957,382.883,380.957z"/>
						</g>
					</g>
				</g>
			</g>
			<g>
				<g>
					<g>
						<g>
							<path style="fill:#B1ABDE;" d="M381.272,384.146c-0.031,0-0.062-0.003-0.093-0.01c-0.226-0.051-0.367-0.275-0.316-0.501
								c2.308-10.203,1.508-18.682,0.43-23.998c-1.169-5.764-2.907-9.157-2.924-9.191c-0.107-0.205-0.026-0.458,0.179-0.565
								c0.205-0.106,0.458-0.026,0.565,0.179c0.073,0.14,1.8,3.507,2.994,9.375c1.099,5.404,1.918,14.02-0.427,24.385
								C381.636,384.014,381.463,384.146,381.272,384.146z"/>
						</g>
					</g>
				</g>
			</g>
		</g>
		<g>
			<g>
				<g>
					<g>
						<path style="fill:#D1D0F4;" d="M371.108,355.483c0,0-19.808-12.822-19.829-30.216c-0.02-17.394,26.404-19.899,34.757-7.234
							C394.973,331.583,371.108,355.483,371.108,355.483z"/>
					</g>
				</g>
				<g>
					<g>
						<g>
							<g>
								<path style="fill:#B1ABDE;" d="M370.239,344.397c0.83,16.096,1.15,37.894-1.739,73.689h0.854
									c2.87-35.882,2.55-57.649,1.721-73.733c-0.952-18.459-2.757-33.612-2.775-33.762c-0.028-0.23-0.238-0.392-0.466-0.366
									c-0.23,0.028-0.393,0.236-0.366,0.466C367.486,310.842,369.288,325.967,370.239,344.397z"/>
							</g>
						</g>
					</g>
				</g>
			</g>
			<g>
				<g>
					<g>
						<g>
							<path style="fill:#B1ABDE;" d="M371.034,353.739c-0.21,0-0.391-0.158-0.416-0.371c-2.408-21.148-12.558-39.84-12.66-40.026
								c-0.111-0.203-0.037-0.457,0.166-0.569c0.203-0.112,0.457-0.037,0.569,0.165c0.103,0.188,10.331,19.018,12.758,40.335
								c0.026,0.23-0.139,0.438-0.369,0.464C371.066,353.738,371.05,353.739,371.034,353.739z"/>
						</g>
					</g>
				</g>
			</g>
			<g>
				<g>
					<g>
						<g>
							<path style="fill:#B1ABDE;" d="M370.963,355.156c-0.175,0-0.338-0.111-0.397-0.285c-3.62-10.747-8.616-18.523-12.169-23.154
								c-3.852-5.019-6.886-7.527-6.916-7.552c-0.179-0.147-0.205-0.41-0.059-0.589c0.147-0.179,0.41-0.205,0.589-0.059
								c0.126,0.103,3.123,2.578,7.03,7.665c3.599,4.685,8.656,12.551,12.318,23.422c0.074,0.219-0.044,0.457-0.263,0.53
								C371.052,355.149,371.007,355.156,370.963,355.156z"/>
						</g>
					</g>
				</g>
			</g>
			<g>
				<g>
					<g>
						<g>
							<path style="fill:#B1ABDE;" d="M370.891,349.835c-0.007,0-0.014,0-0.022-0.001c-0.231-0.012-0.409-0.209-0.397-0.44
								c0.891-17.476,10.274-35.407,10.368-35.586c0.108-0.205,0.362-0.283,0.566-0.174c0.205,0.108,0.283,0.361,0.175,0.566
								c-0.094,0.178-9.391,17.95-10.272,35.237C371.298,349.661,371.113,349.835,370.891,349.835z"/>
						</g>
					</g>
				</g>
			</g>
			<g>
				<g>
					<g>
						<g>
							<path style="fill:#B1ABDE;" d="M370.996,353.406c-0.03,0-0.06-0.003-0.09-0.01c-0.226-0.05-0.369-0.273-0.319-0.499
								c2.278-10.379,6.692-17.891,9.994-22.365c3.585-4.858,6.59-7.225,6.716-7.323c0.182-0.142,0.445-0.11,0.588,0.073
								c0.142,0.182,0.11,0.445-0.072,0.588c-0.03,0.024-3.059,2.412-6.578,7.188c-3.246,4.405-7.586,11.8-9.829,22.019
								C371.362,353.273,371.189,353.406,370.996,353.406z"/>
						</g>
					</g>
				</g>
			</g>
		</g>
	</g>
	<g>
		<g>
			
				<ellipse transform="matrix(0.7071 -0.7071 0.7071 0.7071 -220.9924 214.5912)" style="fill:#0958D1;" cx="148.538" cy="374.057" rx="19.333" ry="19.333"/>
		</g>
		<g>
			<g>
				<path style="fill:#0980F7;" d="M156.132,366.659c1.061,6.34-3.218,12.339-9.558,13.4c-6.34,1.061-12.339-3.218-13.4-9.558
					c-1.061-6.34,3.218-12.339,9.558-13.4C149.072,356.04,155.071,360.319,156.132,366.659z"/>
			</g>
		</g>
	</g>
	<g>
		<g>
			
				<ellipse transform="matrix(0.9748 -0.2229 0.2229 0.9748 -21.4476 79.4295)" style="fill:#0958D1;" cx="341.104" cy="134.715" rx="19.333" ry="19.333"/>
		</g>
		<g>
			<g>
				<path style="fill:#0980F7;" d="M333.509,127.317c-1.061,6.34,3.218,12.339,9.558,13.4c6.34,1.061,12.339-3.218,13.4-9.558
					c1.061-6.34-3.218-12.339-9.558-13.4C340.57,116.698,334.57,120.978,333.509,127.317z"/>
			</g>
		</g>
	</g>
	<g>
		<path style="fill:#FFB900;" d="M183.175,60.665c-8.352,1.474-9.547,2.67-11.021,11.021c-1.475-8.351-2.67-9.547-11.021-11.021
			c8.352-1.474,9.547-2.67,11.021-11.021C173.628,57.995,174.823,59.19,183.175,60.665z"/>
	</g>
	<g>
		<path style="fill:#FFB900;" d="M352.125,297.996c-8.352,1.475-9.547,2.67-11.021,11.021c-1.474-8.352-2.67-9.547-11.021-11.021
			c8.352-1.474,9.547-2.67,11.021-11.021C342.578,295.327,343.773,296.522,352.125,297.996z"/>
	</g>
	<g>
		<g>
			<g>
				<path style="fill:#057F42;" d="M350.861,223.572h-31.275c-0.707,0-1.36-0.373-1.721-0.98c-0.36-0.608-0.373-1.36-0.034-1.98
					l15.502-28.322c0.351-0.641,1.023-1.04,1.754-1.04h31.275c0.707,0,1.36,0.373,1.721,0.98c0.36,0.608,0.373,1.36,0.034,1.98
					l-15.502,28.322C352.265,223.173,351.592,223.572,350.861,223.572z M322.961,219.572h26.715l13.313-24.322h-26.715
					L322.961,219.572z"/>
			</g>
		</g>
		<g>
			<g>
				<path style="fill:#14B74E;" d="M348.861,221.072h-31.275c-0.707,0-1.36-0.373-1.721-0.98c-0.36-0.608-0.373-1.36-0.034-1.98
					l15.502-28.322c0.351-0.641,1.023-1.04,1.754-1.04h31.275c0.707,0,1.36,0.373,1.721,0.98c0.36,0.608,0.373,1.36,0.034,1.98
					l-15.502,28.322C350.265,220.673,349.592,221.072,348.861,221.072z M320.961,217.072h26.715l13.313-24.322h-26.715
					L320.961,217.072z"/>
			</g>
		</g>
	</g>
	<g>
		<g>
			<g>
				<g>
					<g>
						<path style="fill:#EB8500;" d="M198.069,282.78l15.502,28.322c0.339,0.62,0.326,1.372-0.034,1.98
							c-0.36,0.608-1.014,0.98-1.721,0.98h-31.275c-0.731,0-1.403-0.399-1.754-1.04l-15.502-28.322
							c-0.339-0.62-0.326-1.372,0.034-1.98c0.36-0.608,1.014-0.98,1.721-0.98h31.275C197.046,281.74,197.719,282.139,198.069,282.78
							z M181.728,310.062h26.715L195.13,285.74h-26.715L181.728,310.062z"/>
					</g>
				</g>
			</g>
		</g>
		<g>
			<g>
				<path style="fill:#FFB900;" d="M200.069,280.28l15.502,28.322c0.339,0.62,0.326,1.372-0.034,1.98
					c-0.36,0.608-1.014,0.98-1.721,0.98h-31.275c-0.731,0-1.403-0.399-1.754-1.04l-15.502-28.322
					c-0.339-0.62-0.326-1.372,0.034-1.98c0.36-0.608,1.014-0.98,1.721-0.98h31.275C199.046,279.24,199.719,279.639,200.069,280.28z
					 M183.728,307.562h26.715L197.13,283.24h-26.715L183.728,307.562z"/>
			</g>
		</g>
	</g>
	<g>
		<g>
			<rect x="96.861" y="60.715" style="fill:#222943;" width="0.801" height="80.88"/>
		</g>
		<g>
			<g>
				<g>
					<circle style="fill:#0958D1;" cx="97.262" cy="100.079" r="13.943"/>
				</g>
				<g>
					<g>
						<path style="fill:#FBFFFD;" d="M101.19,96.114c0,2.17-1.759,3.929-3.929,3.929c-2.17,0-3.929-1.759-3.929-3.929
							c0-2.17,1.759-3.929,3.929-3.929C99.431,92.185,101.19,93.944,101.19,96.114z"/>
					</g>
					<g>
						<path style="fill:#FBFFFD;" d="M102.652,107.972H91.871c0,0-1.155-1.142,0-4.729c0.816-2.529,3.735-4.009,5.391-4.666
							c1.656,0.657,4.574,2.138,5.391,4.666C103.807,106.83,102.652,107.972,102.652,107.972z"/>
					</g>
				</g>
			</g>
			<g>
				<g>
					<g>
						<circle style="fill:#14B74E;" cx="97.262" cy="57.764" r="13.943"/>
					</g>
					<g>
						<g>
							<path style="fill:#FBFFFD;" d="M101.19,53.8c0,2.17-1.759,3.929-3.929,3.929c-2.17,0-3.929-1.759-3.929-3.929
								c0-2.17,1.759-3.929,3.929-3.929C99.431,49.871,101.19,51.63,101.19,53.8z"/>
						</g>
						<g>
							<path style="fill:#FBFFFD;" d="M102.652,65.658H91.871c0,0-1.155-1.142,0-4.729c0.816-2.529,3.735-4.009,5.391-4.666
								c1.656,0.657,4.574,2.138,5.391,4.666C103.807,64.516,102.652,65.658,102.652,65.658z"/>
						</g>
					</g>
				</g>
				<g>
					<g>
						<circle style="fill:#FF6665;" cx="97.262" cy="142.393" r="13.943"/>
					</g>
					<g>
						<g>
							<path style="fill:#FBFFFD;" d="M101.19,138.428c0,2.17-1.759,3.929-3.929,3.929c-2.17,0-3.929-1.759-3.929-3.929
								c0-2.17,1.759-3.929,3.929-3.929C99.431,134.499,101.19,136.258,101.19,138.428z"/>
						</g>
						<g>
							<path style="fill:#FBFFFD;" d="M102.652,150.286H91.871c0,0-1.155-1.142,0-4.729c0.816-2.529,3.735-4.009,5.391-4.666
								c1.656,0.657,4.574,2.138,5.391,4.666C103.807,149.145,102.652,150.286,102.652,150.286z"/>
						</g>
					</g>
				</g>
			</g>
		</g>
	</g>
	<g style="opacity:0.4;">
		<path style="fill:#D1D0F4;" d="M442.68,116.862c-0.463-3.259-2.179-10.517-8.396-13.15c-8.12-3.44-11.693,1.904-22.737,7.425
			c-11.044,5.522-12.668-2.686-20.788-4.31c-7.28-1.456-15.78,8.052-17.461,10.035H442.68z"/>
	</g>
	<g style="opacity:0.4;">
		<path style="fill:#D1D0F4;" d="M137.857,185.921c-0.463-3.259-2.179-10.517-8.396-13.15c-8.12-3.44-11.693,1.904-22.737,7.425
			c-11.044,5.522-12.668-2.686-20.788-4.31c-7.28-1.456-15.78,8.052-17.461,10.035H137.857z"/>
	</g>
	<g>
		<g>
			<polygon style="fill:#0958D1;" points="386.505,264.112 375.81,276.728 365.114,264.112 375.81,241.583 			"/>
		</g>
		<g>
			<polygon style="fill:#0980F7;" points="386.505,264.112 375.81,276.728 375.81,241.583 			"/>
		</g>
		<g>
			<polygon style="fill:#092BA4;" points="365.114,264.112 375.81,269.899 386.505,264.112 375.81,276.728 			"/>
		</g>
	</g>
	<g>
		<g>
			<polygon style="fill:#0958D1;" points="149.65,91.871 138.955,104.488 128.259,91.871 138.955,69.343 			"/>
		</g>
		<g>
			<polygon style="fill:#0980F7;" points="149.65,91.871 138.955,104.488 138.955,69.343 			"/>
		</g>
		<g>
			<polygon style="fill:#092BA4;" points="128.259,91.871 138.955,97.659 149.65,91.871 138.955,104.488 			"/>
		</g>
	</g>
	<g>
		<g>
			<g>
				<path style="fill:#09B900;" d="M100.24,321.155c-0.106,0-0.214-0.029-0.31-0.09l-17.765-11.198
					c-0.16-0.101-0.262-0.274-0.271-0.463c-0.01-0.189,0.073-0.372,0.222-0.488l17.178-13.511l-16.956-13.166
					c-0.149-0.115-0.232-0.295-0.225-0.483c0.007-0.188,0.105-0.361,0.262-0.464l17.546-11.547c0.269-0.177,0.63-0.103,0.807,0.167
					c0.177,0.269,0.103,0.631-0.167,0.808l-16.865,11.099l16.902,13.124c0.142,0.11,0.225,0.279,0.225,0.459
					c0.001,0.179-0.082,0.349-0.223,0.46l-17.115,13.461l17.066,10.758c0.272,0.172,0.354,0.532,0.182,0.804
					C100.622,321.059,100.433,321.155,100.24,321.155z"/>
			</g>
		</g>
		<g>
			<g>
				<circle style="fill:#09B900;" cx="100.24" cy="270.231" r="4.134"/>
			</g>
		</g>
		<g>
			<g>
				<path style="fill:#09B900;" d="M104.374,295.401c0,2.283-1.851,4.133-4.133,4.133c-2.283,0-4.133-1.851-4.133-4.133
					c0-2.283,1.851-4.133,4.133-4.133C102.523,291.268,104.374,293.118,104.374,295.401z"/>
			</g>
		</g>
		<g>
			<g>
				<path style="fill:#09B900;" d="M104.374,320.572c0,2.283-1.851,4.133-4.133,4.133c-2.283,0-4.133-1.851-4.133-4.133
					c0-2.283,1.851-4.134,4.133-4.134C102.523,316.438,104.374,318.289,104.374,320.572z"/>
			</g>
		</g>
		<g>
			<g>
				<circle style="fill:#09B900;" cx="82.475" cy="281.785" r="4.133"/>
			</g>
		</g>
		<g>
			<g>
				<circle style="fill:#09B900;" cx="82.475" cy="309.38" r="4.133"/>
			</g>
		</g>
	</g>
	<g>
		<g>
			<g>
				<path style="fill:#EB8500;" d="M415.645,185.51c0.106,0,0.214-0.029,0.31-0.09l17.765-11.199
					c0.16-0.101,0.261-0.274,0.271-0.463c0.01-0.189-0.073-0.372-0.222-0.488l-17.178-13.511l16.957-13.166
					c0.149-0.115,0.232-0.295,0.225-0.483c-0.007-0.188-0.105-0.361-0.262-0.464l-17.546-11.547
					c-0.269-0.177-0.63-0.103-0.807,0.166s-0.102,0.631,0.167,0.808l16.865,11.099l-16.902,13.124
					c-0.142,0.11-0.225,0.279-0.225,0.459c-0.001,0.179,0.082,0.349,0.223,0.46l17.115,13.461l-17.066,10.758
					c-0.273,0.172-0.354,0.532-0.182,0.804C415.262,185.413,415.452,185.509,415.645,185.51z"/>
			</g>
		</g>
		<g>
			<g>
				<path style="fill:#FFB900;" d="M411.511,134.585c0,2.283,1.851,4.133,4.133,4.133c2.283,0,4.134-1.851,4.134-4.133
					s-1.851-4.133-4.134-4.133C413.362,130.452,411.511,132.302,411.511,134.585z"/>
			</g>
		</g>
		<g>
			<g>
				<path style="fill:#FFB900;" d="M411.511,159.756c0,2.283,1.851,4.133,4.133,4.133c2.283,0,4.134-1.851,4.134-4.133
					c0-2.283-1.851-4.133-4.134-4.133C413.362,155.622,411.511,157.473,411.511,159.756z"/>
			</g>
		</g>
		<g>
			<g>
				<path style="fill:#FFB900;" d="M411.511,184.926c0,2.283,1.851,4.133,4.133,4.133c2.283,0,4.134-1.851,4.134-4.133
					c0-2.283-1.851-4.134-4.134-4.134C413.362,180.793,411.511,182.643,411.511,184.926z"/>
			</g>
		</g>
		<g>
			<g>
				<circle style="fill:#FFB900;" cx="433.409" cy="146.14" r="4.134"/>
			</g>
		</g>
		<g>
			<g>
				<circle style="fill:#FFB900;" cx="433.409" cy="173.735" r="4.134"/>
			</g>
		</g>
	</g>
	<g>
		<g>
			<g>
				<path style="fill:#0958D1;" d="M268.137,61.237h-0.038c-0.375,0-0.679-0.304-0.679-0.679v-5.279
					c0-0.375,0.304-0.679,0.679-0.679h0.038c0.375,0,0.679,0.304,0.679,0.679v5.279C268.816,60.933,268.512,61.237,268.137,61.237z"
					/>
			</g>
			<g>
				<path style="fill:#0958D1;" d="M268.137,70.327h-0.038c-0.375,0-0.679-0.304-0.679-0.679v-5.279
					c0-0.375,0.304-0.679,0.679-0.679h0.038c0.375,0,0.679,0.304,0.679,0.679v5.279C268.816,70.023,268.512,70.327,268.137,70.327z"
					/>
			</g>
		</g>
		<g>
			<g>
				<path style="fill:#0958D1;" d="M269.345,62.483v-0.038c0-0.375,0.304-0.679,0.679-0.679h5.279c0.375,0,0.679,0.304,0.679,0.679
					v0.038c0,0.375-0.304,0.679-0.679,0.679h-5.279C269.649,63.162,269.345,62.858,269.345,62.483z"/>
			</g>
			<g>
				<path style="fill:#0958D1;" d="M260.255,62.483v-0.038c0-0.375,0.304-0.679,0.679-0.679h5.279c0.375,0,0.679,0.304,0.679,0.679
					v0.038c0,0.375-0.304,0.679-0.679,0.679h-5.279C260.559,63.162,260.255,62.858,260.255,62.483z"/>
			</g>
		</g>
	</g>
	<g>
		<g>
			<g>
				<path style="fill:#FFB900;" d="M116.061,343.88h-0.038c-0.375,0-0.679-0.304-0.679-0.679v-5.279
					c0-0.375,0.304-0.679,0.679-0.679h0.038c0.375,0,0.679,0.304,0.679,0.679v5.279C116.74,343.576,116.436,343.88,116.061,343.88z"
					/>
			</g>
			<g>
				<path style="fill:#FFB900;" d="M116.061,352.97h-0.038c-0.375,0-0.679-0.304-0.679-0.679v-5.279
					c0-0.375,0.304-0.679,0.679-0.679h0.038c0.375,0,0.679,0.304,0.679,0.679v5.279C116.74,352.666,116.436,352.97,116.061,352.97z"
					/>
			</g>
		</g>
		<g>
			<g>
				<path style="fill:#FFB900;" d="M117.269,345.126v-0.038c0-0.375,0.304-0.679,0.679-0.679h5.279c0.375,0,0.679,0.304,0.679,0.679
					v0.038c0,0.375-0.304,0.679-0.679,0.679h-5.279C117.573,345.805,117.269,345.501,117.269,345.126z"/>
			</g>
			<g>
				<path style="fill:#FFB900;" d="M108.179,345.126v-0.038c0-0.375,0.304-0.679,0.679-0.679h5.279c0.375,0,0.679,0.304,0.679,0.679
					v0.038c0,0.375-0.304,0.679-0.679,0.679h-5.279C108.483,345.805,108.179,345.501,108.179,345.126z"/>
			</g>
		</g>
	</g>
	<g>
		<g>
			<g>
				<path style="fill:#14B74E;" d="M425.773,248.773h-0.038c-0.375,0-0.679-0.304-0.679-0.679v-5.279
					c0-0.375,0.304-0.679,0.679-0.679h0.038c0.375,0,0.679,0.304,0.679,0.679v5.279
					C426.452,248.469,426.148,248.773,425.773,248.773z"/>
			</g>
			<g>
				<path style="fill:#14B74E;" d="M425.773,257.863h-0.038c-0.375,0-0.679-0.304-0.679-0.679v-5.279
					c0-0.375,0.304-0.679,0.679-0.679h0.038c0.375,0,0.679,0.304,0.679,0.679v5.279C426.452,257.56,426.148,257.863,425.773,257.863
					z"/>
			</g>
		</g>
		<g>
			<g>
				<path style="fill:#14B74E;" d="M426.98,250.019v-0.038c0-0.375,0.304-0.679,0.679-0.679h5.279c0.375,0,0.679,0.304,0.679,0.679
					v0.038c0,0.375-0.304,0.679-0.679,0.679h-5.279C427.284,250.698,426.98,250.394,426.98,250.019z"/>
			</g>
			<g>
				<path style="fill:#14B74E;" d="M417.89,250.019v-0.038c0-0.375,0.304-0.679,0.679-0.679h5.279c0.375,0,0.679,0.304,0.679,0.679
					v0.038c0,0.375-0.304,0.679-0.679,0.679h-5.279C418.194,250.698,417.89,250.394,417.89,250.019z"/>
			</g>
		</g>
	</g>
	<g>
		<g>
			<path style="fill:#D1D0F4;" d="M176.094,255.037H99.62c-2.328,0-4.215-1.887-4.215-4.215v-42.436
				c0-2.328,1.887-4.215,4.215-4.215h76.473c2.328,0,4.215,1.887,4.215,4.215v42.436
				C180.309,253.15,178.421,255.037,176.094,255.037z"/>
		</g>
		<g>
			<path style="fill:#B1ABDE;" d="M173.35,249.092v-18.5c-15.496-1.579-18.749,8.421-28.252,11.367
				c-9.234,2.862-13.783-4.625-28.035-2.946c-7.182,0.846-10.811,6.66-12.477,10.078H173.35z"/>
		</g>
		<g>
			<path style="fill:#B1ABDE;" d="M167.736,215.09c-0.012-0.058-0.025-0.115-0.038-0.171c-1.481-6.406-10.57-6.406-12.052,0
				c-0.014,0.056-0.026,0.112-0.038,0.171c-1.232,5.734,6.064,11.33,6.064,11.33S168.968,220.824,167.736,215.09z M161.672,218.892
				c-1.389,0-2.515-1.125-2.515-2.514s1.126-2.514,2.515-2.514s2.514,1.125,2.514,2.514S163.061,218.892,161.672,218.892z"/>
		</g>
		<g>
			<g>
				<path style="fill:#B1ABDE;" d="M143.497,213.627h-37.46c-0.801,0-1.451,0.65-1.451,1.451l0,0c0,0.801,0.65,1.451,1.451,1.451
					h37.46c0.801,0,1.451-0.65,1.451-1.451l0,0C144.948,214.277,144.299,213.627,143.497,213.627z"/>
			</g>
			<g>
				<path style="fill:#B1ABDE;" d="M143.497,220.042h-37.46c-0.801,0-1.451,0.65-1.451,1.451l0,0c0,0.802,0.65,1.451,1.451,1.451
					h37.46c0.801,0,1.451-0.65,1.451-1.451l0,0C144.948,220.692,144.299,220.042,143.497,220.042z"/>
			</g>
			<g>
				<path style="fill:#B1ABDE;" d="M143.497,227.094h-37.46c-0.801,0-1.451,0.65-1.451,1.451l0,0c0,0.802,0.65,1.451,1.451,1.451
					h37.46c0.801,0,1.451-0.65,1.451-1.451l0,0C144.948,227.744,144.299,227.094,143.497,227.094z"/>
			</g>
		</g>
	</g>
</g>
</svg>
