<?xml version="1.0" encoding="utf-8"?>
<!-- Generator: Adobe Illustrator 27.5.0, SVG Export Plug-In . SVG Version: 6.00 Build 0)  -->
<svg version="1.1" xmlns="http://www.w3.org/2000/svg" xmlns:xlink="http://www.w3.org/1999/xlink" x="0px" y="0px"
	 viewBox="0 0 500 500" style="enable-background:new 0 0 500 500;" xml:space="preserve">
<g id="BACKGROUND">
	<rect style="fill:#F5FDFF;" width="500" height="500"/>
</g>
<g id="OBJECTS">
	<path style="fill:#FFFFFF;" d="M331.272,100.925c-88.034-43.849-203.714-0.865-242.066,76.133
		c-38.351,76.998,1.925,174.963,89.959,218.811c88.035,43.849,190.49,16.976,228.842-60.022S419.306,144.773,331.272,100.925z"/>
	<g>
		<g>
			<path style="fill:#127681;" d="M357.502,358.282c-1.836-9.05-1.729-18.429-0.327-27.556c0.913-5.948,2.397-11.88,5.237-17.185
				c2.84-5.305,7.135-9.972,12.612-12.467c5.476-2.495,12.183-2.587,17.353,0.491c4.147,2.469,7.008,6.733,8.555,11.305
				c1.546,4.572,1.888,9.462,1.894,14.288c0.015,11.723-1.888,23.447-5.609,34.563c-2.112,6.307-4.946,12.62-9.889,17.07
				c-4.408,3.969-10.595,6.018-16.425,4.519c-5.191-1.334-8.307-9.67-10.153-14.213
				C359.329,365.605,358.251,361.975,357.502,358.282z"/>
			<path style="fill:#0F6069;" d="M393.506,342.495c3.529-5.415,7.795-10.467,13.196-14.017s12.045-5.492,18.417-4.407
				c3.372,0.574,6.633,2.007,9.15,4.322c3.234,2.974,5.066,7.214,5.972,11.514c1.988,9.437-0.273,19.686-6.047,27.41
				c-5.978,7.997-15.104,12.945-24.085,17.308c-5.081,2.468-10.358,4.882-16.009,5.641c-4.109,0.552-10.313,0.482-12.769-3.619
				c-1.798-3.002-0.503-8.025-0.065-11.226c0.759-5.54,2.099-11,3.984-16.264C387.345,353.309,390.113,347.7,393.506,342.495z"/>
			<path style="fill:#0F6069;" d="M354.852,341.951c-1.844-4.195-4.087-8.313-7.402-11.476c-3.315-3.164-7.852-5.286-12.414-4.854
				c-4.941,0.468-9.305,3.936-11.579,8.347c-2.275,4.411-2.64,9.627-1.802,14.519s2.809,9.516,5.017,13.961
				c3.328,6.7,7.314,13.212,12.867,18.227c3.321,2.999,7.232,5.413,11.495,6.81c2.689,0.882,8.204,2.735,9.936-0.581
				c1.859-3.559,1.044-10.13,0.908-14.03c-0.174-4.993-0.791-9.971-1.84-14.856C358.854,352.504,357.12,347.111,354.852,341.951z"/>
			<path style="fill:#0C4D54;" d="M368.377,420.073c-1.102-7.526-2.579-14.996-4.42-22.376c-1.842-7.38-4.048-14.669-6.607-21.832
				c-2.544-7.119-5.436-14.115-8.662-20.952c-3.245-6.878-6.833-13.595-10.752-20.114c-0.492-0.819-0.99-1.634-1.492-2.447
				c-0.505-0.817-1.798-0.067-1.291,0.754c3.96,6.408,7.603,13.01,10.909,19.778c3.326,6.81,6.31,13.784,8.942,20.891
				c2.616,7.064,4.886,14.256,6.801,21.541c1.914,7.285,3.473,14.664,4.664,22.101c1.193,7.444,2.009,14.948,2.449,22.474
				c0.056,0.954,0.105,1.908,0.149,2.862c0.044,0.958,1.539,0.963,1.495,0C370.21,435.164,369.478,427.593,368.377,420.073z"/>
			<path style="fill:#0C4D54;" d="M421.9,331.938c-6.007,5.438-11.587,11.339-16.689,17.634c-5.1,6.292-9.734,12.959-13.849,19.935
				c-4.134,7.008-7.74,14.322-10.803,21.86c-3.051,7.505-5.547,15.237-7.45,23.112c-1.902,7.873-3.21,15.893-3.893,23.964
				c-0.085,0.997-0.159,1.995-0.224,2.993c-0.063,0.96,1.432,0.957,1.495,0c0.528-8.02,1.68-15.989,3.431-23.833
				c1.75-7.842,4.09-15.552,6.979-23.049c2.879-7.471,6.315-14.726,10.256-21.694c3.956-6.995,8.421-13.71,13.372-20.041
				c4.949-6.328,10.373-12.286,16.226-17.789c0.729-0.685,1.465-1.363,2.207-2.035C423.672,332.348,422.612,331.294,421.9,331.938z"
				/>
			<path style="fill:#0C4D54;" d="M381.668,308.81c-1.976,8.507-3.728,17.065-5.249,25.665c-1.517,8.581-2.804,17.202-3.866,25.851
				c-1.064,8.668-1.898,17.364-2.5,26.077c-0.602,8.712-0.971,17.441-1.108,26.173c-0.137,8.732-0.04,17.468,0.291,26.194
				c0.041,1.075,0.085,2.149,0.133,3.224c0.042,0.958,1.537,0.963,1.495,0c-0.384-8.682-0.541-17.373-0.464-26.063
				c0.077-8.69,0.384-17.377,0.921-26.051c0.537-8.673,1.304-17.333,2.3-25.966c1.003-8.695,2.241-17.362,3.711-25.99
				c1.459-8.567,3.145-17.095,5.058-25.572c0.237-1.049,0.477-2.097,0.721-3.145C383.327,308.272,381.886,307.872,381.668,308.81z"
				/>
		</g>
		<g>
			<g>
				<path style="fill:#0F6069;" d="M122.549,419.856c1.48-3.082,2.547-6.583,1.724-9.902c-0.823-3.319-4.111-6.199-7.464-5.528
					c-2.2,0.441-3.863,2.195-5.829,3.276c-1.965,1.081-4.973,1.166-5.929-0.863c-0.593-1.259-0.071-2.799,0.826-3.863
					c0.896-1.065,2.114-1.797,3.197-2.672c3.348-2.707,5.408-6.942,5.471-11.247c0.045-3.083-1.55-6.732-4.621-7.008
					c-2.463-0.221-4.468,1.815-6.209,3.571c-1.742,1.756-4.173,3.513-6.482,2.628c-2.059-0.79-2.864-3.448-2.308-5.582
					c0.556-2.134,2.103-3.848,3.617-5.452c1.514-1.604,3.095-3.27,3.749-5.376c0.715-2.303,0.151-4.959-1.439-6.772
					c-1.59-1.813-4.15-2.719-6.526-2.31c-4.923,0.847-7.798,6.509-12.649,7.7c-2.831,0.695-5.784-0.279-8.488-1.369
					c-2.704-1.09-5.478-2.332-8.39-2.187c-2.911,0.146-5.975,2.231-6.064,5.145c-0.087,2.83,2.561,5.02,5.232,5.961
					c2.671,0.941,5.604,1.13,8.124,2.421c2.52,1.291,4.551,4.336,3.36,6.905c-1.005,2.168-3.729,2.893-6.118,2.965
					c-2.389,0.072-4.92-0.224-7.046,0.869c-2.636,1.355-3.895,4.703-3.254,7.596s2.907,5.256,5.592,6.51
					c2.685,1.254,5.745,1.507,8.698,1.269c2.073-0.167,4.185-0.563,6.209-0.084c2.024,0.479,3.966,2.174,3.869,4.252
					c-0.116,2.48-2.871,3.931-5.312,4.381c-2.442,0.451-5.17,0.512-6.997,2.194c-2.524,2.325-1.828,6.797,0.673,9.147
					c2.501,2.35,6.154,2.999,9.586,3.031c3.432,0.032,6.893-0.441,10.279,0.115c7.216,1.184,13.15,6.624,14.059,13.88l13.928,0.022
					c-2.414-4.325-2.963-9.65-1.482-14.377C119.159,425.839,121.069,422.939,122.549,419.856z"/>
				<path style="fill:#0C4D54;" d="M112.035,440.037c-2.277-8.988-6.058-17.496-10.267-25.729
					c-4.257-8.327-8.955-16.421-13.108-24.802c-2.341-4.724-4.501-9.54-6.292-14.502c-0.217-0.601-1.184-0.342-0.964,0.266
					c3.164,8.764,7.456,17.053,11.869,25.24c4.423,8.206,8.989,16.359,12.674,24.934c2.07,4.818,3.835,9.772,5.124,14.858
					C111.229,440.927,112.193,440.663,112.035,440.037z"/>
				<path style="fill:#0C4D54;" d="M104.914,422.411c-7.583,0.813-15.261,0.472-22.738-1.035c-0.628-0.127-0.897,0.837-0.266,0.964
					c7.564,1.524,15.33,1.894,23.003,1.071C105.547,423.343,105.554,422.342,104.914,422.411z"/>
				<path style="fill:#0C4D54;" d="M117.619,409.491c-3.682,4.225-8.504,7.346-13.875,8.952c-0.615,0.184-0.353,1.149,0.266,0.964
					c5.527-1.652,10.526-4.858,14.316-9.209C118.747,409.714,118.043,409.004,117.619,409.491z"/>
				<path style="fill:#0C4D54;" d="M92.774,398.88c-7.053,0.644-14.17,0.507-21.19-0.438c-0.629-0.085-0.902,0.879-0.266,0.964
					c7.114,0.958,14.307,1.127,21.456,0.474C93.409,399.822,93.415,398.821,92.774,398.88z"/>
				<path style="fill:#0C4D54;" d="M106.632,389.386c-3.132,4.845-7.328,8.943-12.242,11.965c-0.547,0.337-0.046,1.202,0.505,0.863
					c5.061-3.113,9.374-7.335,12.6-12.324C107.846,389.349,106.98,388.847,106.632,389.386z"/>
				<path style="fill:#0C4D54;" d="M81.599,374.468c-5.157-0.179-10.26-1.037-15.194-2.546c-0.617-0.189-0.881,0.776-0.266,0.964
					c5.016,1.534,10.218,2.4,15.46,2.582C82.243,375.491,82.242,374.491,81.599,374.468z"/>
				<path style="fill:#0C4D54;" d="M94.605,366.092c-3.29,4.426-7.309,8.291-11.855,11.413c-0.527,0.362-0.028,1.229,0.505,0.864
					c4.696-3.225,8.815-7.2,12.213-11.772C95.852,366.08,94.985,365.581,94.605,366.092z"/>
			</g>
			<g>
				<path style="fill:#127681;" d="M129.038,386.192c2.345-2.664,6.523-3.772,9.638-2.07c2.223,1.215,3.571,3.529,5.259,5.418
					c1.688,1.889,4.287,3.488,6.652,2.58c2.757-1.059,3.32-4.972,1.963-7.595c-1.357-2.623-3.949-4.325-6.257-6.167
					c-3.334-2.662-6.324-5.939-7.824-9.933c-1.501-3.994-1.302-8.791,1.259-12.203c2.562-3.412,7.709-4.893,11.364-2.692
					c1.492,0.899,2.627,2.286,4.045,3.298c1.418,1.012,3.384,1.613,4.881,0.722c1.886-1.122,1.901-4.009,0.698-5.844
					c-1.203-1.835-3.21-2.943-5.001-4.212c-1.791-1.269-3.54-2.98-3.732-5.166c-0.287-3.26,3.234-5.833,6.507-5.784
					c3.273,0.049,6.212,1.908,8.91,3.761c2.699,1.852,5.518,3.826,8.775,4.156c3.161,0.321,6.245-0.96,9.137-2.277
					s5.885-2.725,9.062-2.679c3.177,0.046,6.582,2.062,7.039,5.206c0.409,2.811-1.672,5.492-4.202,6.785
					c-2.529,1.293-5.442,1.538-8.256,1.927c-2.814,0.389-5.745,1.009-7.902,2.858c-2.157,1.849-3.194,5.289-1.552,7.607
					c1.194,1.685,3.396,2.321,5.454,2.5c2.058,0.179,4.172,0.022,6.15,0.618c4.824,1.454,7.335,7.897,4.767,12.232
					c-1.682,2.839-4.89,4.43-8.084,5.258s-6.527,1.05-9.696,1.966c-3.17,0.916-6.312,2.705-7.754,5.673
					c-1.441,2.968-0.459,7.207,2.61,8.418c2.396,0.945,5.061-0.13,7.632-0.288c4.109-0.253,8.262,2.124,10.125,5.794
					c1.863,3.671,1.33,8.426-1.299,11.594c-2.953,3.557-7.848,4.801-12.45,5.239c-4.602,0.438-9.355,0.296-13.686,1.914
					c-7.35,2.745-12.291,10.857-11.357,18.647H138.66c5.142-7.335,7.135-18.98,2.439-26.607c-2.584-4.196-6.426-7.446-9.538-11.267
					c-2.241-2.752-4.137-5.889-4.829-9.371C126.04,392.725,126.693,388.856,129.038,386.192z"/>
				<path style="fill:#0C4D54;" d="M173.856,348.379c-3.05,12.094-6.408,24.109-10.077,36.029
					c-3.669,11.92-7.645,23.746-11.924,35.461c-2.411,6.6-4.919,13.164-7.52,19.692c-0.261,0.656,0.799,0.94,1.058,0.292
					c4.617-11.587,8.937-23.29,12.951-35.099c4.014-11.809,7.723-23.721,11.122-35.721c1.915-6.761,3.73-13.549,5.448-20.363
					C175.086,347.986,174.029,347.694,173.856,348.379z"/>
				<path style="fill:#0C4D54;" d="M155.24,412.764c-4.927-6.549-9.854-13.099-14.782-19.648c-0.419-0.557-1.372-0.011-0.947,0.554
					c4.927,6.549,9.855,13.099,14.782,19.648C154.712,413.875,155.665,413.329,155.24,412.764z"/>
				<path style="fill:#0C4D54;" d="M180.615,409.01c-8.553,3.821-17.754,6.137-27.095,6.832c-0.7,0.052-0.705,1.149,0,1.097
					c9.548-0.71,18.908-3.077,27.649-6.982C181.812,409.67,181.255,408.724,180.615,409.01z"/>
				<path style="fill:#0C4D54;" d="M165.685,378.712c-6.113-3.603-10.983-9.188-13.676-15.758c-0.264-0.644-1.326-0.362-1.058,0.292
					c2.806,6.844,7.803,12.655,14.18,16.414C165.741,380.018,166.293,379.07,165.685,378.712z"/>
				<path style="fill:#0C4D54;" d="M186.761,373.75c-6.205,4.834-13.785,7.829-21.615,8.556c-0.697,0.065-0.704,1.162,0,1.097
					c8.149-0.756,15.936-3.848,22.391-8.877C188.092,374.092,187.311,373.321,186.761,373.75z"/>
				<path style="fill:#0C4D54;" d="M174.594,347.76c-4.567-1.034-8.862-2.976-12.661-5.714c-0.573-0.414-1.122,0.538-0.554,0.947
					c3.867,2.788,8.274,4.772,12.923,5.825C174.989,348.973,175.283,347.916,174.594,347.76z"/>
				<path style="fill:#0C4D54;" d="M192.404,343.563c-5.618,3.457-11.958,5.661-18.516,6.396c-0.694,0.078-0.701,1.175,0,1.097
					c6.755-0.757,13.278-2.982,19.069-6.546C193.557,344.141,193.007,343.192,192.404,343.563z"/>
			</g>
		</g>
	</g>
	<g>
		<path style="opacity:0.6;fill:#B1DEF2;" d="M135.129,132.759H32.821c-2.026,0-3.669-1.643-3.669-3.668v-46.28
			c0-2.026,1.642-3.669,3.669-3.669h102.308c2.026,0,3.668,1.642,3.668,3.669v46.28
			C138.798,131.117,137.155,132.759,135.129,132.759z"/>
		<g>
			<path style="fill:#F4F6FF;" d="M127.493,93.465H40.458c-1.014,0-1.836-0.822-1.836-1.836l0,0c0-1.014,0.822-1.836,1.836-1.836
				h87.036c1.014,0,1.836,0.822,1.836,1.836l0,0C129.329,92.642,128.507,93.465,127.493,93.465z"/>
			<path style="fill:#F4F6FF;" d="M127.493,103.013H40.458c-1.014,0-1.836-0.822-1.836-1.836l0,0c0-1.014,0.822-1.836,1.836-1.836
				h87.036c1.014,0,1.836,0.822,1.836,1.836l0,0C129.329,102.191,128.507,103.013,127.493,103.013z"/>
			<path style="fill:#F4F6FF;" d="M127.493,112.561H40.458c-1.014,0-1.836-0.822-1.836-1.836l0,0c0-1.014,0.822-1.836,1.836-1.836
				h87.036c1.014,0,1.836,0.822,1.836,1.836l0,0C129.329,111.739,128.507,112.561,127.493,112.561z"/>
			<path style="fill:#F4F6FF;" d="M127.493,122.109H40.458c-1.014,0-1.836-0.822-1.836-1.836l0,0c0-1.014,0.822-1.836,1.836-1.836
				h87.036c1.014,0,1.836,0.822,1.836,1.836l0,0C129.329,121.287,128.507,122.109,127.493,122.109z"/>
		</g>
	</g>
	<g>
		<path style="opacity:0.6;fill:#B1DEF2;" d="M297.47,143.513H160.177c-1.412,0-2.557-1.145-2.557-2.557V55.979
			c0-1.412,1.145-2.557,2.557-2.557H297.47c1.412,0,2.557,1.145,2.557,2.557v84.978C300.027,142.368,298.882,143.513,297.47,143.513
			z"/>
		<circle style="fill:#F4F6FF;" cx="228.823" cy="99.375" r="35.143"/>
		<path style="fill:#127681;" d="M250.42,96.962l-32.719-18.89c-1.158-0.669-2.607,0.167-2.607,1.505v37.781
			c0,1.338,1.448,2.174,2.607,1.505l32.719-18.89C251.579,99.303,251.579,97.631,250.42,96.962z"/>
		<circle style="fill:#F4F6FF;" cx="166.712" cy="60.735" r="2.317"/>
		<path style="fill:#F4F6FF;" d="M193.987,61.479h-20.806c-0.41,0-0.743-0.333-0.743-0.743l0,0c0-0.41,0.333-0.743,0.743-0.743
			h20.806c0.41,0,0.743,0.333,0.743,0.743l0,0C194.73,61.146,194.397,61.479,193.987,61.479z"/>
		<circle style="fill:#F4F6FF;" cx="166.712" cy="70.898" r="2.317"/>
		<path style="fill:#F4F6FF;" d="M193.987,71.641h-20.806c-0.41,0-0.743-0.333-0.743-0.743l0,0c0-0.41,0.333-0.743,0.743-0.743
			h20.806c0.41,0,0.743,0.333,0.743,0.743l0,0C194.73,71.308,194.397,71.641,193.987,71.641z"/>
		<rect x="270.785" y="119.831" style="fill:#F4F6FF;" width="20.456" height="15.211"/>
	</g>
	<g>
		<g>
			<g>
				<g>
					<g>
						<path style="fill:#127681;" d="M327.845,440.431l0.048,0.319c0.048,0.473,0.106,0.927,0.193,1.42
							c0.097,0.406,0.174,0.85,0.261,1.304h48.727c0,0,0.077-0.502,0.077-1.294c-0.019-0.406-0.048-0.879-0.135-1.43
							c-0.019-0.097-0.029-0.212-0.068-0.319c-0.531-2.743-2.531-6.529-9.185-7.746c-0.319-0.077-0.657-0.116-1.024-0.164h-0.029
							c-0.522-0.077-1.043-0.126-1.603-0.174c-0.184-0.01-0.367-0.029-0.551-0.039c-13.329-1.043-19.23-5.515-19.23-5.515
							s-7.727,1.545-14.971,0c0,0-0.85,1.41-1.603,3.863c-0.116,0.415-0.241,0.86-0.357,1.333c-0.029,0.087-0.048,0.184-0.077,0.29
							c-0.048,0.184-0.087,0.396-0.125,0.608c-0.01,0.058-0.029,0.135-0.029,0.193c0,0.048-0.029,0.068-0.029,0.106
							c-0.193,1.005-0.338,2.105-0.396,3.294C327.681,437.717,327.69,439.04,327.845,440.431z"/>
						<path style="fill:#0A5B63;" d="M327.845,440.431l0.048,0.319c0.048,0.473,0.106,0.927,0.193,1.42
							c0.097,0.406,0.174,0.85,0.261,1.304h12.295c0.299-3.506-1.304-7.109-3.95-9.456c-2.193-1.941-5.022-3.042-7.939-3.361
							c-0.116,0.415-0.241,0.86-0.357,1.333c-0.029,0.087-0.048,0.184-0.077,0.29c-0.048,0.184-0.087,0.396-0.125,0.608
							c-0.01,0.058-0.029,0.135-0.029,0.193c0,0.048-0.029,0.068-0.029,0.106c-0.193,1.005-0.338,2.105-0.396,3.294
							C327.681,437.717,327.69,439.04,327.845,440.431z"/>
						<path style="fill:#FFFFFF;" d="M350.163,427.189c-0.166-0.152-0.384-0.266-0.616-0.255c-0.245,0.011-0.425,0.103-0.616,0.255
							c-0.134,0.106-0.269,0.211-0.403,0.316c-0.643,0.495-1.296,0.977-1.961,1.441c-0.189,0.132-0.337,0.292-0.4,0.52
							c-0.057,0.208-0.032,0.486,0.088,0.671c0.238,0.37,0.792,0.592,1.191,0.313c0.926-0.648,1.831-1.327,2.716-2.03
							c0.163-0.129,0.255-0.418,0.255-0.616C350.418,427.591,350.324,427.336,350.163,427.189z"/>
						<path style="fill:#FFFFFF;" d="M353.613,428.74c-0.326-0.299-0.914-0.369-1.232,0c-0.638,0.742-1.349,1.416-2.12,2.018
							c-0.124,0.093-0.247,0.186-0.374,0.275c-0.189,0.134-0.337,0.29-0.4,0.52c-0.057,0.209-0.031,0.486,0.088,0.671
							c0.237,0.368,0.794,0.594,1.191,0.313c1.047-0.741,2.01-1.592,2.846-2.565c0.153-0.178,0.255-0.375,0.255-0.616
							C353.868,429.142,353.773,428.887,353.613,428.74z"/>
						<path style="fill:#FFFFFF;" d="M356.784,429.865c-0.166-0.152-0.384-0.265-0.616-0.255c-0.214,0.01-0.478,0.078-0.616,0.255
							l-1.975,2.54c-0.148,0.191-0.255,0.363-0.255,0.616c0,0.214,0.095,0.469,0.255,0.616c0.166,0.152,0.384,0.266,0.616,0.255
							c0.214-0.01,0.478-0.078,0.616-0.255l1.975-2.54c0.148-0.191,0.255-0.363,0.255-0.616
							C357.039,430.268,356.944,430.013,356.784,429.865z"/>
						<path style="fill:#FFFFFF;" d="M360.3,430.686c-0.417-0.221-0.946-0.108-1.191,0.312c-0.44,0.753-0.88,1.506-1.321,2.259
							c-0.23,0.393-0.103,0.972,0.312,1.191c0.417,0.221,0.946,0.108,1.192-0.312c0.44-0.753,0.88-1.506,1.32-2.259
							C360.843,431.484,360.716,430.906,360.3,430.686z"/>
						<path style="fill:#FFFFFF;" d="M327.887,440.756c0.056,0.46,0.112,0.928,0.206,1.407c0.084,0.422,0.159,0.863,0.263,1.313
							h48.715c0,0,0.085-0.497,0.085-1.294c-0.019-0.413-0.047-0.891-0.141-1.426H327.887z"/>
					</g>
					<g>
						<path style="fill:#127681;" d="M287.169,440.431l-0.048,0.319c-0.048,0.473-0.106,0.927-0.193,1.42
							c-0.097,0.406-0.174,0.85-0.261,1.304H237.94c0,0-0.077-0.502-0.077-1.294c0.019-0.406,0.048-0.879,0.135-1.43
							c0.019-0.097,0.029-0.212,0.068-0.319c0.531-2.743,2.53-6.529,9.185-7.746c0.319-0.077,0.657-0.116,1.024-0.164h0.029
							c0.521-0.077,1.043-0.126,1.603-0.174c0.184-0.01,0.367-0.029,0.551-0.039c13.329-1.043,19.23-5.515,19.23-5.515
							s7.727,1.545,14.971,0c0,0,0.85,1.41,1.603,3.863c0.116,0.415,0.241,0.86,0.357,1.333c0.029,0.087,0.048,0.184,0.077,0.29
							c0.048,0.184,0.087,0.396,0.126,0.608c0.01,0.058,0.029,0.135,0.029,0.193c0,0.048,0.029,0.068,0.029,0.106
							c0.193,1.005,0.338,2.105,0.396,3.294C287.333,437.717,287.323,439.04,287.169,440.431z"/>
						<path style="fill:#0A5B63;" d="M287.169,440.431l-0.048,0.319c-0.048,0.473-0.106,0.927-0.193,1.42
							c-0.097,0.406-0.174,0.85-0.261,1.304h-12.295c-0.299-3.506,1.304-7.109,3.95-9.456c2.192-1.941,5.022-3.042,7.939-3.361
							c0.116,0.415,0.241,0.86,0.357,1.333c0.029,0.087,0.048,0.184,0.077,0.29c0.048,0.184,0.087,0.396,0.126,0.608
							c0.01,0.058,0.029,0.135,0.029,0.193c0,0.048,0.029,0.068,0.029,0.106c0.193,1.005,0.338,2.105,0.396,3.294
							C287.333,437.717,287.323,439.04,287.169,440.431z"/>
						<path style="fill:#FFFFFF;" d="M264.85,427.189c0.166-0.152,0.384-0.266,0.616-0.255c0.245,0.011,0.425,0.103,0.616,0.255
							c0.134,0.106,0.268,0.211,0.403,0.316c0.643,0.495,1.296,0.977,1.961,1.441c0.189,0.132,0.337,0.292,0.4,0.52
							c0.057,0.208,0.032,0.486-0.088,0.671c-0.238,0.37-0.792,0.592-1.191,0.313c-0.927-0.648-1.831-1.327-2.717-2.03
							c-0.163-0.129-0.255-0.418-0.255-0.616C264.595,427.591,264.69,427.336,264.85,427.189z"/>
						<path style="fill:#FFFFFF;" d="M261.401,428.74c0.326-0.299,0.914-0.369,1.232,0c0.638,0.742,1.349,1.416,2.12,2.018
							c0.124,0.093,0.247,0.186,0.374,0.275c0.189,0.134,0.337,0.29,0.4,0.52c0.057,0.209,0.032,0.486-0.088,0.671
							c-0.237,0.368-0.794,0.594-1.191,0.313c-1.047-0.741-2.01-1.592-2.846-2.565c-0.153-0.178-0.255-0.375-0.255-0.616
							C261.146,429.142,261.241,428.887,261.401,428.74z"/>
						<path style="fill:#FFFFFF;" d="M258.23,429.865c0.166-0.152,0.384-0.265,0.616-0.255c0.214,0.01,0.478,0.078,0.616,0.255
							l1.975,2.54c0.148,0.191,0.255,0.363,0.255,0.616c0,0.214-0.095,0.469-0.255,0.616c-0.166,0.152-0.384,0.266-0.616,0.255
							c-0.214-0.01-0.478-0.078-0.616-0.255l-1.975-2.54c-0.148-0.191-0.255-0.363-0.255-0.616
							C257.975,430.268,258.07,430.013,258.23,429.865z"/>
						<path style="fill:#FFFFFF;" d="M254.713,430.686c0.417-0.221,0.946-0.108,1.192,0.312c0.44,0.753,0.88,1.506,1.32,2.259
							c0.23,0.393,0.104,0.972-0.312,1.191c-0.417,0.221-0.946,0.108-1.192-0.312c-0.44-0.753-0.88-1.506-1.32-2.259
							C254.171,431.484,254.297,430.906,254.713,430.686z"/>
						<path style="fill:#FFFFFF;" d="M287.127,440.756c-0.056,0.46-0.113,0.928-0.206,1.407c-0.084,0.422-0.159,0.863-0.263,1.313
							h-48.716c0,0-0.084-0.497-0.084-1.294c0.019-0.413,0.047-0.891,0.141-1.426H287.127z"/>
					</g>
					<path style="fill:#FFA785;" d="M269.789,426.789c0,0,5.013-131.707,9.49-188.181h36.559c0,0-14.181,85.703-31.083,188.181
						C284.756,426.789,278.411,428.265,269.789,426.789z"/>
				</g>
				<path style="fill:#FFA785;" d="M315.839,238.608c7.61,48.452,14.517,188.185,14.517,188.185s8.692,2.286,14.971,0
					c0,0,16.083-123.901,10.341-188.185H315.839z"/>
			</g>
			<g>
				<path style="fill:#0A2238;" d="M268.994,414.993c-0.165,2.568-0.331,5.135-0.496,7.703c5.801,2.061,12.229,2.059,18.318,1.149
					c0.318-2.863,0.57-5.811,0.888-8.674c-4.196-0.672-8.453-1.045-12.697-1.243C273.047,413.838,270.879,414.45,268.994,414.993z"
					/>
				<path style="fill:#0A2238;" d="M328.988,416.58c-0.062,2.572-0.124,5.145-0.185,7.717c5.879,1.826,12.302,1.565,18.349,0.41
					c0.202-2.874,0.335-5.829,0.538-8.703c-4.219-0.503-8.488-0.704-12.737-0.73C332.991,415.262,330.849,415.961,328.988,416.58z"
					/>
				<path style="fill:#10375C;" d="M276.736,241.044c0,0-15.378,168.825-8.651,175.416c3.373,3.305,18.02,3.073,20.674,0.698
					c2.654-2.375,26.588-158.409,26.588-158.409s7.583,155.336,12.359,158.223c4.776,2.887,17.743,2.701,20.573,0.466
					c2.829-2.235,14.091-131.082,7.389-178.83L276.736,241.044z"/>
				<path style="fill:#0A2238;" d="M285.549,244.995c-3.519,22.772-6.332,45.652-8.422,68.6c-2.085,22.902-3.454,45.87-4.102,68.858
					c-0.367,13.004-0.501,26.013-0.408,39.021c0.005,0.643,1.005,0.645,1,0c-0.164-22.997,0.386-45.998,1.66-68.96
					c1.273-22.962,3.265-45.884,5.973-68.721c1.526-12.874,3.283-25.72,5.263-38.532
					C286.611,244.632,285.647,244.36,285.549,244.995z"/>
				<path style="fill:#0A2238;" d="M352.45,315.895c-0.118-11.768-0.554-23.532-1.309-35.276
					c-0.759-11.802-1.841-23.584-3.245-35.327c-0.175-1.461-0.355-2.921-0.539-4.38c-0.08-0.63-1.081-0.638-1,0
					c2.947,23.352,4.63,46.86,5.031,70.394c0.401,23.533-0.473,47.087-2.62,70.525c-1.209,13.198-2.825,26.358-4.841,39.457
					c-0.097,0.63,0.867,0.901,0.964,0.266c1.788-11.617,3.266-23.282,4.424-34.979c1.16-11.711,2.001-23.453,2.524-35.209
					C352.365,339.551,352.569,327.721,352.45,315.895z"/>
			</g>
		</g>
		<g>
			<g>
				<path style="fill:#FFA785;" d="M410.072,115.712c-0.946-1.915,0.55-4.243,0.051-6.424c-0.499-2.181-3.43-6.258-1.462-7.737
					c2.198-1.652,6.123,4.796,6.123,4.796s8.312-12.619,10.686-11.594c2.049,0.884-3.341,10.582-3.341,10.582
					s4.645,1.572,4.435,6.461c-0.194,4.537-5.644,7.833-5.644,7.833L410.072,115.712z"/>
				<path style="fill:#F3C623;" d="M352.255,127.041c14.096,6.239,34.901,32.054,35.87,32.063
					c0.969,0.009,17.135-41.984,19.863-43.211c3.512-1.58,12.516,0.858,14.524,4.144c1.622,2.654-16.904,61.81-29.276,64.712
					c-15.589,3.656-40.085-22.104-40.085-22.104L352.255,127.041z"/>
			</g>
			<g>
				<g>
					<g>
						<g>
							<g>
								<g>
									<g>
										<g>
											<g>
												<path style="fill:#F3C623;" d="M273.719,245.246c1.258,2.982,46.936,14.435,85.118,3.725
													c1.339-0.376-6.579-121.881-6.579-121.881l-14.449-5.719l-14.603-0.923l-15.475,3.067
													C307.731,123.516,271.691,240.437,273.719,245.246z"/>
											</g>
										</g>
									</g>
								</g>
							</g>
						</g>
					</g>
				</g>
			</g>
			
				<ellipse transform="matrix(0.054 -0.9985 0.9985 0.054 140.7045 487.6438)" style="fill:#F3AE23;" cx="327.711" cy="169.564" rx="19.985" ry="16.335"/>
			<path style="fill:#FFA785;" d="M244.118,117.363c0.499-2.32-0.785-4.206-0.408-6.411c0.377-2.206,3.076-6.439,1.03-7.806
				c-2.286-1.527-5.847,5.129-5.847,5.129s-9-12.137-11.314-10.983c-1.997,0.997,3.924,10.38,3.924,10.38s-4.55,1.827-4.069,6.697
				c0.446,4.519,6.071,7.507,6.071,7.507L244.118,117.363z"/>
			<path style="fill:#F3C623;" d="M307.731,123.516c-23.116,5.596-41.276,37.45-42.021,37.45c-0.745,0-18.222-43.611-20.211-44.049
				c-2.817-0.621-12.199,1.601-13.454,4.959c-1.115,2.983,13.454,62.419,29.056,64.235c15.181,1.767,36.599-25.703,36.599-25.703
				L307.731,123.516z"/>
			<g>
				<path style="fill:#F3AE23;" d="M309.114,149.719c-4.494,3.066-8.594,6.679-12.188,10.764c-0.424,0.481,0.281,1.191,0.707,0.707
					c3.538-4.02,7.562-7.589,11.986-10.608C310.147,150.222,309.647,149.355,309.114,149.719z"/>
				<path style="fill:#F3AE23;" d="M311.266,154.004c-2.383-0.113-4.766-0.226-7.149-0.34c-0.643-0.03-0.642,0.97,0,1
					c2.383,0.113,4.766,0.227,7.149,0.34C311.91,155.034,311.908,154.034,311.266,154.004z"/>
				<path style="fill:#F3AE23;" d="M353.638,139.677c-0.031-0.641-1.031-0.644-1,0c0.349,7.296,0.698,14.592,1.046,21.887
					c0.031,0.641,1.031,0.644,1,0C354.336,154.268,353.987,146.973,353.638,139.677z"/>
			</g>
		</g>
		<g>
			<g>
				<path d="M315.363,93.949c-4.226-5.23-6.37-12.172-5.852-18.947c0.086-1.121,0.263-2.294,0.933-3.187
					c0.886-1.183,2.61-1.613,3.925-0.979c0.379-1.954,1.693-3.877,3.049-5.31c1.355-1.434,2.988-2.56,4.665-3.576
					c3.422-2.074,7.115-3.745,11.016-4.524c3.901-0.779,8.028-0.633,11.736,0.815c3.708,1.449,6.961,4.265,8.621,7.952
					c1.661,3.687,1.591,8.234-0.506,11.691c1.382,4.189,1.373,9.115-0.051,13.297C340.893,94.764,327.656,96.224,315.363,93.949z"/>
				<path style="fill:#FFA785;" d="M317.438,98.952c0,0,5.768,10.945,6.453,25.774c3.339,6.612,12.381,5.271,14.397-0.844
					c-0.328-5.637,0.563-8.319,2.289-10.326c0.141-0.169,0.281-0.319,0.431-0.478c0.103-0.113,0.206-0.216,0.319-0.319
					c0.206-0.206,0.441-0.394,0.666-0.6c1.557-1.341,3.517-2.607,5.74-4.736c2.607-2.476,4.493-5.825,5.084-11.011
					c0.009-0.075,0.019-0.15,0.028-0.225c0.009-0.131,0.019-0.253,0.028-0.384c0.009-0.056,0.009-0.113,0.019-0.169
					c0.413-4.962-0.272-11.546-2.523-20.587c-2.335-9.379-25.446-12.099-31.261,0.216C316.716,80.344,317.438,98.952,317.438,98.952
					z"/>
				<path d="M350.809,74.471c-0.948,0.997-2.288,1.513-3.604,1.915c-6.917,2.115-14.531,1.876-21.302-0.668
					c0.836,0.736,1.038,2.093,0.453,3.041c-0.585,0.948-1.89,1.375-2.922,0.957c0.527,0.239,0.849,0.862,0.739,1.43
					c-0.111,0.568-0.643,1.025-1.221,1.049c-0.582,4.228-2.992,8.173-6.488,10.62c-1.266-3.86-1.807-8.185-1.207-12.203
					c0.6-4.018,2.459-7.913,5.523-10.58c3.278-2.853,7.689-4.127,12.026-4.398c3.511-0.22,7.11,0.18,10.336,1.584
					C346.369,68.621,349.354,71.268,350.809,74.471z"/>
				<g>
					<g>
						<path d="M334.146,92.795c0.048,0.81,0.743,1.427,1.552,1.379c0.81-0.048,1.427-0.743,1.379-1.552
							c-0.048-0.81-0.743-1.427-1.552-1.379C334.716,91.291,334.098,91.986,334.146,92.795z"/>
						<path style="fill:#FFFFFF;" d="M335.588,92.308c0.017,0.297,0.272,0.523,0.568,0.505c0.296-0.018,0.523-0.272,0.505-0.568
							c-0.017-0.297-0.272-0.523-0.568-0.505C335.797,91.757,335.571,92.012,335.588,92.308z"/>
					</g>
					<g>
						<path d="M345.483,92.127c0.048,0.81,0.743,1.427,1.552,1.38c0.809-0.048,1.427-0.743,1.379-1.552
							c-0.048-0.81-0.743-1.427-1.552-1.379C346.053,90.623,345.436,91.318,345.483,92.127z"/>
						<path style="fill:#FFFFFF;" d="M346.926,91.64c0.017,0.297,0.272,0.523,0.568,0.505c0.296-0.017,0.523-0.272,0.505-0.568
							c-0.017-0.297-0.272-0.523-0.568-0.505C347.134,91.089,346.908,91.343,346.926,91.64z"/>
					</g>
					<g>
						<path style="fill:#8E4136;" d="M338.533,99.257c0.398-0.735,1.651-0.096,3.086-0.096c1.435,0,2.688-0.639,3.086,0.096
							c0.503,0.93-0.735,3.243-3.086,3.243C339.268,102.5,338.03,100.187,338.533,99.257z"/>
						<path style="fill:#C16B5B;" d="M338.733,100.795c0.449-0.057,0.928-0.093,1.435-0.093c1.67,0,3.1,0.343,3.767,0.835
							c-0.548,0.545-1.326,0.963-2.316,0.963C340.206,102.5,339.206,101.663,338.733,100.795z"/>
						<path style="fill:#FFFFFF;" d="M341.619,99.967c-1.281,0-2.369-0.304-2.767-0.995c0.567-0.228,1.608,0.189,2.767,0.189
							s2.2-0.417,2.767-0.189C343.988,99.663,342.9,99.967,341.619,99.967z"/>
					</g>
					<path style="fill:#CC7656;" d="M343.896,96.21c0.083-0.005,0.156-0.064,0.176-0.149c0.289-1.271-0.161-1.671-0.589-1.782
						c-0.434-0.111-0.939,0.029-1.499,0.421c-0.086,0.061-0.107,0.18-0.046,0.268c0.062,0.086,0.182,0.106,0.268,0.047
						c0.462-0.324,0.86-0.448,1.181-0.364c0.384,0.099,0.489,0.545,0.312,1.326c-0.023,0.103,0.041,0.205,0.145,0.229
						C343.86,96.21,343.879,96.211,343.896,96.21z"/>
				</g>
				<path d="M349.196,86.086c-1.828-0.82-3.966-0.753-5.69,0.308c-0.422,0.26-0.622,0.859-0.34,1.297
					c0.273,0.423,0.845,0.618,1.297,0.34c0.173-0.107,0.352-0.198,0.534-0.289c0.018-0.008,0.015-0.007,0.026-0.012
					c0.033-0.013,0.065-0.026,0.098-0.038c0.071-0.026,0.143-0.051,0.215-0.074c0.193-0.062,0.39-0.112,0.589-0.15
					c0.05-0.01,0.37-0.089,0.124-0.024c0.082-0.021,0.18-0.018,0.265-0.024c0.19-0.012,0.38-0.014,0.57-0.006
					c0.101,0.005,0.202,0.015,0.303,0.023c0.011,0.001,0.014,0.001,0.022,0.001c0.015,0.003,0.034,0.007,0.064,0.012
					c0.187,0.032,0.372,0.075,0.554,0.129c0.097,0.029,0.193,0.06,0.288,0.095c0.038,0.014,0.075,0.028,0.113,0.043
					c0.007,0.003,0.004,0.002,0.012,0.006c0.003,0.001,0.006,0.001,0.008,0.002c0.003,0.001,0.006,0.002,0.009,0.003
					c-0.004-0.002-0.002-0.001-0.006-0.003c0.45,0.197,1.031,0.139,1.286-0.343C349.754,86.968,349.679,86.302,349.196,86.086z"/>
				<path d="M338.107,86.086c-1.828-0.82-3.966-0.753-5.69,0.308c-0.422,0.26-0.622,0.859-0.34,1.297
					c0.273,0.423,0.845,0.618,1.297,0.34c0.173-0.107,0.352-0.198,0.534-0.289c0.018-0.008,0.015-0.007,0.026-0.012
					c0.033-0.013,0.066-0.026,0.099-0.038c0.071-0.026,0.143-0.051,0.215-0.074c0.193-0.062,0.39-0.112,0.589-0.15
					c0.05-0.01,0.37-0.089,0.124-0.024c0.082-0.021,0.18-0.018,0.265-0.024c0.19-0.012,0.38-0.014,0.57-0.006
					c0.101,0.005,0.202,0.015,0.303,0.023c0.011,0.001,0.015,0.001,0.022,0.001c0.015,0.003,0.034,0.007,0.064,0.012
					c0.187,0.032,0.372,0.075,0.554,0.129c0.097,0.029,0.193,0.06,0.288,0.095c0.038,0.014,0.075,0.028,0.113,0.043
					c0.007,0.003,0.004,0.002,0.012,0.006c0.003,0.001,0.006,0.001,0.008,0.002c0.003,0.001,0.006,0.002,0.009,0.003
					c-0.004-0.002-0.003-0.001-0.006-0.003c0.45,0.197,1.031,0.139,1.286-0.343C338.665,86.968,338.59,86.302,338.107,86.086z"/>
				<g>
					<g>
						<path style="fill:#127681;" d="M326.116,98.281h22.353c0.963,0,1.743-0.781,1.743-1.743V90.48
							c0-0.963-0.781-1.743-1.743-1.743h-22.353c-0.963,0-1.743,0.781-1.743,1.743v6.058
							C324.373,97.501,325.153,98.281,326.116,98.281z"/>
						<path style="fill:#2AAFBD;" d="M330.705,98.281h22.353c0.963,0,1.743-0.781,1.743-1.743V90.48
							c0-0.963-0.781-1.743-1.743-1.743h-22.353c-0.963,0-1.743,0.781-1.743,1.743v6.058
							C328.961,97.501,329.742,98.281,330.705,98.281z"/>
						<path style="fill:#127681;" d="M333.344,95.594h17.075c1.151,0,2.085-0.933,2.085-2.085l0,0c0-1.151-0.933-2.085-2.085-2.085
							h-17.075c-1.151,0-2.085,0.933-2.085,2.085l0,0C331.259,94.661,332.193,95.594,333.344,95.594z"/>
					</g>
					
						<rect x="316.373" y="91.665" transform="matrix(-1 -1.224647e-16 1.224647e-16 -1 643.32 186.2928)" style="fill:#127681;" width="10.575" height="2.962"/>
				</g>
				<g>
					<path style="fill:#FFA785;" d="M312.452,99.673c2.099,2.223,5.231,2.674,6.996,1.008c1.764-1.666,1.493-4.819-0.606-7.042
						c-2.099-2.223-5.232-2.675-6.996-1.008C310.081,94.297,310.352,97.45,312.452,99.673z"/>
					<path style="fill:#CC7656;" d="M313.194,93.7c0.808-0.49,1.921-0.535,2.976-0.118c0.526,0.207,0.914,0.475,1.189,0.817
						c0.363,0.453,0.491,1.042,0.334,1.536c-0.14,0.443-0.469,0.745-0.76,1.011c-0.21,0.193-0.409,0.375-0.515,0.585
						c-0.163,0.322-0.091,0.756,0.167,1.009c0.258,0.252,0.692,0.313,1.011,0.142c0.188-0.101,0.419-0.029,0.52,0.157
						c0.1,0.186,0.03,0.42-0.157,0.52c-0.205,0.11-0.43,0.17-0.659,0.183c-0.455,0.027-0.922-0.131-1.252-0.454
						c-0.496-0.485-0.628-1.286-0.314-1.904c0.169-0.334,0.441-0.583,0.681-0.803c0.241-0.221,0.468-0.43,0.547-0.678
						c0.079-0.249,0-0.572-0.202-0.823c-0.081-0.101-0.189-0.191-0.308-0.276c-0.381,0.019-0.851,0.164-1.076,0.441
						c-0.254,0.313-0.356,0.75-0.268,1.142c0.047,0.207-0.083,0.412-0.29,0.459c-0.021,0.005-0.042,0.008-0.063,0.009
						c-0.184,0.011-0.354-0.113-0.396-0.299c-0.142-0.625,0.015-1.296,0.42-1.795c0.151-0.185,0.345-0.316,0.551-0.425
						c-0.644-0.133-1.268-0.063-1.738,0.222c-0.581,0.352-0.985,1.197-0.638,1.845c0.1,0.187,0.029,0.42-0.157,0.52
						c-0.187,0.1-0.419,0.03-0.52-0.157C311.772,95.62,312.192,94.309,313.194,93.7z"/>
				</g>
			</g>
		</g>
	</g>
	<g>
		<g>
			<g>
				<g>
					<path style="fill:#10375C;" d="M154.061,440.415l-0.04,0.3v0.01c0,0.02,0,0.05-0.02,0.07c-0.01,0.13-0.02,0.26-0.04,0.39
						c-0.01,0.14-0.03,0.29-0.06,0.44c-0.01,0.14-0.04,0.29-0.07,0.43c-0.04,0.2-0.08,0.39-0.13,0.61c-0.03,0.2-0.06,0.42-0.12,0.63
						h-46.14c0,0-0.06-0.47-0.06-1.23c0.01-0.13,0.01-0.29,0.03-0.44c0.01-0.14,0.02-0.28,0.03-0.44c0.02-0.15,0.04-0.3,0.07-0.47
						c0.01-0.09,0.03-0.2,0.05-0.3c0.51-2.61,2.4-6.18,8.7-7.34c0.3-0.07,0.63-0.12,0.97-0.15c0.51-0.08,1.01-0.12,1.55-0.16
						c0.3-0.02,0.6-0.04,0.89-0.08c12.36-1.02,17.83-5.18,17.83-5.18s7.33,1.47,14.18,0c0,0,0.65,1.06,1.29,2.96
						c0.19,0.56,0.38,1.19,0.55,1.87c0.01,0.03,0.01,0.05,0.02,0.08c0.03,0.09,0.04,0.18,0.08,0.27c0.04,0.19,0.07,0.38,0.1,0.58
						c0.01,0.06,0.04,0.14,0.04,0.19c0,0.04,0.03,0.06,0.03,0.11c0.19,0.94,0.31,1.99,0.38,3.11
						C154.221,437.845,154.212,439.095,154.061,440.415z"/>
					<path style="fill:#FFFFFF;" d="M153.962,441.185c-0.01,0.14-0.03,0.29-0.06,0.44c-0.01,0.14-0.04,0.29-0.07,0.43
						c-0.04,0.2-0.08,0.39-0.13,0.61c-0.03,0.2-0.06,0.42-0.12,0.63h-46.14c0,0-0.06-0.47-0.06-1.23c0.01-0.13,0.01-0.29,0.03-0.44
						c0.01-0.14,0.02-0.28,0.03-0.44H153.962z"/>
					<path style="fill:#FFFFFF;" d="M132.93,427.875c0.157-0.145,0.363-0.252,0.583-0.242c0.232,0.01,0.402,0.098,0.583,0.242
						c0.127,0.1,0.254,0.2,0.382,0.299c0.609,0.469,1.227,0.925,1.856,1.365c0.179,0.125,0.319,0.276,0.379,0.493
						c0.054,0.198,0.03,0.46-0.083,0.635c-0.226,0.35-0.75,0.56-1.128,0.296c-0.877-0.614-1.734-1.256-2.572-1.922
						c-0.154-0.122-0.242-0.396-0.242-0.583C132.689,428.256,132.779,428.014,132.93,427.875z"/>
					<path style="fill:#FFFFFF;" d="M129.665,429.344c0.309-0.283,0.866-0.35,1.166,0c0.604,0.702,1.277,1.341,2.007,1.91
						c0.117,0.088,0.234,0.176,0.354,0.261c0.179,0.127,0.319,0.275,0.379,0.493c0.054,0.197,0.03,0.46-0.083,0.635
						c-0.225,0.349-0.751,0.562-1.128,0.296c-0.992-0.701-1.903-1.507-2.695-2.429c-0.145-0.168-0.242-0.355-0.242-0.583
						C129.423,429.725,129.513,429.483,129.665,429.344z"/>
					<path style="fill:#FFFFFF;" d="M126.662,430.409c0.157-0.144,0.363-0.251,0.583-0.241c0.202,0.009,0.452,0.073,0.583,0.241
						l1.87,2.405c0.14,0.181,0.242,0.344,0.242,0.583c0,0.202-0.09,0.444-0.241,0.583c-0.157,0.144-0.363,0.252-0.583,0.242
						c-0.202-0.009-0.452-0.073-0.583-0.241l-1.87-2.405c-0.141-0.18-0.242-0.344-0.242-0.583
						C126.421,430.79,126.511,430.549,126.662,430.409z"/>
					<path style="fill:#FFFFFF;" d="M123.333,431.187c0.395-0.209,0.896-0.102,1.128,0.296c0.417,0.713,0.834,1.426,1.25,2.139
						c0.218,0.372,0.098,0.92-0.296,1.128c-0.395,0.209-0.896,0.102-1.128-0.296c-0.417-0.713-0.833-1.426-1.25-2.139
						C122.819,431.942,122.939,431.395,123.333,431.187z"/>
				</g>
				<g>
					<path style="fill:#10375C;" d="M261.111,427.935v0.01l-0.51,0.18l-43.06,15c0,0-0.21-0.42-0.46-1.13
						c-0.04-0.13-0.09-0.28-0.12-0.43c-0.01-0.04-0.02-0.07-0.03-0.11c-0.07-0.23-0.12-0.5-0.17-0.79c-0.02-0.08-0.04-0.19-0.05-0.3
						c-0.38-2.63,0.23-6.62,5.8-9.79c0.26-0.16,0.56-0.32,0.86-0.46c0.45-0.24,0.92-0.45,1.42-0.66c0.27-0.12,0.54-0.23,0.8-0.37
						c11.34-5.04,15.14-10.76,15.14-10.76s7.4-1.02,13.39-4.67c0,0,0.96,0.8,2.19,2.38c0.37,0.46,0.75,0.99,1.14,1.58
						c0.02,0.03,0.02,0.05,0.04,0.07c0.06,0.07,0.1,0.15,0.16,0.23c0.1,0.16,0.2,0.33,0.3,0.51c0.02,0.06,0.08,0.12,0.09,0.17
						c0.02,0.03,0.05,0.04,0.07,0.09c0.48,0.83,0.95,1.78,1.38,2.81c0.41,1.05,0.8,2.19,1.09,3.43c0.02,0.05,0.03,0.09,0.04,0.14
						l0.06,0.29v0.01c0.01,0.02,0.02,0.05,0.01,0.07c0.06,0.28,0.12,0.54,0.17,0.83c0.04,0.14,0.06,0.28,0.08,0.43
						c0.03,0.2,0.05,0.39,0.08,0.61C261.061,427.505,261.102,427.715,261.111,427.935z"/>
					<path style="fill:#FFFFFF;" d="M261.111,427.935c-0.17,0.06-0.34,0.12-0.51,0.19l-43.06,15c0,0-0.21-0.42-0.46-1.13
						c-0.04-0.13-0.09-0.28-0.12-0.43c-0.01-0.04-0.02-0.07-0.03-0.11c14.55-5.51,29.11-11.02,43.65-16.53
						c0.02,0.05,0.03,0.09,0.04,0.14l0.06,0.29v0.01c0.01,0.02,0.02,0.05,0.01,0.07c0.06,0.28,0.12,0.54,0.17,0.83
						c0.04,0.14,0.06,0.28,0.08,0.43c0.03,0.2,0.05,0.39,0.08,0.61C261.061,427.505,261.102,427.715,261.111,427.935z"/>
					<path style="fill:#FFFFFF;" d="M236.536,420.18c0.101-0.188,0.26-0.357,0.471-0.42c0.223-0.066,0.412-0.04,0.63,0.036
						c0.153,0.053,0.306,0.105,0.459,0.157c0.729,0.243,1.463,0.469,2.202,0.678c0.21,0.059,0.393,0.156,0.52,0.34
						c0.116,0.169,0.18,0.425,0.131,0.627c-0.098,0.405-0.524,0.776-0.968,0.651c-1.03-0.291-2.051-0.616-3.061-0.968
						c-0.186-0.065-0.358-0.294-0.42-0.471C236.434,420.619,236.439,420.361,236.536,420.18z"/>
					<path style="fill:#FFFFFF;" d="M233.936,422.642c0.198-0.369,0.702-0.615,1.101-0.384c0.801,0.465,1.647,0.845,2.524,1.143
						c0.14,0.045,0.279,0.089,0.42,0.13c0.211,0.061,0.392,0.155,0.52,0.341c0.116,0.168,0.18,0.425,0.131,0.627
						c-0.098,0.403-0.524,0.778-0.968,0.651c-1.167-0.336-2.293-0.797-3.344-1.406c-0.192-0.111-0.345-0.255-0.42-0.471
						C233.833,423.081,233.839,422.823,233.936,422.642z"/>
					<path style="fill:#FFFFFF;" d="M231.452,424.636c0.101-0.188,0.26-0.357,0.471-0.42c0.194-0.058,0.451-0.079,0.63,0.036
						l2.558,1.655c0.192,0.124,0.341,0.245,0.42,0.471c0.066,0.191,0.061,0.449-0.036,0.63c-0.101,0.188-0.26,0.357-0.471,0.42
						c-0.194,0.058-0.451,0.08-0.63-0.036l-2.557-1.655c-0.192-0.124-0.341-0.245-0.42-0.471
						C231.349,425.075,231.354,424.818,231.452,424.636z"/>
					<path style="fill:#FFFFFF;" d="M228.563,426.466c0.304-0.327,0.812-0.391,1.163-0.092c0.628,0.536,1.256,1.072,1.885,1.608
						c0.328,0.28,0.396,0.836,0.092,1.163c-0.304,0.327-0.812,0.391-1.163,0.092c-0.628-0.536-1.256-1.072-1.885-1.608
						C228.327,427.348,228.26,426.792,228.563,426.466z"/>
				</g>
				<path style="fill:#FE9875;" d="M149.795,231.749l-12.46,195.652c0,0,9.718,2.604,14.194-0.052l38.012-195.041L149.795,231.749z"
					/>
				<path style="fill:#FE9875;" d="M176.521,232.125c0,0,8.98,85.672,14.706,103.326c1.575,4.855,49.419,82.901,49.419,82.901
					s9.262-0.284,13.461-4.791c0,0-31.905-81.676-32.976-85.675c-1.071-3.999-5.817-95.761-5.817-95.761H176.521z"/>
			</g>
			<g>
				<path style="fill:#F3C623;" d="M252.881,400.885c-1.21,0.85-2.47,1.66-3.77,2.43c-0.28,0.17-0.57,0.33-0.85,0.49
					c-11.76,6.71-25.81,9.85-25.81,9.85s-33.85-75.34-35.73-80.47c-1.88-5.14-6.11-52.78-6.11-52.78l-17.65,136.38
					c-3.39,0.79-7.46,1.14-11.65,1.21c-0.34,0.01-0.67,0.01-1.01,0.01c-12.23,0.11-25.13-1.97-25.13-1.97s11.57-78.83,25.48-190.13
					h66.24c9.24,16.53,5.56,98.9,5.73,101.3C222.791,329.595,252.881,400.885,252.881,400.885z"/>
				<g>
					<path style="fill:#F3AE23;" d="M249.111,403.315c-0.28,0.17-0.57,0.33-0.85,0.49c-4.7-8.42-9.29-16.91-13.77-25.45
						c-5.18-9.85-10.22-19.78-15.12-29.78c-2.36-4.81-4.82-9.6-6.91-14.53c-1.05-2.47-1.94-5.02-2.47-7.65
						c-0.51-2.59-0.7-5.23-0.74-7.87c-0.07-5.6,0.34-11.22,0.58-16.82l0.72-17c0.49-11.39,0.97-22.77,1.45-34.15
						c-2.85-0.38-5.6-1.41-7.97-3.05c-3.27-2.27-5.72-5.58-6.98-9.35c-0.21-0.61,0.76-0.87,0.96-0.26c1.2,3.57,3.56,6.74,6.69,8.86
						c3.39,2.3,7.52,3.3,11.59,2.89c0.64-0.07,0.64,0.94,0,1c-1.09,0.11-2.2,0.11-3.29,0.03c-0.06,1.29-0.11,2.58-0.17,3.87
						c-0.48,11.34-0.96,22.67-1.44,34.01c-0.24,5.66-0.48,11.33-0.72,17c-0.23,5.47-0.7,11.01-0.26,16.48
						c0.43,5.5,2.34,10.48,4.69,15.42c2.35,4.97,4.77,9.9,7.2,14.82c4.9,9.88,9.93,19.7,15.09,29.44
						C241.221,388.955,245.131,396.155,249.111,403.315z"/>
					<path style="fill:#F3AE23;" d="M183.541,241.835c-0.83,9.47-0.88,19-0.17,28.47c0.05,0.65-0.95,0.64-1,0
						c-0.2-2.73-0.35-5.47-0.43-8.22c-0.04-1.27-0.06-2.54-0.06-3.81c-0.98-0.02-1.91-0.29-2.75-0.75c-0.24,1.2-0.48,2.41-0.72,3.62
						c-2.17,10.89-4.28,21.79-6.33,32.71c-2.05,10.91-4.05,21.83-5.98,32.77c-1.95,10.99-3.83,21.99-5.66,33
						c-1.82,10.95-3.58,21.91-5.29,32.89c-1.32,8.49-2.6,16.98-3.84,25.48c-0.34,0.01-0.67,0.01-1.01,0.01
						c1.46-9.97,2.97-19.92,4.53-29.87c1.72-10.97,3.49-21.94,5.33-32.89c1.84-11,3.74-22,5.7-32.99
						c1.95-10.93,3.96-21.85,6.03-32.76c2.05-10.87,4.17-21.72,6.34-32.57c-0.48-0.38-0.93-0.81-1.3-1.3
						c-1.34-1.73-1.88-3.92-2.01-6.07c-0.16-2.53,0.16-5.09,0.34-7.61c0.2-2.63,0.39-5.26,0.58-7.89c0.05-0.64,1.05-0.64,1,0
						c-0.17,2.39-0.35,4.77-0.52,7.15c-0.17,2.3-0.42,4.61-0.44,6.92c-0.01,2.13,0.26,4.34,1.36,6.2c0.99,1.66,2.68,2.88,4.64,2.95
						c-0.01-7.98,0.53-15.96,1.61-23.87c0.09-0.64,1.05-0.37,0.96,0.26C184.081,236.385,183.781,239.105,183.541,241.835z"/>
				</g>
			</g>
		</g>
		<g>
			<g>
				<path style="fill:#FFA785;" d="M166.238,130.835c-11.679,2.82-44.175,27.92-45.675,27.46c-1.5-0.46-26.497-38.297-26.497-38.297
					l-8.939,6.147c0,0,19.414,47.766,29.912,50.985c13.682,4.196,48.985-18.066,48.985-18.066L166.238,130.835z"/>
				<path style="fill:#FFA785;" d="M94.067,119.998c0,0-1.637-10.241-6.499-11.71c-5.209-1.573-14.395-2.121-14.591-0.685
					c-0.152,1.112,8.07,3.784,8.07,3.784s-3.709,3.412-3.318,6.643c0.392,3.231,7.437,8.082,7.437,8.082L94.067,119.998z"/>
			</g>
			<g>
				<g>
					<g>
						<g>
							<g>
								<g>
									<g>
										<g>
											<g>
												<g>
													<g>
														<g>
															<path style="fill:#10375C;" d="M218.961,231.745c-0.85,0.81-5.54,1.68-12.18,2.36h-0.01
																c-0.7,0.07-1.42,0.14-2.16,0.2c-5.14,0.46-11.23,0.81-17.52,0.93c-0.52,0.01-1.04,0.02-1.56,0.03
																c-4.6,0.06-9.28,0-13.75-0.21c-0.34-0.02-0.69-0.04-1.03-0.06c-3.51-0.19-6.87-0.48-9.95-0.89
																c-0.33-0.04-0.66-0.09-0.98-0.14c-5.06-0.73-9.28-1.8-11.99-3.31l5.46-19.6l0.29-1.03l2.09-7.5v-0.01l0.31-1.12
																l3.48-12.5l0.27-0.97l2.82-10.13l0.26-0.93l1.55-5.57l0.26-0.94v-0.01l0.73-2.6c0,0-0.69-2.35-1.35-6.06
																c-0.06-0.38-0.13-0.77-0.2-1.17c-1.24-7.63-2.12-19.88,2.44-29.68l5.59-1.83l1.02-0.33l6.56-2.14h12.95l3.51,1.15
																l0.96,0.32l8.62,2.83v0.09l1.08,14.14c0,0.01,0,0.01,0,0.01l0.16,2.13l1.49,19.61c0,0,0.09,0.44,0.26,1.26
																c0.06,0.28,0.13,0.6,0.21,0.97c0.4,1.95,1.04,5.08,1.82,8.91c0.06,0.32,0.13,0.64,0.19,0.96
																c0.33,1.62,0.68,3.36,1.04,5.19c0.06,0.33,0.13,0.66,0.2,1c1.55,7.84,3.31,17.05,4.72,25.2
																c0.08,0.47,0.16,0.93,0.24,1.38c0.44,2.58,0.84,5.03,1.19,7.29v0.01c0.08,0.61,0.17,1.2,0.26,1.78v0.01
																C219.191,226.895,219.561,231.175,218.961,231.745z"/>
														</g>
													</g>
												</g>
											</g>
										</g>
									</g>
								</g>
							</g>
						</g>
					</g>
				</g>
				<g>
					<path style="fill:#0A2238;" d="M172.841,218.695c-0.81,3.77-1.72,7.51-1.69,11.4c0.01,1.69,0.2,3.36,0.63,4.96
						c-0.34-0.02-0.69-0.04-1.03-0.06c-1.12-4.67-0.4-9.79,0.67-14.5c0.87-3.83,1.97-8.11,0.3-11.89c-1.24-2.81-3.8-4.87-6.64-5.93
						c-3.15-1.18-6.37-1.07-9.41-0.16l0.31-1.12c3.27-0.84,6.71-0.82,10,0.57c2.71,1.15,5.15,3.15,6.46,5.82
						C174.111,211.225,173.621,215.095,172.841,218.695z"/>
					<path style="fill:#0A2238;" d="M210.661,178.915c-2.53,0.68-5.32,0.63-7.87,0.26c-5.38-0.78-11.33-3.1-16.68-0.93
						c-2.04,0.83-3.9,2.37-4.83,4.4c-1.01,2.22-0.48,4.63,0.77,6.64c2.5,3.98,7.12,6.29,8.96,10.73c2.06,4.96-1.48,9.25-4.11,13.15
						c-2.85,4.22-5.11,9.27-4.29,14.48c0.37,2.4,1.38,4.72,3.12,6.45c0.42,0.42,0.88,0.8,1.36,1.14c-0.52,0.01-1.04,0.02-1.56,0.03
						c-0.69-0.61-1.3-1.29-1.83-2.06c-1.36-1.97-2.06-4.34-2.22-6.71c-0.37-5.31,2.08-10.29,5.03-14.53
						c1.46-2.1,3.12-4.23,3.83-6.73c0.72-2.51,0.03-4.89-1.47-6.97c-2.79-3.88-7.8-6.44-8.94-11.4c-1.06-4.61,2.56-8.62,6.76-9.88
						c5.75-1.74,11.6,0.72,17.31,1.35c2.16,0.24,4.38,0.23,6.47-0.38C210.531,178.275,210.601,178.595,210.661,178.915z"/>
					<path style="fill:#0A2238;" d="M218.311,220.765v0.01c-2.68,5.31-6.65,10-11.53,13.33h-0.01c-0.7,0.07-1.42,0.14-2.16,0.2
						c0.57-0.34,1.13-0.7,1.67-1.08c5.14-3.57,9.2-8.57,11.77-14.24C218.131,219.595,218.221,220.185,218.311,220.765z"/>
					<path style="fill:#0A2238;" d="M175.381,191.505c-0.71,1.52-2.15,2.43-3.79,2.64c-3.88,0.49-6.72-2.48-9.85-4.21
						c-0.73-0.41-1.5-0.76-2.28-1.04l0.27-0.97c0.8,0.29,1.58,0.64,2.33,1.05c3.02,1.62,5.99,4.89,9.75,4.13
						c1.85-0.38,2.97-1.89,3.09-3.75c0.12-2.01-0.76-4.12-1.69-5.87c-0.88-1.64-2.07-3.13-3.68-4.09c-0.79-0.47-1.65-0.78-2.56-0.92
						c-0.95-0.14-1.91-0.13-2.87-0.26c-0.55-0.07-1.07-0.21-1.55-0.42l0.26-0.93c1.68,0.73,3.76,0.35,5.5,0.9
						c3.66,1.15,5.84,4.67,7.01,8.12C175.941,187.695,176.201,189.715,175.381,191.505z"/>
					<path style="fill:#0A2238;" d="M216.861,211.685c-0.84,1.17-1.67,2.35-2.51,3.52c-0.94,1.32-1.82,2.85-3.1,3.88
						c-1.27,1.02-2.84,1.19-4.37,0.69c-2.52-0.82-4.8-2.82-5.71-5.34c-0.45-1.25-0.54-2.64-0.25-3.93c0.32-1.44,1.18-2.58,2.22-3.57
						c1.03-0.98,2.29-1.92,2.8-3.31c0.57-1.55-0.27-3.08-1.32-4.2c-2.14-2.29-5.12-3.57-7.35-5.76c-1.9-1.86-3.25-4.51-2.51-7.22
						c0.74-2.7,3.39-3.79,5.97-3.85c3.28-0.07,6.39,1.15,9.63,1.45c0.44,0.04,0.89,0.06,1.34,0.06c0.06,0.33,0.13,0.66,0.2,1
						c-0.33,0.01-0.66,0-0.99-0.02c-3.37-0.19-6.6-1.5-9.99-1.49c-1.26,0.01-2.6,0.23-3.66,0.95c-1.13,0.76-1.69,2.05-1.7,3.39
						c-0.03,2.89,2.18,5.06,4.35,6.64c2.28,1.66,5.09,3.1,6.53,5.63c0.65,1.12,0.91,2.44,0.46,3.69c-0.43,1.22-1.35,2.17-2.28,3.03
						c-1.04,0.96-2.12,1.9-2.58,3.28c-0.43,1.28-0.36,2.7,0.1,3.96c0.46,1.26,1.33,2.34,2.37,3.18c1.1,0.89,2.56,1.7,4.01,1.72
						c1.48,0.02,2.53-1.01,3.36-2.12c0.96-1.27,1.85-2.58,2.77-3.87c0.66-0.92,1.31-1.85,1.97-2.77
						C216.701,210.775,216.781,211.235,216.861,211.685z"/>
					<path style="fill:#0A2238;" d="M162.311,226.845c-0.81,2.25-1.63,4.81-1.51,7.26c-0.33-0.04-0.66-0.09-0.98-0.14
						c-0.06-1.8,0.31-3.64,0.83-5.32c1.08-3.49,2.86-6.88,2.71-10.62c-0.07-1.65-0.54-3.32-1.62-4.59c-1.03-1.2-2.48-1.94-4.01-2.3
						c-1.48-0.35-2.97-0.32-4.44-0.08l0.29-1.03c1.61-0.23,3.25-0.2,4.87,0.27c3.04,0.87,5.25,3.19,5.76,6.34
						C164.801,220.195,163.501,223.565,162.311,226.845z"/>
					<path style="fill:#0A2238;" d="M208.651,169.045c-0.6,0.08-1.22,0.1-1.84,0.06c-4.98-0.31-8.99-3.58-13.2-5.87
						c-2.12-1.16-4.42-2.14-6.85-2.27c-2.27-0.11-4.53,0.5-6.44,1.71c-3.75,2.36-4.89,7.39-9.23,8.96
						c-2.29,0.82-4.63,0.58-6.73-0.34l0.26-0.94c0.48,0.21,0.98,0.39,1.5,0.52c2.43,0.61,5.13,0.11,7-1.61
						c1.54-1.42,2.52-3.31,3.84-4.92c1.29-1.59,2.98-2.8,4.89-3.56c4.23-1.68,8.52-0.47,12.36,1.64c4.07,2.23,8.07,5.54,12.93,5.7
						c0.44,0.01,0.87,0,1.3-0.05C208.501,168.355,208.571,168.675,208.651,169.045z"/>
					<path style="fill:#0A2238;" d="M206.691,147.205c-0.36,0.75-0.77,1.47-1.22,2.18c-1.34,2.09-3.05,3.95-5.14,5.31
						c-2.25,1.48-5.08,2.48-7.78,1.92c-2.68-0.56-4.94-2.63-6.95-4.36c-1.99-1.72-3.87-3.74-4.78-6.26
						c-0.82-2.28-0.83-5.04,0.54-7.12c1.43-2.2,4.01-3.06,6.42-3.71c2.56-0.68,5.28-1.35,6.83-3.7c0.75-1.11,1.19-2.44,1.26-3.78
						l0.96,0.32c-0.08,1.09-0.38,2.16-0.88,3.16c-1.26,2.49-3.59,3.75-6.18,4.5c-2.43,0.71-5.26,1.12-7.06,3.08
						c-1.67,1.82-1.74,4.57-0.98,6.81c0.86,2.56,2.88,4.56,4.89,6.26c2.01,1.7,4.28,3.77,7.03,3.95c2.67,0.17,5.35-1.14,7.36-2.8
						c1.91-1.56,3.42-3.56,4.55-5.75c0.36-0.7,0.68-1.41,0.97-2.14L206.691,147.205z"/>
					<path style="fill:#0A2238;" d="M175.811,159.235c-2.53,3.38-7.14,4.07-10.95,2.77c-0.29-0.1-0.58-0.21-0.86-0.32
						c-0.06-0.38-0.13-0.77-0.2-1.17c0.8,0.37,1.65,0.67,2.54,0.87c3.91,0.89,8.2-0.68,9.69-4.61c1.45-3.84-0.14-7.98-3.02-10.68
						c-1.35-1.27-2.84-2.38-3.08-4.36c-0.24-2.05,0.77-3.99,1.67-5.76c0.94-1.82,1.98-4.07,0.88-6.06c-0.18-0.33-0.4-0.63-0.65-0.91
						l1.02-0.33c0.27,0.34,0.51,0.71,0.69,1.12c1.04,2.34-0.09,4.79-1.17,6.88c-1.01,1.95-2.26,4.5-0.83,6.56
						c0.6,0.87,1.49,1.5,2.25,2.22c0.73,0.7,1.38,1.48,1.94,2.33C177.971,151.205,178.341,155.855,175.811,159.235z"/>
				</g>
			</g>
			<g>
				<path style="fill:#FFA785;" d="M215.554,224.433c-1.13,0.37-1.263,1.899-3.056,2.665c-1.793,0.766-5.138,0.391-6.33,1.339
					c-1.192,0.948-8.011,9.859-5.913,11.205c2.098,1.347,4.763-4.285,4.927-4.286c0.164-0.001-3.549,6.849-1.721,7.779
					c1.828,0.93,5.058-7.477,5.273-7.433c0.215,0.044-1.768,6.778,0.109,7.239s3.141-6.265,3.344-6.304
					c0.203-0.039-0.461,5.147,0.9,5.204c1.362,0.057,2.242-6.424,2.547-6.483c0.305-0.059,3.263,0.683,5.431-0.291
					c2.168-0.975,3.997-5.781,2.956-7.308C222.981,226.232,217.025,223.952,215.554,224.433z"/>
				<path style="fill:#FFA785;" d="M205.446,130.835c23.929,8.055,41.093,41.495,39.953,50.241
					c-1.141,8.746-21.076,47.654-21.076,47.654l-10.193-2.927c0,0,14.268-42.376,13.793-44.893
					c-0.475-2.517-20.322-21.692-20.322-21.692C196.347,144.561,205.446,130.835,205.446,130.835z"/>
			</g>
		</g>
		<g>
			<circle cx="183.003" cy="92.817" r="24.085"/>
			<ellipse transform="matrix(0.7071 -0.7071 0.7071 0.7071 6.1775 162.4193)" cx="199.146" cy="73.753" rx="11.745" ry="11.745"/>
			<g>
				<path style="fill:#FE9875;" d="M164.38,102.98c0.018,0.099,0.027,0.188,0.045,0.286c0.788,4.853,2.704,7.853,5.274,10.029
					c1.809,1.549,3.43,2.534,4.773,3.492c0.26,0.179,0.501,0.367,0.743,0.555c2.498,1.907,3.967,4.056,3.967,10.459
					c2.176,5.453,10.503,6.214,13.19,0c-0.09-7.737,1.379-14.417,2.677-18.724c0.322-1.128,0.645-2.086,0.922-2.856
					c0.528-1.468,0.904-2.283,0.904-2.283s-0.358-17.013-2.803-21.526c-5.964-10.906-26.899-7.181-28.529,1.504
					C163.95,92.369,163.699,98.467,164.38,102.98z"/>
				<path d="M162.871,88.814c4.835-0.596,9.335-3.49,11.884-7.642c1.308,2.958,3.607,5.467,6.441,7.027
					c2.833,1.56,6.183,2.161,9.382,1.684c0.068,2.409,0.964,4.788,2.503,6.643c1.539,1.855,3.71,3.176,6.065,3.688
					c-0.369-5.117-1.51-10.233-3.198-15.077c-1.016-2.915-2.34-5.855-4.693-7.853c-2.121-1.801-4.914-2.669-7.689-2.882
					c-2.775-0.213-5.558,0.185-8.299,0.667c-2.392,0.421-4.821,0.925-6.925,2.136C164.392,79.48,162.161,84.312,162.871,88.814z"/>
				<g>
					<g>
						<circle cx="179.924" cy="99.285" r="1.327"/>
						<circle style="fill:#FFFFFF;" cx="179.438" cy="98.922" r="0.486"/>
					</g>
					<g>
						<path d="M170.989,99.285c0,0.733-0.594,1.327-1.327,1.327c-0.733,0-1.327-0.594-1.327-1.327c0-0.733,0.594-1.327,1.327-1.327
							C170.395,97.958,170.989,98.552,170.989,99.285z"/>
						<circle style="fill:#FFFFFF;" cx="169.176" cy="98.922" r="0.486"/>
					</g>
					<path d="M171.877,94.091c-1.666-1.16-3.831-1.093-5.402,0.265c-0.294,0.254-0.345,0.766-0.122,1.097
						c0.228,0.338,0.662,0.395,0.956,0.14c0.645-0.557,1.466-0.809,2.268-0.75c0.405,0.03,0.806,0.138,1.178,0.324
						c0.33,0.164,0.651,0.449,1.021,0.236c0.089-0.051,0.164-0.126,0.224-0.215C172.207,94.881,172.193,94.311,171.877,94.091z"/>
					<path d="M177.049,94.091c1.911-1.16,4.393-1.093,6.194,0.265c0.337,0.254,0.396,0.766,0.14,1.097
						c-0.262,0.338-0.759,0.395-1.097,0.14c-0.739-0.557-1.681-0.798-2.598-0.737c-0.464,0.031-0.923,0.138-1.352,0.318
						c-0.379,0.159-0.75,0.441-1.172,0.229c-0.101-0.051-0.188-0.126-0.257-0.215C176.67,94.881,176.686,94.311,177.049,94.091z"/>
					<path style="fill:#C16B5B;" d="M172.637,102.883c-0.075,0-0.144-0.049-0.167-0.125c-0.328-1.131,0.056-1.516,0.437-1.639
						c0.386-0.123,0.848-0.024,1.374,0.301c0.081,0.05,0.106,0.157,0.056,0.239c-0.051,0.081-0.159,0.105-0.239,0.056
						c-0.434-0.268-0.8-0.358-1.085-0.265c-0.341,0.11-0.412,0.518-0.211,1.212c0.027,0.091-0.026,0.188-0.118,0.215
						C172.67,102.881,172.653,102.883,172.637,102.883z"/>
					<path style="fill:#C16B5B;" d="M173.509,106.792c-0.78-0.046-1.581-0.264-2.339-0.723c-0.354-0.213-0.468-0.673-0.254-1.026
						c0.213-0.353,0.672-0.468,1.026-0.254c1.833,1.103,4.001,0.208,4.652-0.583c0.262-0.317,0.734-0.364,1.053-0.101
						c0.319,0.263,0.364,0.734,0.101,1.053C176.982,106.087,175.305,106.898,173.509,106.792z"/>
				</g>
				<g>
					<g>
						<path style="fill:#127681;" d="M190.129,104.057h-22.353c-0.963,0-1.743-0.78-1.743-1.743v-6.058
							c0-0.963,0.781-1.743,1.743-1.743h22.353c0.963,0,1.743,0.781,1.743,1.743v6.058
							C191.872,103.277,191.092,104.057,190.129,104.057z"/>
						<path style="fill:#2AAFBD;" d="M185.54,104.057h-22.353c-0.963,0-1.743-0.78-1.743-1.743v-6.058
							c0-0.963,0.781-1.743,1.743-1.743h22.353c0.963,0,1.743,0.781,1.743,1.743v6.058
							C187.284,103.277,186.503,104.057,185.54,104.057z"/>
						<path style="fill:#127681;" d="M182.901,101.37h-17.075c-1.151,0-2.085-0.933-2.085-2.085l0,0
							c0-1.151,0.933-2.085,2.085-2.085h17.075c1.151,0,2.085,0.933,2.085,2.085l0,0C184.986,100.436,184.052,101.37,182.901,101.37
							z"/>
					</g>
					<rect x="189.298" y="97.441" style="fill:#127681;" width="10.575" height="2.962"/>
				</g>
				<g>
					<path style="fill:#FE9875;" d="M201.461,104.329c-1.795,2.14-4.628,2.721-6.327,1.296c-1.699-1.425-1.621-4.315,0.174-6.456
						c1.795-2.141,4.628-2.721,6.327-1.296C203.333,99.298,203.256,102.188,201.461,104.329z"/>
					<path style="fill:#C16B5B;" d="M200.463,98.921c-0.763-0.404-1.781-0.385-2.721,0.053c-0.469,0.217-0.808,0.482-1.041,0.809
						c-0.307,0.433-0.392,0.977-0.222,1.419c0.151,0.397,0.468,0.654,0.747,0.882c0.202,0.164,0.393,0.32,0.501,0.506
						c0.166,0.285,0.124,0.685-0.098,0.929c-0.221,0.244-0.615,0.323-0.915,0.184c-0.177-0.081-0.384-0.004-0.466,0.171
						c-0.081,0.175-0.005,0.384,0.171,0.466c0.193,0.089,0.402,0.132,0.611,0.132c0.417,0,0.834-0.169,1.117-0.482
						c0.426-0.469,0.503-1.206,0.184-1.754c-0.172-0.295-0.434-0.508-0.664-0.696c-0.232-0.188-0.45-0.367-0.535-0.589
						c-0.086-0.223-0.031-0.521,0.14-0.762c0.069-0.097,0.162-0.184,0.266-0.269c0.348-0.003,0.785,0.104,1.005,0.345
						c0.248,0.272,0.365,0.665,0.306,1.028c-0.032,0.191,0.098,0.371,0.289,0.403c0.019,0.003,0.038,0.005,0.057,0.005
						c0.169,0,0.317-0.122,0.345-0.294c0.096-0.578-0.084-1.181-0.48-1.615c-0.148-0.161-0.332-0.27-0.525-0.359
						c0.58-0.156,1.153-0.125,1.597,0.109c0.549,0.29,0.963,1.039,0.681,1.648c-0.081,0.176-0.004,0.384,0.171,0.466
						c0.176,0.081,0.384,0.005,0.466-0.171C201.863,100.596,201.409,99.422,200.463,98.921z"/>
				</g>
			</g>
		</g>
	</g>
	<g>
		<path style="opacity:0.6;fill:#B1DEF2;" d="M205.767,258.584H42.395c-1.111,0-2.012-0.901-2.012-2.012v-43.19
			c0-1.111,0.901-2.012,2.012-2.012h163.372c1.111,0,2.012,0.901,2.012,2.012v43.19
			C207.779,257.684,206.878,258.584,205.767,258.584z"/>
		<path style="fill:#F4F6FF;" d="M198.39,225.387H89.341c-1,0-1.811-0.811-1.811-1.811l0,0c0-1,0.811-1.811,1.811-1.811H198.39
			c1,0,1.811,0.811,1.811,1.811l0,0C200.201,224.576,199.39,225.387,198.39,225.387z"/>
		<path style="fill:#F4F6FF;" d="M198.39,236.788H89.341c-1,0-1.811-0.811-1.811-1.811l0,0c0-1,0.811-1.811,1.811-1.811H198.39
			c1,0,1.811,0.811,1.811,1.811l0,0C200.201,235.977,199.39,236.788,198.39,236.788z"/>
		<path style="fill:#F4F6FF;" d="M198.39,248.189H89.341c-1,0-1.811-0.811-1.811-1.811l0,0c0-1,0.811-1.811,1.811-1.811H198.39
			c1,0,1.811,0.811,1.811,1.811l0,0C200.201,247.378,199.39,248.189,198.39,248.189z"/>
		<path style="fill:#F3C623;" d="M80.589,253.957H47.391c-0.833,0-1.509-0.676-1.509-1.509V219.25c0-0.833,0.676-1.509,1.509-1.509
			h33.197c0.833,0,1.509,0.676,1.509,1.509v33.198C82.098,253.281,81.422,253.957,80.589,253.957z"/>
	</g>
	<g>
		<path style="opacity:0.6;fill:#B1DEF2;" d="M400.753,352.398H284.148c-1.355,0-2.453-1.098-2.453-2.453V233.34
			c0-1.355,1.098-2.453,2.453-2.453h116.605c1.355,0,2.453,1.098,2.453,2.453v116.605
			C403.206,351.3,402.107,352.398,400.753,352.398z"/>
		<path style="fill:#F4F6FF;" d="M342.45,336.542c-24.757,0-44.899-20.141-44.899-44.899c0-24.757,20.141-44.898,44.899-44.898
			v12.563c-17.83,0-32.336,14.505-32.336,32.335c0,17.83,14.506,32.336,32.336,32.336c15.951,0,29.707-11.881,31.997-27.637
			l12.433,1.806C383.699,320.036,364.599,336.542,342.45,336.542z"/>
		
			<ellipse transform="matrix(0.9262 -0.3771 0.3771 0.9262 -84.6932 150.6598)" style="fill:#F3C623;" cx="342.45" cy="291.643" rx="24.277" ry="24.277"/>
		<g>
			<rect x="364.149" y="242.46" style="fill:#F4F6FF;" width="4.717" height="4.717"/>
			<rect x="371.035" y="242.46" style="fill:#F4F6FF;" width="19.371" height="1.006"/>
			<rect x="371.035" y="244.818" style="fill:#F4F6FF;" width="25.472" height="1.006"/>
			<rect x="371.035" y="247.177" style="fill:#F4F6FF;" width="25.472" height="1.006"/>
			<rect x="371.035" y="249.536" style="fill:#F4F6FF;" width="25.472" height="1.006"/>
		</g>
	</g>
	<g>
		<path style="fill:#FFFFFF;" d="M417.383,210.245c-2.774,0-5.032-2.257-5.032-5.032c0-2.775,2.258-5.032,5.032-5.032
			c2.774,0,5.032,2.257,5.032,5.032C422.415,207.987,420.157,210.245,417.383,210.245z M417.383,201.181
			c-2.224,0-4.032,1.809-4.032,4.032c0,2.223,1.809,4.032,4.032,4.032s4.032-1.809,4.032-4.032
			C421.415,202.99,419.606,201.181,417.383,201.181z"/>
		<path style="fill:#FFFFFF;" d="M217.638,286.564c-2.774,0-5.032-2.257-5.032-5.031c0-2.774,2.257-5.032,5.032-5.032
			c2.775,0,5.032,2.258,5.032,5.032C222.67,284.307,220.413,286.564,217.638,286.564z M217.638,277.5
			c-2.223,0-4.032,1.809-4.032,4.032c0,2.223,1.809,4.031,4.032,4.031c2.223,0,4.032-1.809,4.032-4.031
			C221.67,279.309,219.861,277.5,217.638,277.5z"/>
		<path style="fill:#FFFFFF;" d="M108.048,55.675c-2.774,0-5.032-2.257-5.032-5.032c0-2.775,2.257-5.032,5.032-5.032
			c2.774,0,5.032,2.257,5.032,5.032C113.08,53.417,110.822,55.675,108.048,55.675z M108.048,46.611
			c-2.223,0-4.032,1.809-4.032,4.032c0,2.223,1.809,4.032,4.032,4.032c2.223,0,4.032-1.809,4.032-4.032
			C112.08,48.42,110.271,46.611,108.048,46.611z"/>
		<path style="fill:#FFFFFF;" d="M61.18,178.181c-2.774,0-5.032-2.257-5.032-5.032c0-2.775,2.257-5.032,5.032-5.032
			c2.774,0,5.032,2.257,5.032,5.032C66.212,175.924,63.955,178.181,61.18,178.181z M61.18,169.117c-2.223,0-4.032,1.809-4.032,4.032
			c0,2.223,1.809,4.032,4.032,4.032c2.223,0,4.032-1.809,4.032-4.032C65.212,170.926,63.403,169.117,61.18,169.117z"/>
		<path style="fill:#FFFFFF;" d="M378.933,218.073c-1.36,0-2.467-1.107-2.467-2.467c0-1.361,1.107-2.468,2.467-2.468
			c1.36,0,2.468,1.107,2.468,2.468C381.4,216.966,380.293,218.073,378.933,218.073z M378.933,214.138
			c-0.809,0-1.467,0.658-1.467,1.468c0,0.809,0.658,1.467,1.467,1.467c0.81,0,1.468-0.658,1.468-1.467
			C380.4,214.796,379.742,214.138,378.933,214.138z"/>
		<path style="fill:#FFFFFF;" d="M100.873,191.387c-1.361,0-2.468-1.107-2.468-2.468c0-1.36,1.107-2.467,2.468-2.467
			c1.36,0,2.467,1.107,2.467,2.467C103.34,190.28,102.233,191.387,100.873,191.387z M100.873,187.452
			c-0.81,0-1.468,0.658-1.468,1.467c0,0.81,0.658,1.468,1.468,1.468c0.809,0,1.467-0.658,1.467-1.468
			C102.34,188.11,101.682,187.452,100.873,187.452z"/>
		<path style="fill:#FFFFFF;" d="M170.998,25.893c-1.36,0-2.467-1.107-2.467-2.468c0-1.36,1.107-2.467,2.467-2.467
			c1.36,0,2.467,1.107,2.467,2.467C173.466,24.786,172.359,25.893,170.998,25.893z M170.998,21.958
			c-0.809,0-1.467,0.658-1.467,1.467c0,0.81,0.658,1.468,1.467,1.468c0.809,0,1.467-0.658,1.467-1.468
			C172.466,22.616,171.808,21.958,170.998,21.958z"/>
		<path style="fill:#FFFFFF;" d="M243.847,230.742c-1.36,0-2.467-1.107-2.467-2.468c0-1.36,1.107-2.467,2.467-2.467
			c1.36,0,2.467,1.107,2.467,2.467C246.314,229.635,245.207,230.742,243.847,230.742z M243.847,226.807
			c-0.809,0-1.467,0.658-1.467,1.467c0,0.81,0.658,1.468,1.467,1.468s1.467-0.658,1.467-1.468
			C245.314,227.465,244.656,226.807,243.847,226.807z"/>
		<path style="fill:#FFFFFF;" d="M102.84,296.078c-1.36,0-2.467-1.107-2.467-2.468c0-1.36,1.107-2.467,2.467-2.467
			c1.36,0,2.467,1.106,2.467,2.467C105.307,294.971,104.2,296.078,102.84,296.078z M102.84,292.144
			c-0.809,0-1.467,0.658-1.467,1.467c0,0.809,0.658,1.468,1.467,1.468c0.809,0,1.467-0.658,1.467-1.468
			C104.307,292.802,103.649,292.144,102.84,292.144z"/>
		<path style="fill:#FFFFFF;" d="M340.983,119.447c-1.36,0-2.468-1.107-2.468-2.467c0-1.361,1.107-2.468,2.468-2.468
			c1.36,0,2.467,1.107,2.467,2.468C343.45,118.34,342.344,119.447,340.983,119.447z M340.983,115.512
			c-0.81,0-1.468,0.658-1.468,1.468c0,0.809,0.658,1.467,1.468,1.467c0.809,0,1.467-0.658,1.467-1.467
			C342.45,116.17,341.792,115.512,340.983,115.512z"/>
	</g>
	<g>
		<path style="opacity:0.6;fill:#B1DEF2;" d="M475.053,177.567H364.101c-2.823,0-5.111-2.289-5.111-5.112V61.504
			c0-2.823,2.288-5.111,5.111-5.111h110.952c2.823,0,5.112,2.288,5.112,5.111v110.952
			C480.165,175.279,477.876,177.567,475.053,177.567z"/>
		<g>
			<path style="fill:#F4F6FF;" d="M468.145,164.414H370.19V70.671c0-0.453,0.367-0.82,0.82-0.82c0.453,0,0.82,0.367,0.82,0.82
				v92.102h96.315c0.453,0,0.82,0.367,0.82,0.82S468.598,164.414,468.145,164.414z"/>
			<path style="fill:#F4F6FF;" d="M467.936,164.693c-0.453,0-0.82-0.367-0.82-0.82v-54.465c-1.866-4.028-7.976-5.589-12.586-4.513
				c-4.976,1.16-8.975,4.898-11.904,8.026c-0.792,0.846-1.568,1.711-2.344,2.576c-2.574,2.869-5.235,5.835-8.489,8.076
				c-4.892,3.37-10.754,4.737-16.077,3.753c-5.806-1.073-10.832-5.094-12.805-10.245c-0.958-2.498-1.238-5.209-1.509-7.83
				c-0.368-3.56-0.716-6.923-2.643-9.627c-2.921-4.101-8.697-5.106-13.13-4.281c-5.004,0.932-9.977,3.769-14.181,6.42
				c-0.38,0.242-0.888,0.127-1.131-0.256c-0.242-0.383-0.127-0.89,0.256-1.131c4.335-2.735,9.478-5.663,14.756-6.645
				c6.032-1.125,11.827,0.817,14.765,4.942c2.178,3.057,2.565,6.795,2.939,10.41c0.26,2.516,0.529,5.116,1.409,7.412
				c1.774,4.629,6.315,8.248,11.572,9.219c4.902,0.906,10.313-0.366,14.848-3.491c3.094-2.131,5.689-5.023,8.199-7.821
				c0.784-0.874,1.569-1.748,2.368-2.602c3.087-3.297,7.323-7.242,12.727-8.502c5.294-1.235,12.357,0.559,14.532,5.611l0.067,0.155
				v54.809C468.756,164.326,468.389,164.693,467.936,164.693z"/>
			<path style="fill:#F4F6FF;" d="M391.735,164.489c-0.453,0-0.82-0.367-0.82-0.82V94.37c0-0.453,0.367-0.82,0.82-0.82
				s0.82,0.367,0.82,0.82v69.299C392.554,164.122,392.188,164.489,391.735,164.489z"/>
			<path style="fill:#F4F6FF;" d="M451.624,164.066v-58.81c0-0.453,0.367-0.82,0.82-0.82c0.453,0,0.82,0.367,0.82,0.82v57.44
				c0.13,0.145,0.21,0.336,0.21,0.546c0.001,0.453-0.366,0.821-0.818,0.822L451.624,164.066z"/>
		</g>
		<path style="fill:#F4F6FF;" d="M437.999,78.879c0,0.925-0.75,1.675-1.675,1.675c-0.925,0-1.675-0.75-1.675-1.675
			c0-0.925,0.75-1.675,1.675-1.675C437.25,77.204,437.999,77.954,437.999,78.879z"/>
		<path style="fill:#F4F6FF;" d="M437.999,89.556c0,0.925-0.75,1.675-1.675,1.675c-0.925,0-1.675-0.75-1.675-1.675
			c0-0.925,0.75-1.675,1.675-1.675C437.25,87.881,437.999,88.631,437.999,89.556z"/>
		<path style="fill:#F4F6FF;" d="M467.255,79.769h-25.645c-0.491,0-0.89-0.398-0.89-0.89l0,0c0-0.491,0.398-0.89,0.89-0.89h25.645
			c0.491,0,0.89,0.398,0.89,0.89l0,0C468.145,79.371,467.747,79.769,467.255,79.769z"/>
		<path style="fill:#F4F6FF;" d="M467.255,90.445h-25.645c-0.491,0-0.89-0.398-0.89-0.89l0,0c0-0.491,0.398-0.89,0.89-0.89h25.645
			c0.491,0,0.89,0.398,0.89,0.89l0,0C468.145,90.047,467.747,90.445,467.255,90.445z"/>
	</g>
</g>
</svg>
