<?xml version="1.0" encoding="UTF-8"?>
<svg xmlns="http://www.w3.org/2000/svg" xmlns:xlink="http://www.w3.org/1999/xlink" viewBox="0 0 1951.3 1500.12">
  <defs>
    <style>
      .cls-1 {
        fill: url(#linear-gradient-38);
      }

      .cls-1, .cls-2, .cls-3, .cls-4, .cls-5, .cls-6, .cls-7, .cls-8, .cls-9, .cls-10, .cls-11, .cls-12, .cls-13, .cls-14, .cls-15, .cls-16, .cls-17, .cls-18, .cls-19, .cls-20, .cls-21, .cls-22, .cls-23, .cls-24, .cls-25, .cls-26, .cls-27, .cls-28, .cls-29, .cls-30, .cls-31, .cls-32, .cls-33, .cls-34, .cls-35, .cls-36, .cls-37, .cls-38, .cls-39, .cls-40, .cls-41, .cls-42, .cls-43, .cls-44, .cls-45, .cls-46, .cls-47, .cls-48, .cls-49, .cls-50, .cls-51, .cls-52, .cls-53, .cls-54, .cls-55, .cls-56, .cls-57, .cls-58, .cls-59, .cls-60 {
        stroke-width: 0px;
      }

      .cls-2 {
        fill: url(#linear-gradient-12);
      }

      .cls-3 {
        fill: url(#linear-gradient-17);
      }

      .cls-4 {
        fill: url(#linear-gradient-19);
      }

      .cls-5 {
        fill: url(#linear-gradient-33);
      }

      .cls-6 {
        fill: url(#linear-gradient);
      }

      .cls-7 {
        fill: url(#linear-gradient-21);
      }

      .cls-8 {
        fill: url(#linear-gradient-6);
      }

      .cls-61 {
        isolation: isolate;
      }

      .cls-9 {
        fill: url(#linear-gradient-42);
      }

      .cls-11 {
        fill: url(#New_Gradient_Swatch_copy_4-5);
      }

      .cls-12 {
        fill: url(#linear-gradient-15);
      }

      .cls-13 {
        fill: url(#linear-gradient-11);
      }

      .cls-14 {
        fill: url(#linear-gradient-5);
      }

      .cls-15 {
        fill: url(#linear-gradient-31);
      }

      .cls-16 {
        fill: url(#linear-gradient-34);
      }

      .cls-17 {
        fill: url(#New_Gradient_Swatch_copy_4-4);
      }

      .cls-18 {
        fill: url(#linear-gradient-41);
      }

      .cls-19 {
        fill: url(#linear-gradient-40);
      }

      .cls-20 {
        fill: url(#linear-gradient-13);
      }

      .cls-21 {
        fill: url(#linear-gradient-23);
      }

      .cls-22 {
        fill: url(#linear-gradient-25);
      }

      .cls-23 {
        fill: url(#linear-gradient-43);
      }

      .cls-24 {
        fill: url(#linear-gradient-16);
      }

      .cls-25 {
        fill: url(#linear-gradient-22);
      }

      .cls-26 {
        fill: #fff;
      }

      .cls-27 {
        fill: url(#linear-gradient-35);
      }

      .cls-28 {
        fill: url(#linear-gradient-50);
      }

      .cls-29 {
        fill: url(#linear-gradient-32);
      }

      .cls-30 {
        fill: url(#linear-gradient-20);
      }

      .cls-31 {
        fill: url(#linear-gradient-14);
      }

      .cls-32 {
        fill: url(#linear-gradient-2);
      }

      .cls-33 {
        fill: url(#linear-gradient-45);
      }

      .cls-34 {
        fill: url(#linear-gradient-7);
      }

      .cls-35 {
        fill: url(#linear-gradient-39);
      }

      .cls-36 {
        fill: url(#linear-gradient-3);
      }

      .cls-37 {
        fill: url(#linear-gradient-9);
      }

      .cls-38 {
        fill: url(#linear-gradient-27);
      }

      .cls-62 {
        mix-blend-mode: overlay;
        opacity: .3;
      }

      .cls-39 {
        fill: url(#New_Gradient_Swatch_copy_4);
      }

      .cls-40 {
        fill: url(#linear-gradient-36);
      }

      .cls-41 {
        fill: url(#linear-gradient-48);
      }

      .cls-42 {
        fill: url(#linear-gradient-49);
      }

      .cls-43 {
        fill: url(#linear-gradient-8);
      }

      .cls-44 {
        fill: url(#linear-gradient-47);
      }

      .cls-45 {
        fill: url(#linear-gradient-24);
      }

      .cls-46 {
        fill: url(#linear-gradient-26);
      }

      .cls-47 {
        fill: url(#linear-gradient-18);
      }

      .cls-48 {
        fill: url(#New_Gradient_Swatch_copy_4-2);
      }

      .cls-49 {
        fill: #1d1c1c;
      }

      .cls-50 {
        fill: url(#linear-gradient-51);
      }

      .cls-51 {
        fill: url(#linear-gradient-30);
      }

      .cls-52 {
        fill: url(#linear-gradient-44);
      }

      .cls-53 {
        fill: url(#linear-gradient-29);
      }

      .cls-54 {
        fill: url(#linear-gradient-46);
      }

      .cls-55 {
        fill: url(#linear-gradient-28);
      }

      .cls-56 {
        fill: url(#linear-gradient-10);
      }

      .cls-57 {
        fill: url(#New_Gradient_Swatch_copy_4-3);
      }

      .cls-58 {
        fill: url(#linear-gradient-4);
      }

      .cls-59 {
        fill: #fbfcfa;
      }

      .cls-60 {
        fill: url(#linear-gradient-37);
      }
    </style>
    <linearGradient id="linear-gradient" x1="632.72" y1="1100.38" x2="95.79" y2="1292.14" gradientUnits="userSpaceOnUse">
      <stop offset="0" stop-color="#4e4c4b"/>
      <stop offset=".11" stop-color="#cac9cd"/>
      <stop offset=".25" stop-color="#f4f7f2"/>
      <stop offset=".41" stop-color="#cac9cd"/>
      <stop offset=".74" stop-color="#f4f7f2"/>
      <stop offset=".85" stop-color="#cac9cd"/>
      <stop offset=".91" stop-color="#a7a8a9"/>
      <stop offset=".93" stop-color="#979898"/>
      <stop offset=".97" stop-color="#706f6f"/>
      <stop offset="1" stop-color="#4c4a49"/>
    </linearGradient>
    <linearGradient id="New_Gradient_Swatch_copy_4" data-name="New Gradient Swatch copy 4" x1="16.61" y1="1283.3" x2="612.98" y2="1115.99" gradientUnits="userSpaceOnUse">
      <stop offset="0" stop-color="#a29575"/>
      <stop offset=".27" stop-color="#e7e2cc"/>
      <stop offset=".36" stop-color="#e9e4d0"/>
      <stop offset=".46" stop-color="#f0ecde"/>
      <stop offset=".52" stop-color="#f6f3ea"/>
      <stop offset=".82" stop-color="#e3d5bb"/>
      <stop offset=".86" stop-color="#d5c6aa"/>
      <stop offset=".93" stop-color="#b1a081"/>
      <stop offset="1" stop-color="#8b7955"/>
    </linearGradient>
    <linearGradient id="linear-gradient-2" x1="306.45" y1="1130.25" x2="653.8" y2="1130.25" xlink:href="#linear-gradient"/>
    <linearGradient id="New_Gradient_Swatch_copy_4-2" data-name="New Gradient Swatch copy 4" x1="305.27" y1="1127.23" x2="653.8" y2="1127.23" xlink:href="#New_Gradient_Swatch_copy_4"/>
    <linearGradient id="linear-gradient-3" x1="8194.74" y1="1100.38" x2="7657.82" y2="1292.14" gradientTransform="translate(9474.64) rotate(-180) scale(1 -1)" xlink:href="#linear-gradient"/>
    <linearGradient id="New_Gradient_Swatch_copy_4-3" data-name="New Gradient Swatch copy 4" x1="7578.64" y1="1283.3" x2="8175.01" y2="1115.99" gradientTransform="translate(9474.64) rotate(-180) scale(1 -1)" xlink:href="#New_Gradient_Swatch_copy_4"/>
    <linearGradient id="linear-gradient-4" x1="7868.48" y1="1130.25" x2="8215.83" y2="1130.25" gradientTransform="translate(9474.64) rotate(-180) scale(1 -1)" xlink:href="#linear-gradient"/>
    <linearGradient id="New_Gradient_Swatch_copy_4-4" data-name="New Gradient Swatch copy 4" x1="7867.3" y1="1127.23" x2="8215.83" y2="1127.23" gradientTransform="translate(9474.64) rotate(-180) scale(1 -1)" xlink:href="#New_Gradient_Swatch_copy_4"/>
    <linearGradient id="linear-gradient-5" x1="2490.02" y1="974.14" x2="1083.59" y2="-558.4" gradientUnits="userSpaceOnUse">
      <stop offset=".06" stop-color="#a29575"/>
      <stop offset=".23" stop-color="#8b7955"/>
      <stop offset=".69" stop-color="#e7e2cc"/>
      <stop offset=".74" stop-color="#e3ddc7"/>
      <stop offset=".8" stop-color="#d8d1b9"/>
      <stop offset=".86" stop-color="#c6bda2"/>
      <stop offset=".93" stop-color="#ada081"/>
      <stop offset=".99" stop-color="#8d7c58"/>
      <stop offset="1" stop-color="#8b7955"/>
    </linearGradient>
    <linearGradient id="linear-gradient-6" x1="2473.95" y1="988.89" x2="1067.52" y2="-543.65" xlink:href="#linear-gradient-5"/>
    <linearGradient id="linear-gradient-7" x1="2522.24" y1="944.58" x2="1115.8" y2="-587.96" xlink:href="#linear-gradient-5"/>
    <linearGradient id="linear-gradient-8" x1="2466.73" y1="995.52" x2="1060.29" y2="-537.02" xlink:href="#linear-gradient-5"/>
    <linearGradient id="linear-gradient-9" x1="2519.91" y1="946.71" x2="1113.48" y2="-585.83" xlink:href="#linear-gradient-5"/>
    <linearGradient id="linear-gradient-10" x1="2447.94" y1="1012.76" x2="1041.51" y2="-519.78" xlink:href="#linear-gradient-5"/>
    <linearGradient id="linear-gradient-11" x1="2504.35" y1="960.99" x2="1097.92" y2="-571.55" xlink:href="#linear-gradient-5"/>
    <linearGradient id="linear-gradient-12" x1="2417.02" y1="1041.13" x2="1010.59" y2="-491.41" xlink:href="#linear-gradient-5"/>
    <linearGradient id="linear-gradient-13" x1="2476.99" y1="986.1" x2="1070.56" y2="-546.44" xlink:href="#linear-gradient-5"/>
    <linearGradient id="linear-gradient-14" x1="2367.41" y1="1086.66" x2="960.98" y2="-445.88" xlink:href="#linear-gradient-5"/>
    <linearGradient id="linear-gradient-15" x1="2430.19" y1="1029.06" x2="1023.75" y2="-503.49" xlink:href="#linear-gradient-5"/>
    <linearGradient id="linear-gradient-16" x1="2307.55" y1="1141.6" x2="901.12" y2="-390.95" xlink:href="#linear-gradient-5"/>
    <linearGradient id="linear-gradient-17" x1="2362.3" y1="1091.36" x2="955.87" y2="-441.19" xlink:href="#linear-gradient-5"/>
    <linearGradient id="linear-gradient-18" x1="2231.6" y1="1211.3" x2="825.17" y2="-321.24" xlink:href="#linear-gradient-5"/>
    <linearGradient id="linear-gradient-19" x1="2281.69" y1="1165.34" x2="875.25" y2="-367.21" xlink:href="#linear-gradient-5"/>
    <linearGradient id="linear-gradient-20" x1="2143.93" y1="1291.76" x2="737.5" y2="-240.79" xlink:href="#linear-gradient-5"/>
    <linearGradient id="linear-gradient-21" x1="2181.68" y1="1257.12" x2="775.24" y2="-275.43" xlink:href="#linear-gradient-5"/>
    <linearGradient id="linear-gradient-22" x1="2180.56" y1="1258.14" x2="774.13" y2="-274.41" xlink:href="#linear-gradient-5"/>
    <linearGradient id="linear-gradient-23" x1="-977.64" y1="862.66" x2="1256.75" y2="-565.7" xlink:href="#linear-gradient-5"/>
    <linearGradient id="linear-gradient-24" x1="-952.7" y1="901.68" x2="1281.69" y2="-526.69" xlink:href="#linear-gradient-5"/>
    <linearGradient id="linear-gradient-25" x1="-987.98" y1="846.49" x2="1246.41" y2="-581.88" xlink:href="#linear-gradient-5"/>
    <linearGradient id="linear-gradient-26" x1="-936.68" y1="926.74" x2="1297.71" y2="-501.62" xlink:href="#linear-gradient-5"/>
    <linearGradient id="linear-gradient-27" x1="-973.92" y1="868.48" x2="1260.47" y2="-559.88" xlink:href="#linear-gradient-5"/>
    <linearGradient id="linear-gradient-28" x1="-911.18" y1="966.62" x2="1323.21" y2="-461.74" xlink:href="#linear-gradient-5"/>
    <linearGradient id="linear-gradient-29" x1="-948.38" y1="908.43" x2="1286.01" y2="-519.93" xlink:href="#linear-gradient-5"/>
    <linearGradient id="linear-gradient-30" x1="-877.45" y1="1019.38" x2="1356.94" y2="-408.98" xlink:href="#linear-gradient-5"/>
    <linearGradient id="linear-gradient-31" x1="-915.49" y1="959.87" x2="1318.89" y2="-468.49" xlink:href="#linear-gradient-5"/>
    <linearGradient id="linear-gradient-32" x1="-829.45" y1="1094.48" x2="1404.94" y2="-333.89" xlink:href="#linear-gradient-5"/>
    <linearGradient id="linear-gradient-33" x1="-867.64" y1="1034.73" x2="1366.75" y2="-393.63" xlink:href="#linear-gradient-5"/>
    <linearGradient id="linear-gradient-34" x1="-777.3" y1="1176.05" x2="1457.09" y2="-252.31" xlink:href="#linear-gradient-5"/>
    <linearGradient id="linear-gradient-35" x1="-806.37" y1="1130.57" x2="1428.02" y2="-297.79" xlink:href="#linear-gradient-5"/>
    <linearGradient id="linear-gradient-36" x1="-716.29" y1="1271.49" x2="1518.1" y2="-156.87" xlink:href="#linear-gradient-5"/>
    <linearGradient id="linear-gradient-37" x1="-739.36" y1="1235.4" x2="1495.03" y2="-192.96" xlink:href="#linear-gradient-5"/>
    <linearGradient id="linear-gradient-38" x1="-650.11" y1="1375.01" x2="1584.28" y2="-53.35" xlink:href="#linear-gradient-5"/>
    <linearGradient id="linear-gradient-39" x1="-661.23" y1="1357.61" x2="1573.15" y2="-70.75" xlink:href="#linear-gradient-5"/>
    <linearGradient id="linear-gradient-40" x1="-711.61" y1="1278.81" x2="1522.78" y2="-149.55" xlink:href="#linear-gradient-5"/>
    <linearGradient id="linear-gradient-41" x1="617.42" y1="-13.86" x2="637.98" y2="868.25" xlink:href="#linear-gradient-5"/>
    <linearGradient id="linear-gradient-42" x1="1152.11" y1="-26.32" x2="1172.67" y2="855.78" xlink:href="#linear-gradient-5"/>
    <linearGradient id="linear-gradient-43" x1="427.02" y1="131.59" x2="828.66" y2="878.67" gradientUnits="userSpaceOnUse">
      <stop offset="0" stop-color="#a29575"/>
      <stop offset=".27" stop-color="#e7e2cc"/>
      <stop offset=".54" stop-color="#e5dec7"/>
      <stop offset=".82" stop-color="#e3d5bb"/>
      <stop offset=".86" stop-color="#d5c6aa"/>
      <stop offset=".93" stop-color="#b1a081"/>
      <stop offset="1" stop-color="#8b7955"/>
    </linearGradient>
    <linearGradient id="linear-gradient-44" x1="599.19" y1="32.89" x2="1450.45" y2="725.14" xlink:href="#linear-gradient-43"/>
    <linearGradient id="linear-gradient-45" x1="1429.87" y1="110.24" x2="1429.87" y2="221.29" gradientUnits="userSpaceOnUse">
      <stop offset=".06" stop-color="#a29575"/>
      <stop offset=".23" stop-color="#8b7955"/>
      <stop offset=".69" stop-color="#b5b1a0"/>
      <stop offset=".76" stop-color="#b2ad9b"/>
      <stop offset=".83" stop-color="#aaa38d"/>
      <stop offset=".91" stop-color="#9d9176"/>
      <stop offset="1" stop-color="#8b7956"/>
      <stop offset="1" stop-color="#8b7955"/>
    </linearGradient>
    <linearGradient id="linear-gradient-46" x1="1519.98" y1="110.24" x2="1519.98" y2="221.29" gradientUnits="userSpaceOnUse">
      <stop offset=".06" stop-color="#a29575"/>
      <stop offset=".23" stop-color="#8b7955"/>
      <stop offset=".69" stop-color="#c7c3b0"/>
      <stop offset=".75" stop-color="#c3bfab"/>
      <stop offset=".82" stop-color="#bab39d"/>
      <stop offset=".89" stop-color="#aba186"/>
      <stop offset=".97" stop-color="#968666"/>
      <stop offset="1" stop-color="#8b7955"/>
    </linearGradient>
    <linearGradient id="linear-gradient-47" x1="1429.76" y1="110.38" x2="1429.76" y2="291.71" xlink:href="#linear-gradient-43"/>
    <linearGradient id="linear-gradient-48" x1="1519.98" y1="110.38" x2="1519.98" y2="291.71" xlink:href="#linear-gradient-43"/>
    <linearGradient id="linear-gradient-49" x1="1388.89" y1="129.95" x2="1497.37" y2="265.77" xlink:href="#linear-gradient-43"/>
    <linearGradient id="linear-gradient-50" x1="1581.03" y1="254.11" x2="1417.57" y2="85.5" xlink:href="#linear-gradient-43"/>
    <linearGradient id="linear-gradient-51" x1="1648.34" y1="1029.8" x2="321.82" y2="1029.8" gradientUnits="userSpaceOnUse">
      <stop offset="0" stop-color="#4e4c4b"/>
      <stop offset=".11" stop-color="#cac9cd"/>
      <stop offset=".25" stop-color="#f4f7f2"/>
      <stop offset=".38" stop-color="#cac9cd"/>
      <stop offset=".66" stop-color="#f4f7f2"/>
      <stop offset=".85" stop-color="#cac9cd"/>
      <stop offset=".91" stop-color="#a7a8a9"/>
      <stop offset=".93" stop-color="#979898"/>
      <stop offset=".97" stop-color="#706f6f"/>
      <stop offset="1" stop-color="#4c4a49"/>
    </linearGradient>
    <linearGradient id="New_Gradient_Swatch_copy_4-5" data-name="New Gradient Swatch copy 4" x1="67.16" y1="1035.66" x2="1808.06" y2="1021.96" xlink:href="#New_Gradient_Swatch_copy_4"/>
  </defs>
  <g class="cls-61">
    <g id="Layer_1" data-name="Layer 1">
      <g>
        <g>
          <g>
            <path class="cls-6" d="m653.49,1238.01c-4.77,30.02-73.57,54.16-231.95,56.86-173.34,2.95-263.92,80.37-263.92,80.37,0,0,28.37-116.6,91.35-168.85,0,0-55.43-50.81-142.68-78.52,0,0,129.22-55.41,256.61-87.76,129.33-32.85,209.91-43.37,209.91-43.37l33.74,176.1s46.21,36.55,46.93,65.18Z"/>
            <path class="cls-39" d="m653.8,1235.9c-4.77,30.02-73.89,50.63-232.26,53.32-173.34,2.95-263.92,86.02-263.92,86.02,0,0,28.37-122.25,91.35-174.5,0,0-55.43-45.16-142.68-72.88,0,0,129.22-61.05,256.61-93.41,129.33-32.85,209.91-43.37,209.91-43.37l33.74,176.1s46.52,40.08,47.24,68.71Z"/>
            <path class="cls-32" d="m306.45,1227.43s5.67,42.34,138.57-12.3c185.97-76.47,208.63,23.87,208.63,23.87,0,0,6.93-131.64-73.93-221.57,0,0-260.7,142.23-273.27,210.01Z"/>
            <path class="cls-48" d="m305.27,1231.31s6.85,33.83,139.75-20.82c185.97-76.47,208.63,23.87,208.63,23.87,0,0,6.93-131.64-73.93-221.57,0,0-261.88,150.74-274.45,218.52Z"/>
          </g>
          <g>
            <path class="cls-36" d="m1259.13,1238.01c4.77,30.02,73.57,54.16,231.95,56.86,173.34,2.95,263.92,80.37,263.92,80.37,0,0-28.37-116.6-91.35-168.85,0,0,55.43-50.81,142.68-78.52,0,0-129.22-55.41-256.61-87.76-129.33-32.85-209.91-43.37-209.91-43.37l-33.74,176.1s-46.21,36.55-46.93,65.18Z"/>
            <path class="cls-57" d="m1258.82,1235.9c4.77,30.02,73.89,50.63,232.26,53.32,173.34,2.95,263.92,86.02,263.92,86.02,0,0-28.37-122.25-91.35-174.5,0,0,55.43-45.16,142.68-72.88,0,0-129.22-61.05-256.61-93.41-129.33-32.85-209.91-43.37-209.91-43.37l-33.74,176.1s-46.52,40.08-47.24,68.71Z"/>
            <path class="cls-58" d="m1606.16,1227.43s-5.67,42.34-138.57-12.3c-185.97-76.47-208.63,23.87-208.63,23.87,0,0-6.93-131.64,73.93-221.57,0,0,260.7,142.23,273.27,210.01Z"/>
            <path class="cls-17" d="m1607.34,1231.31s-6.85,33.83-139.75-20.82c-185.97-76.47-208.63,23.87-208.63,23.87,0,0-6.93-131.64,73.93-221.57,0,0,261.88,150.74,274.45,218.52Z"/>
          </g>
        </g>
        <g>
          <g>
            <path class="cls-14" d="m1662.48,54.75c-5.28-27.51-42.3-56.9-87.12-54.63,5.41,20.47,54.46,59.81,87.12,54.63Z"/>
            <path class="cls-8" d="m1723.06,122.09c-16.23-22.84-62.11-34.19-101.94-13.5,13.42,16.37,74.38,31.78,101.94,13.5Z"/>
            <path class="cls-34" d="m1714.71,113.9c-21.16-18.36-28.02-65.13-3.58-102.77,15,14.94,24.44,77.11,3.58,102.77Z"/>
            <path class="cls-43" d="m1772.83,196.78c-13.93-27.26-61.73-46.8-108.06-30.75,11.92,19.82,75.38,46.14,108.06,30.75Z"/>
            <path class="cls-37" d="m1764.74,186.43c-19.97-23.2-19.98-74.85,12.41-111.67,13.84,18.53,14.21,87.23-12.41,111.67Z"/>
            <path class="cls-56" d="m1812.89,291.21c-9.26-32.05-56.36-62.85-109.25-55.26,8.64,23.67,71.09,64.97,109.25,55.26Z"/>
            <path class="cls-13" d="m1808.38,280.89c-16.56-28.95-5.88-84.21,36.39-116.9,10.98,22.69-2.86,96.27-36.39,116.9Z"/>
            <path class="cls-2" d="m1835.63,392.53c-4.07-36.47-49.41-78.65-108.18-80.27,4.97,27.28,65,83.69,108.18,80.27Z"/>
            <path class="cls-20" d="m1834.88,379.77c-12.57-34.48,9.3-92.41,61.23-119.99,7.68,26.65-21.02,103.86-61.23,119.99Z"/>
            <path class="cls-31" d="m1842.77,519.25c3.35-41.21-37.7-97.6-102.34-112.05-.38,31.24,53.85,106.54,102.34,112.05Z"/>
            <path class="cls-12" d="m1844.26,501.3c-6.47-40.83,30.18-100.19,93.54-119.5,2.75,31.12-45.61,110.32-93.54,119.5Z"/>
            <path class="cls-24" d="m1822.07,641.21c13.23-42.4-16.51-111.19-80.85-141.58-7.76,32.65,31.33,124.36,80.85,141.58Z"/>
            <path class="cls-3" d="m1825.09,626.35c2.84-44.33,55.25-97.9,126.21-103.21-4.45,33.27-73.81,104.88-126.21,103.21Z"/>
            <path class="cls-47" d="m1776.63,762.59c20.62-42.4.34-119.33-62.37-161.44-13.34,33.04,13.13,135.51,62.37,161.44Z"/>
            <path class="cls-4" d="m1782.36,746.48c10.03-46.07,73.55-93.97,148.87-88.28-9.96,34.21-94.13,98.36-148.87,88.28Z"/>
            <path class="cls-30" d="m1700.83,876.73c28.52-41.69,19.13-126.39-40.69-180.88-19.33,32.91-7.41,145.65,40.69,180.88Z"/>
            <path class="cls-7" d="m1707.46,868.94c17.87-47.24,92.72-88,171.63-70.11-15.93,34.68-115.22,89.41-171.63,70.11Z"/>
          </g>
          <path class="cls-25" d="m1410.88,1064.82c101.3-29.94,193.09-88.66,263.64-166.09,71.05-77.09,120.75-173.02,143.77-274.74,23.41-101.79,19.16-208.67-8.9-308.58-27.46-100.35-82.16-192.94-156.54-267.89l1.37-1.52c82.9,66.71,143.03,161.11,174.81,263.63,31.8,103.01,31.44,214.6,5.19,318.18-25.65,103.93-78.45,200.93-152.23,277.92-73.79,76.89-168.16,133.65-270.56,161.06l-.55-1.97Z"/>
        </g>
        <g>
          <g>
            <path class="cls-21" d="m288.82,54.75C294.09,27.24,331.12-2.15,375.94.12c-5.41,20.47-54.46,59.81-87.12,54.63Z"/>
            <path class="cls-45" d="m228.24,122.09c16.23-22.84,62.11-34.19,101.94-13.5-13.42,16.37-74.38,31.78-101.94,13.5Z"/>
            <path class="cls-22" d="m236.6,113.9c21.16-18.36,28.02-65.13,3.58-102.77-15,14.94-24.44,77.11-3.58,102.77Z"/>
            <path class="cls-46" d="m178.47,196.78c13.93-27.26,61.73-46.8,108.06-30.75-11.92,19.82-75.38,46.14-108.06,30.75Z"/>
            <path class="cls-38" d="m186.56,186.43c19.97-23.2,19.98-74.85-12.41-111.67-13.84,18.53-14.21,87.23,12.41,111.67Z"/>
            <path class="cls-55" d="m138.41,291.21c9.26-32.05,56.36-62.85,109.25-55.26-8.64,23.67-71.09,64.97-109.25,55.26Z"/>
            <path class="cls-53" d="m142.92,280.89c16.56-28.95,5.88-84.21-36.39-116.9-10.98,22.69,2.86,96.27,36.39,116.9Z"/>
            <path class="cls-51" d="m115.67,392.53c4.07-36.47,49.41-78.65,108.18-80.27-4.97,27.28-65,83.69-108.18,80.27Z"/>
            <path class="cls-15" d="m116.42,379.77c12.57-34.48-9.3-92.41-61.23-119.99-7.68,26.65,21.02,103.86,61.23,119.99Z"/>
            <path class="cls-29" d="m108.54,519.25c-3.35-41.21,37.7-97.6,102.34-112.05.38,31.24-53.85,106.54-102.34,112.05Z"/>
            <path class="cls-5" d="m107.04,501.3c6.47-40.83-30.18-100.19-93.54-119.5-2.75,31.12,45.61,110.32,93.54,119.5Z"/>
            <path class="cls-16" d="m129.23,641.21c-13.23-42.4,16.51-111.19,80.85-141.58,7.76,32.65-31.33,124.36-80.85,141.58Z"/>
            <path class="cls-27" d="m126.21,626.35c-2.84-44.33-55.25-97.9-126.21-103.21,4.45,33.27,73.81,104.88,126.21,103.21Z"/>
            <path class="cls-40" d="m174.67,762.59c-20.62-42.4-.34-119.33,62.37-161.44,13.34,33.04-13.13,135.51-62.37,161.44Z"/>
            <path class="cls-60" d="m168.94,746.48c-10.03-46.07-73.55-93.97-148.87-88.28,9.96,34.21,94.13,98.36,148.87,88.28Z"/>
            <path class="cls-1" d="m250.47,876.73c-28.52-41.69-19.13-126.39,40.69-180.88,19.33,32.91,7.41,145.65-40.69,180.88Z"/>
            <path class="cls-35" d="m243.85,868.94c-17.87-47.24-92.72-88-171.63-70.11,15.93,34.68,115.22,89.41,171.63,70.11Z"/>
          </g>
          <path class="cls-19" d="m539.87,1066.79c-102.4-27.41-196.77-84.17-270.56-161.06-73.78-76.99-126.58-174-152.23-277.92-26.25-103.59-26.61-215.17,5.19-318.18,31.78-102.52,91.91-196.92,174.81-263.63l1.37,1.52c-74.38,74.95-129.08,167.53-156.54,267.89-28.07,99.92-32.31,206.8-8.9,308.58,23.02,101.73,72.72,197.65,143.77,274.74,70.56,77.43,162.35,136.14,263.64,166.09l-.55,1.97Z"/>
        </g>
        <g>
          <g>
            <path class="cls-59" d="m496.5,852.32c-31.22-14.54-55.91-34.23-74.09-59.09-18.18-24.84-27.27-52.72-27.27-83.63,0-24.84,6.96-44.39,20.91-58.63,13.93-14.23,30.6-21.36,50-21.36,18.18,0,33.93,5.77,47.27,17.27,13.32,11.52,20,28.18,20,50-32.13,15.77-48.18,40-48.18,72.73,0,24.86,10.45,45,31.36,60.45,20.91,15.45,48.63,23.18,83.18,23.18,43.63,0,79.09-16.36,106.36-49.09,27.27-32.73,40.91-78.48,40.91-137.27,0-63.63-18.18-112.87-54.54-147.72-36.36-34.84-90-54.39-160.9-58.63v-20c63.63-3.63,113.18-20.75,148.63-51.36,35.45-30.6,53.18-71.96,53.18-124.09,0-40.59-11.06-73.02-33.18-97.27-22.13-24.23-51.67-36.36-88.63-36.36-33.34,0-59.54,5.61-78.63,16.82-19.09,11.22-28.64,26.82-28.64,46.82,0,32.13,15.14,55.16,45.45,69.09,0,20.61-6.22,36.52-18.64,47.73-12.43,11.22-27.43,16.82-45,16.82s-33.95-6.96-47.27-20.91c-13.34-13.93-20-32.41-20-55.45,0-27.27,9.39-51.66,28.18-73.18,18.78-21.5,43.78-38.32,75-50.45,31.21-12.11,64.39-18.18,99.54-18.18,69.09,0,123.02,13.95,161.81,41.82,38.78,27.88,58.18,66.97,58.18,117.27s-18.95,93.49-56.82,122.27c-37.88,28.79-92.88,48.04-164.99,57.73v2.73c75.75,3.63,136.81,23.79,183.17,60.45,46.36,36.67,69.54,88.04,69.54,154.09,0,36.97-10.16,71.22-30.45,102.72-20.31,31.52-50.91,56.82-91.81,75.9-40.91,19.09-91.06,28.64-150.45,28.64-37.59,0-71.97-7.27-103.18-21.82Z"/>
            <path class="cls-59" d="m1026.01,831.42c-39.4-28.48-70-71.36-91.81-128.63-21.82-57.27-32.73-127.41-32.73-210.45s10.91-153.18,32.73-210.45,52.41-100.14,91.81-128.63c39.39-28.48,85.45-42.72,138.18-42.72s98.77,14.25,138.18,42.72c39.39,28.49,70,71.36,91.81,128.63,21.82,57.27,32.73,127.42,32.73,210.45s-10.91,153.18-32.73,210.45c-21.82,57.27-52.43,100.15-91.81,128.63-39.4,28.48-85.45,42.72-138.18,42.72s-98.79-14.25-138.18-42.72Zm245.44-44.55c26.05-44.23,39.09-113.32,39.09-207.26v-175.45c0-93.32-13.04-162.11-39.09-206.35-26.06-44.23-61.82-66.36-107.27-66.36s-81.22,22.13-107.27,66.36c-26.06,44.24-39.09,113.03-39.09,206.35v175.45c0,93.33,13.02,162.27,39.09,206.81,26.05,44.55,61.82,66.82,107.27,66.82s81.2-22.12,107.27-66.36Z"/>
          </g>
          <g>
            <path class="cls-18" d="m496.5,852.33c-31.22-14.54-55.9-34.23-74.08-59.09-18.19-24.84-27.27-52.73-27.27-83.63,0-24.84,6.96-44.39,20.9-58.63,13.94-14.23,30.6-21.36,50-21.36,18.18,0,33.93,5.77,47.27,17.28,13.33,11.52,20,28.18,20,49.99-32.13,15.77-48.18,40-48.18,72.73,0,24.86,10.46,45,31.36,60.45,20.9,15.45,48.64,23.19,83.18,23.19,43.64,0,79.09-16.37,106.36-49.09,27.27-32.72,40.91-78.48,40.91-137.27,0-63.63-18.18-112.86-54.54-147.72-36.37-34.84-90-54.38-160.9-58.63v-19.99c63.63-3.64,113.17-20.76,148.62-51.36,35.46-30.6,53.18-71.96,53.18-124.09,0-40.6-11.06-73.02-33.18-97.27-22.13-24.23-51.67-36.36-88.63-36.36-33.33,0-59.54,5.61-78.63,16.82-19.09,11.22-28.64,26.81-28.64,46.82,0,32.13,15.14,55.15,45.45,69.09,0,20.61-6.22,36.52-18.64,47.72-12.43,11.23-27.43,16.82-44.99,16.82s-33.95-6.96-47.28-20.9c-13.34-13.94-19.99-32.41-19.99-55.45,0-27.27,9.38-51.66,28.18-73.18,18.78-21.5,43.78-38.32,75-50.45,31.21-12.12,64.38-18.19,99.54-18.19,69.08,0,123.02,13.95,161.81,41.82,38.77,27.88,58.18,66.97,58.18,117.27s-18.95,93.49-56.81,122.27c-37.89,28.79-92.88,48.04-165,57.72v2.73c75.75,3.64,136.81,23.79,183.18,60.46,46.36,36.67,69.54,88.03,69.54,154.08,0,36.97-10.16,71.22-30.46,102.73-20.31,31.52-50.9,56.81-91.81,75.9-40.91,19.09-91.06,28.64-150.45,28.64-37.58,0-71.97-7.27-103.18-21.82Z"/>
            <path class="cls-9" d="m1026.02,831.43c-39.4-28.48-70-71.36-91.82-128.64-21.82-57.26-32.72-127.41-32.72-210.44s10.91-153.18,32.72-210.45c21.82-57.26,52.41-100.13,91.82-128.63,39.38-28.48,85.45-42.73,138.17-42.73s98.77,14.25,138.17,42.73c39.39,28.5,69.99,71.36,91.82,128.63,21.82,57.27,32.72,127.43,32.72,210.45s-10.91,153.18-32.72,210.44c-21.82,57.27-52.43,100.16-91.82,128.64-39.4,28.47-85.45,42.72-138.17,42.72s-98.79-14.25-138.17-42.72Zm245.44-44.55c26.05-44.23,39.09-113.31,39.09-207.26v-175.45c0-93.32-13.04-162.11-39.09-206.35-26.06-44.23-61.81-66.36-107.26-66.36s-81.22,22.13-107.27,66.36c-26.06,44.25-39.08,113.03-39.08,206.35v175.45c0,93.33,13.03,162.26,39.08,206.81,26.05,44.54,61.82,66.82,107.27,66.82s81.21-22.12,107.26-66.37Z"/>
          </g>
          <g>
            <path class="cls-23" d="m599.67,865.74c-36.16,0-69.68-7.08-99.63-21.03-29.77-13.86-53.6-32.85-70.84-56.43-17.03-23.25-25.65-49.72-25.65-78.67,0-22.77,6.05-40.03,18.51-52.76,12.41-12.68,26.8-18.83,43.99-18.83,16.23,0,29.9,4.98,41.78,15.24,10.47,9.05,16.05,21.7,16.95,38.57-31.88,17.28-48.05,43.43-48.05,77.78,0,27.55,11.7,50.16,34.77,67.21,22.29,16.48,51.95,24.84,88.17,24.84,46.04,0,84-17.53,112.82-52.12,28.44-34.12,42.86-82.11,42.86-142.65,0-65.7-19.22-117.45-57.13-153.78-36.3-34.78-89.53-55.08-158.31-60.42v-4.28c61.5-4.69,110.49-22.45,145.71-52.87,37.22-32.12,56.1-76.01,56.1-130.45,0-42.57-11.9-77.2-35.38-102.94-23.7-25.94-55.61-39.1-94.85-39.1-34.69,0-62.57,6.05-82.89,17.98-21.75,12.78-32.79,30.97-32.79,54.06,0,33.72,15.24,58.67,45.31,74.27-.9,15.69-6.07,27.6-15.71,36.3-10.92,9.86-23.79,14.65-39.36,14.65s-29.43-5.99-41.19-18.3c-11.89-12.43-17.67-28.66-17.67-49.64,0-25.41,8.53-47.54,26.1-67.65,17.79-20.37,41.92-36.57,71.71-48.14,30.09-11.69,62.56-17.62,96.5-17.62,66.94,0,119.73,13.54,156.91,40.24,36.79,26.46,54.67,62.58,54.67,110.44,0,50.41-17.49,88.22-53.49,115.57-36.55,27.77-90.73,46.64-161.03,56.09l-7.29.98v18.09l8,.39c73.61,3.53,133.62,23.26,178.36,58.65,44.03,34.83,66.35,84.45,66.35,147.49,0,35.15-9.79,68.19-29.12,98.17-19.33,30.01-49.04,54.52-88.3,72.84-39.59,18.48-89.01,27.84-146.89,27.84Z"/>
            <path class="cls-52" d="m1164.2,865.74c-50.67,0-95.51-13.84-133.25-41.12-37.85-27.36-67.77-69.36-88.89-124.81-21.35-56.04-32.17-125.83-32.17-207.45s10.82-151.41,32.17-207.46c21.12-55.43,51.03-97.42,88.89-124.81,37.74-27.3,82.57-41.13,133.25-41.13s95.48,13.84,133.25,41.13c37.86,27.39,67.77,69.38,88.89,124.81,21.35,56.04,32.17,125.84,32.17,207.45s-10.82,151.41-32.17,207.45c-21.13,55.45-51.04,97.45-88.89,124.81-37.76,27.29-82.59,41.12-133.25,41.12Zm0-742.69c-48.44,0-86.97,23.72-114.51,70.5-26.71,45.34-40.25,116.21-40.25,210.62v175.45c0,94.41,13.54,165.42,40.24,211.05,27.55,47.1,66.08,70.98,114.53,70.98s86.95-23.72,114.51-70.51c26.71-45.35,40.26-116.52,40.26-211.52v-175.45c0-94.39-13.55-165.25-40.25-210.62-27.56-46.78-66.09-70.5-114.51-70.5Z"/>
          </g>
        </g>
        <g>
          <g>
            <path class="cls-59" d="m1420.26,230.1c-4.92-4.1-7.37-10.63-7.37-19.59v-67.16l-13.25-1.87v-3.73h13.25v-15.49l18.66-4.66v20.15h24.25v3.73l-24.25,1.87v66.79c0,13.19,4.72,19.78,14.18,19.78,1.99,0,3.89-.31,5.69-.93,1.8-.62,3.23-1.24,4.29-1.87,1.05-.62,1.71-1.05,1.96-1.31l2.43,2.98c-5.6,4.98-12.31,7.46-20.15,7.46s-14.77-2.05-19.68-6.16Z"/>
            <path class="cls-59" d="m1464.94,230.66l13.06-1.87V90.73l-13.06-1.87v-3.73h31.72v72.76c4.6-6.72,10.01-12.03,16.23-15.95,6.22-3.92,12.94-5.88,20.15-5.88,8.95,0,16.01,2.24,21.18,6.72,5.16,4.48,7.74,11.13,7.74,19.96v66.05l13.06,1.87v3.73h-42.91v-3.73l11.19-1.87v-65.67c0-6.47-1.31-11.48-3.92-15.02-2.61-3.54-6.65-5.32-12.13-5.32s-11.22,2.09-16.51,6.25c-5.29,4.17-9.98,9.3-14.08,15.39v64.37l11.19,1.87v3.73h-42.91v-3.73Z"/>
          </g>
          <g>
            <path class="cls-33" d="m1420.26,230.11c-4.91-4.1-7.37-10.64-7.37-19.59v-67.17l-13.25-1.87v-3.73h13.25v-15.49l18.65-4.66v20.15h24.25v3.73l-24.25,1.87v66.79c0,13.18,4.73,19.78,14.18,19.78,1.99,0,3.89-.31,5.69-.93,1.8-.62,3.23-1.24,4.29-1.87,1.06-.62,1.71-1.05,1.96-1.3l2.42,2.98c-5.6,4.98-12.31,7.47-20.15,7.47s-14.77-2.06-19.68-6.16Z"/>
            <path class="cls-54" d="m1464.95,230.67l13.06-1.87V90.74l-13.06-1.87v-3.73h31.72v72.76c4.6-6.71,10.01-12.03,16.23-15.95,6.21-3.92,12.93-5.87,20.15-5.87,8.95,0,16.01,2.23,21.18,6.71,5.15,4.48,7.74,11.13,7.74,19.96v66.05l13.06,1.87v3.73h-42.91v-3.73l11.2-1.87v-65.67c0-6.46-1.31-11.48-3.92-15.02-2.61-3.54-6.65-5.32-12.12-5.32s-11.23,2.09-16.51,6.25c-5.29,4.17-9.98,9.3-14.08,15.39v64.37l11.2,1.87v3.73h-42.92v-3.73Z"/>
          </g>
          <g>
            <path class="cls-44" d="m1439.95,233.94c-7.61,0-13.73-1.89-18.2-5.62-4.34-3.62-6.53-9.61-6.53-17.81v-69.18l-8.98-1.26h8.98v-16l14.01-3.5v19.5h14.71l-14.71,1.13v68.94c0,18.26,8.97,22.1,16.5,22.1,2.23,0,4.41-.36,6.45-1.06.38-.14.76-.27,1.11-.4-3.96,2.13-8.36,3.17-13.34,3.17Z"/>
            <path class="cls-41" d="m1537.74,232.08l7.89-1.32v-67.64c0-6.94-1.47-12.47-4.38-16.4-3.06-4.15-7.77-6.26-13.99-6.26-4.94,0-9.76,1.43-14.37,4.25.41-.27.83-.55,1.25-.81,5.8-3.66,12.17-5.51,18.91-5.51,8.34,0,14.95,2.06,19.66,6.14,4.67,4.06,6.94,10.01,6.94,18.21v68.06l8.87,1.27h-30.77Zm-66.29,0l8.88-1.27V88.73l-8.88-1.27h22.89v143.3l7.89,1.32h-30.78Z"/>
          </g>
          <g>
            <path class="cls-42" d="m1434.91,231.3c-4.74-.64-8.65-2.23-11.67-4.76-3.84-3.21-5.7-8.45-5.7-16.03v-84.63l9.37-2.34v86.6c0,11.73,3.6,17.94,8,21.16Z"/>
            <path class="cls-28" d="m1547.95,229.76v-66.63c0-7.45-1.63-13.43-4.83-17.77-1.28-1.74-2.81-3.18-4.57-4.29,5.19.7,9.44,2.45,12.64,5.23,4.13,3.59,6.14,8.97,6.14,16.46v67h-9.37Zm-65.3,0V89.78h9.37v139.97h-9.37Z"/>
          </g>
        </g>
        <g>
          <path class="cls-26" d="m562.66,1498.56v-1.56l5.44-.78v-57.55l-5.44-.78v-1.55h13.22v59.88l5.44.78v1.56h-18.66Z"/>
          <path class="cls-26" d="m646.07,1498.76c-2.57-.91-4.59-2.16-6.07-3.77-1.48-1.61-2.22-3.4-2.22-5.37,0-1.76.56-3.25,1.67-4.47,1.11-1.22,2.5-1.83,4.16-1.83,1.4,0,2.57.39,3.5,1.17.93.78,1.4,1.84,1.4,3.19-.78.62-1.34,1.24-1.67,1.87-.34.62-.5,1.38-.5,2.26,0,1.92.78,3.53,2.33,4.82,1.56,1.3,3.58,1.94,6.07,1.94,3.99,0,7.19-1.61,9.61-4.82,2.41-3.21,3.64-8.48,3.69-15.79v-8.71c-1.5,1.87-3.36,3.3-5.56,4.31-2.2,1.01-4.55,1.52-7.04,1.52-3.84,0-7.23-.78-10.19-2.33-2.96-1.56-5.26-3.81-6.92-6.77-1.66-2.95-2.49-6.51-2.49-10.66s.94-7.92,2.84-11c1.89-3.09,4.43-5.44,7.62-7.08,3.19-1.63,6.68-2.45,10.46-2.45,7.62,0,13.01,2.93,16.18,8.79s4.74,14.08,4.74,24.65-2.04,18.41-6.11,23.8c-4.07,5.39-9.68,8.09-16.84,8.09-3.22,0-6.11-.46-8.67-1.36Zm16.95-27.61c2.2-1.37,3.9-3.25,5.09-5.64l.08-10.81c.05-5.86-.87-10.36-2.76-13.49-1.9-3.14-4.78-4.71-8.67-4.71s-6.6,1.32-8.59,3.97c-2,2.64-3,6.3-3,10.97v7.62c0,4.51.89,8,2.68,10.46,1.79,2.46,4.5,3.7,8.13,3.7,2.49,0,4.83-.69,7.04-2.06Z"/>
          <path class="cls-26" d="m743.2,1498.76c-2.57-.91-4.59-2.16-6.07-3.77-1.48-1.61-2.22-3.4-2.22-5.37,0-1.76.56-3.25,1.67-4.47,1.11-1.22,2.5-1.83,4.16-1.83,1.4,0,2.57.39,3.5,1.17.93.78,1.4,1.84,1.4,3.19-.78.62-1.34,1.24-1.67,1.87-.34.62-.5,1.38-.5,2.26,0,1.92.78,3.53,2.33,4.82,1.56,1.3,3.58,1.94,6.07,1.94,3.99,0,7.19-1.61,9.61-4.82,2.41-3.21,3.64-8.48,3.69-15.79v-8.71c-1.5,1.87-3.36,3.3-5.56,4.31-2.2,1.01-4.55,1.52-7.04,1.52-3.84,0-7.23-.78-10.19-2.33-2.96-1.56-5.26-3.81-6.92-6.77-1.66-2.95-2.49-6.51-2.49-10.66s.94-7.92,2.84-11c1.89-3.09,4.43-5.44,7.62-7.08,3.19-1.63,6.68-2.45,10.46-2.45,7.62,0,13.01,2.93,16.18,8.79,3.16,5.86,4.74,14.08,4.74,24.65s-2.04,18.41-6.11,23.8-9.68,8.09-16.84,8.09c-3.22,0-6.11-.46-8.67-1.36Zm16.95-27.61c2.2-1.37,3.9-3.25,5.09-5.64l.08-10.81c.05-5.86-.87-10.36-2.76-13.49-1.9-3.14-4.78-4.71-8.67-4.71s-6.6,1.32-8.59,3.97c-2,2.64-3,6.3-3,10.97v7.62c0,4.51.89,8,2.68,10.46,1.79,2.46,4.5,3.7,8.13,3.7,2.49,0,4.83-.69,7.04-2.06Z"/>
          <path class="cls-26" d="m845.2,1498.56v-1.63l7.15-1.17v-12.13h-26.21v-1.63l32.97-45.65h1.79v43.63h7.16v3.66h-7.16v12.13l7.16,1.17v1.63h-22.87Zm-15.24-18.59h22.4v-31.03l-22.4,31.03Z"/>
          <path class="cls-26" d="m923.36,1478.58v-2.57h17.03v2.57h-17.03Z"/>
          <path class="cls-26" d="m991.96,1492.58l16.41-16.72c4.3-4.46,7.58-8.8,9.84-13.03,2.25-4.22,3.38-8.59,3.38-13.1s-.97-7.89-2.92-9.99c-1.94-2.1-4.58-3.15-7.89-3.15-2.59,0-4.85.7-6.77,2.1-1.92,1.4-2.88,3.24-2.88,5.52,0,2.75,1.37,4.8,4.12,6.14,0,1.87-.57,3.29-1.71,4.28-1.14.99-2.49,1.48-4.04,1.48-1.66,0-3.09-.61-4.28-1.83-1.19-1.22-1.79-2.89-1.79-5.01,0-2.8.86-5.3,2.57-7.5,1.71-2.2,3.99-3.91,6.84-5.13,2.85-1.22,5.91-1.83,9.18-1.83,6.33,0,11.01,1.49,14.08,4.47,3.06,2.98,4.59,6.91,4.59,11.78,0,2.95-.61,5.67-1.83,8.13-1.22,2.46-2.67,4.6-4.36,6.42s-3.98,3.99-6.88,6.53l-2.18,1.87-18.59,16.41h29.01l3.19-11.51h2.02v19.68h-39.12v-5.99Z"/>
          <path class="cls-26" d="m1098.58,1496.46c-3.37-2.44-5.99-6.1-7.85-11-1.87-4.9-2.8-10.9-2.8-18s.93-13.1,2.8-18c1.87-4.9,4.48-8.57,7.85-11.01,3.37-2.44,7.31-3.66,11.82-3.66s8.45,1.22,11.82,3.66c3.37,2.44,5.99,6.11,7.85,11.01s2.8,10.9,2.8,18-.93,13.1-2.8,18-4.48,8.57-7.85,11c-3.37,2.44-7.31,3.66-11.82,3.66s-8.45-1.22-11.82-3.66Zm21-3.81c2.23-3.78,3.35-9.69,3.35-17.73v-15.01c0-7.98-1.12-13.87-3.35-17.65-2.23-3.78-5.29-5.68-9.18-5.68s-6.95,1.89-9.18,5.68c-2.23,3.79-3.34,9.67-3.34,17.65v15.01c0,7.99,1.11,13.88,3.34,17.69,2.23,3.81,5.29,5.72,9.18,5.72s6.95-1.89,9.18-5.68Z"/>
          <path class="cls-26" d="m1187.09,1492.58l16.41-16.72c4.3-4.46,7.58-8.8,9.84-13.03,2.25-4.22,3.38-8.59,3.38-13.1s-.97-7.89-2.92-9.99c-1.94-2.1-4.58-3.15-7.89-3.15-2.59,0-4.85.7-6.77,2.1-1.92,1.4-2.88,3.24-2.88,5.52,0,2.75,1.37,4.8,4.12,6.14,0,1.87-.57,3.29-1.71,4.28-1.14.99-2.49,1.48-4.04,1.48-1.66,0-3.09-.61-4.28-1.83-1.19-1.22-1.79-2.89-1.79-5.01,0-2.8.86-5.3,2.57-7.5,1.71-2.2,3.99-3.91,6.84-5.13,2.85-1.22,5.91-1.83,9.18-1.83,6.33,0,11.01,1.49,14.08,4.47,3.06,2.98,4.59,6.91,4.59,11.78,0,2.95-.61,5.67-1.83,8.13-1.22,2.46-2.67,4.6-4.36,6.42s-3.98,3.99-6.88,6.53l-2.18,1.87-18.59,16.41h29.01l3.19-11.51h2.02v19.68h-39.12v-5.99Z"/>
          <path class="cls-26" d="m1297.52,1498.56v-1.63l7.15-1.17v-12.13h-26.21v-1.63l32.97-45.65h1.79v43.63h7.16v3.66h-7.16v12.13l7.16,1.17v1.63h-22.87Zm-15.24-18.59h22.4v-31.03l-22.4,31.03Z"/>
        </g>
        <path class="cls-50" d="m956.2,828.29c-371.06,0-717.89,92.3-702.86,162.8l51.94,240.22c51.18-60.12,235.84-130.09,650.92-130.09s599.75,69.97,650.92,130.09l61.43-236.88c15.03-70.5-341.29-166.14-712.36-166.14Z"/>
        <path class="cls-11" d="m956.2,820.96c-371.06,0-736.2,99.39-721.17,169.89l70.25,240.46c51.18-60.12,235.84-137.42,650.92-137.42s599.75,77.3,650.92,137.42l70.25-240.46c15.03-70.5-350.11-169.89-721.17-169.89Z"/>
        <g class="cls-62">
          <path class="cls-10" d="m335.7,1175.34c214.66-147.07,834.75-136.1,1085.46-66.15,50.6,14.25,101.17,31.63,145.85,59.8-33.92-20.35-71.32-33.7-108.94-45.24-248.16-75.45-904.18-87.76-1122.36,51.59h0Z"/>
          <path class="cls-10" d="m1637.16,968.69c-104.62-52.39-222.18-71.88-336.62-90.76-295.38-43.62-600.21-32.79-889.96,40.81-48.85,13.89-98.66,28.56-142.71,54.43,43.41-27.03,93.05-43.08,141.63-58.25,289.21-79.63,596.34-90.86,892.13-44.01,114.52,20.22,232.17,42.31,335.53,97.79h0Z"/>
        </g>
        <g>
          <path class="cls-49" d="m417.89,1101.99l-11.29-142,26.21-7.44,65.03,126.73-22.73,6.45-14.12-29.51-23.39,6.64,3.34,32.57-23.06,6.55Zm17.78-55.42l18.25-5.18-25.14-53.81,6.89,58.99Z"/>
          <path class="cls-49" d="m525.1,1073.24l-26.69-137.11,17.43-3.39,48.57,71.71-15.22-78.2,20.65-4.02,26.69,137.11-16.59,3.23-49.46-75.4,15.95,81.92-21.33,4.15Z"/>
          <path class="cls-49" d="m632.43,1053.7l-17.59-138.57,17.62-2.24,43.74,74.75-10.03-79.03,20.87-2.65,17.59,138.57-16.77,2.13-44.38-78.5,10.51,82.8-21.56,2.74Z"/>
          <path class="cls-49" d="m742.29,1041.15l-11.55-139.2,25.09-2.08,11.55,139.2-25.09,2.08Z"/>
          <path class="cls-49" d="m826.26,1035.32l-34.45-138.25,22.57-1.03,22.94,97.87,12.72-99.49,23.08-1.05-21.72,140.81-25.15,1.15Z"/>
          <path class="cls-49" d="m909.89,1032.4l-1.02-139.68,58.63-.43.13,17.93-33.11.24.29,40.18,26.04-.19.13,17.76-26.04.19.34,46.21,33.45-.24.13,17.59-58.98.43Z"/>
          <path class="cls-49" d="m999.8,1032.19l3.66-139.63,33.44.88c9.42.25,17.35,1.57,23.79,3.98,6.43,2.41,11.28,6.36,14.53,11.85,3.25,5.49,4.75,12.89,4.51,22.2-.15,5.63-.8,10.67-1.95,15.13-1.15,4.45-3.01,8.23-5.56,11.33-2.55,3.1-6.04,5.45-10.45,7.06l17.68,69.29-25.51-.67-15.22-64.4-11.72-.31-1.68,63.95-25.51-.67Zm27.61-79.32l7.93.21c4.94.13,8.9-.48,11.86-1.85,2.97-1.36,5.12-3.6,6.47-6.73,1.35-3.13,2.09-7.16,2.22-12.1.18-7.01-.97-12.3-3.47-15.88-2.49-3.57-7.36-5.45-14.6-5.64l-9.31-.24-1.11,42.23Z"/>
          <path class="cls-49" d="m1147.18,1040.1c-8.38-.55-15.27-2.64-20.67-6.28-5.41-3.64-9.34-8.71-11.79-15.2-2.46-6.5-3.55-14.34-3.3-23.55l22.14-2.87c-.12,5.41.22,10.21,1.04,14.41.82,4.2,2.27,7.49,4.37,9.88,2.09,2.39,4.97,3.7,8.64,3.94,4.13.27,7.14-.77,9.02-3.12s2.95-5.42,3.2-9.21c.4-6.08-.65-11.16-3.15-15.24-2.5-4.08-5.91-8.22-10.25-12.42l-16.54-16.64c-4.66-4.57-8.27-9.56-10.86-14.97-2.58-5.41-3.62-11.96-3.12-19.64.72-11.01,4.49-19.29,11.3-24.84,6.82-5.54,15.79-7.95,26.91-7.22,6.54.43,11.92,1.79,16.15,4.08,4.23,2.3,7.52,5.3,9.87,9.03,2.35,3.73,4,7.9,4.97,12.51.96,4.62,1.45,9.46,1.47,14.53l-21.93,2.37c.05-4.37-.18-8.31-.7-11.8-.52-3.49-1.66-6.27-3.43-8.35-1.76-2.07-4.48-3.23-8.15-3.47-3.79-.25-6.77.8-8.93,3.13-2.17,2.34-3.37,5.34-3.61,9.01-.31,4.71.41,8.64,2.16,11.81,1.75,3.17,4.35,6.48,7.82,9.93l16.38,16.45c5.42,5.19,9.95,11.17,13.6,17.91,3.65,6.75,5.17,14.71,4.57,23.89-.44,6.65-2.28,12.47-5.55,17.44-3.26,4.97-7.6,8.75-13.01,11.33-5.41,2.58-11.62,3.65-18.61,3.19Z"/>
          <path class="cls-49" d="m1205.24,1042.38l43.19-135.74,27.08,3.01,12.34,141.91-23.48-2.61-1.92-32.66-24.17-2.68-9.22,31.42-23.82-2.65Zm37.4-44.6l18.85,2.09-2.95-59.32-15.9,57.22Z"/>
          <path class="cls-49" d="m1316.21,1055.53l23.72-137.65,32.97,5.68c9.29,1.6,16.94,4.06,22.97,7.37,6.02,3.31,10.24,7.92,12.67,13.82,2.42,5.9,2.85,13.44,1.27,22.62-.96,5.55-2.32,10.45-4.11,14.69-1.78,4.24-4.16,7.71-7.13,10.41-2.98,2.7-6.76,4.52-11.36,5.48l7.52,71.12-25.15-4.34-5.79-65.92-11.55-1.99-10.86,63.05-25.15-4.33Zm38.74-74.52l7.82,1.35c4.87.84,8.87.8,12.01-.12,3.13-.92,5.59-2.83,7.38-5.73,1.78-2.9,3.09-6.79,3.93-11.66,1.19-6.91.81-12.31-1.14-16.21-1.95-3.89-6.5-6.46-13.64-7.69l-9.18-1.58-7.17,41.64Z"/>
          <path class="cls-49" d="m1442.97,1080.3l13.18-51.63-6.04-90.71,23.06,5.88,3.02,57.9,29.39-49.63,22.56,5.76-48.43,76.8-13.18,51.63-23.56-6.01Z"/>
        </g>
      </g>
    </g>
  </g>
</svg>